<svg width="36" height="35" viewBox="0 0 36 35" fill="none" xmlns="http://www.w3.org/2000/svg">
<path d="M3.82209 31.2383L3.84224 6.48828C3.84286 5.73203 4.12082 5.08486 4.67612 4.54677C5.23142 4.00868 5.89865 3.73995 6.67781 3.74059L29.3445 3.75905C30.1236 3.75968 30.7904 4.0295 31.3449 4.56849C31.8993 5.10748 32.1762 5.75511 32.1756 6.51136L32.1621 23.0113C32.1615 23.7676 31.8836 24.4148 31.3283 24.9529C30.773 25.4909 30.1057 25.7597 29.3266 25.759L9.49323 25.7429L3.82209 31.2383ZM8.2913 22.9919L29.3288 23.009L29.3422 6.50905L6.67557 6.49059L6.66088 24.5375L8.2913 22.9919Z" fill="black"/>
<g clip-path="url(#clip0_184_850)">
<path d="M19.6666 9.16667C19.6666 9.811 19.1443 10.3333 18.4999 10.3333C17.8556 10.3333 17.3333 9.811 17.3333 9.16667C17.3333 8.52233 17.8556 8 18.4999 8C19.1443 8 19.6666 8.52233 19.6666 9.16667Z" stroke="black" stroke-linecap="round" stroke-linejoin="round"/>
<path d="M18.5 10.333V12.583" stroke="black" stroke-linecap="round" stroke-linejoin="round"/>
<path d="M20.25 18.0625C20.25 18.0625 19.7 18.6458 18.5 18.6458C17.3 18.6458 16.75 18.0625 16.75 18.0625" stroke="black" stroke-linecap="round" stroke-linejoin="round"/>
<path d="M16.5417 15.8535C16.4037 15.8535 16.2917 15.7416 16.2917 15.6035C16.2917 15.4654 16.4037 15.3535 16.5417 15.3535" stroke="black" stroke-linecap="round" stroke-linejoin="round"/>
<path d="M16.5417 15.8535C16.6798 15.8535 16.7917 15.7416 16.7917 15.6035C16.7917 15.4654 16.6798 15.3535 16.5417 15.3535" stroke="black" stroke-linecap="round" stroke-linejoin="round"/>
<path d="M20.4583 15.8535C20.3202 15.8535 20.2083 15.7416 20.2083 15.6035C20.2083 15.4654 20.3202 15.3535 20.4583 15.3535" stroke="black" stroke-linecap="round" stroke-linejoin="round"/>
<path d="M20.4583 15.8535C20.5963 15.8535 20.7083 15.7416 20.7083 15.6035C20.7083 15.4654 20.5963 15.3535 20.4583 15.3535" stroke="black" stroke-linecap="round" stroke-linejoin="round"/>
<path d="M13 18.625V14.625C13 13.5204 13.8954 12.625 15 12.625H22C23.1046 12.625 24 13.5204 24 14.625V18.625C24 19.7296 23.1046 20.625 22 20.625H15C13.8954 20.625 13 19.7296 13 18.625Z" stroke="black" stroke-linecap="round" stroke-linejoin="round"/>
</g>
<defs>
<clipPath id="clip0_184_850">
<rect width="14" height="14" fill="white" transform="translate(12 7)"/>
</clipPath>
</defs>
</svg>
