<?xml version="1.0" encoding="UTF-8"?>
<svg id="Layer_1" data-name="Layer 1" xmlns="http://www.w3.org/2000/svg" viewBox="0 0 233.74 293.33">
  <defs>
    <style>
      .cls-1 {
        fill: #d4e4ea;
      }

      .cls-1, .cls-2, .cls-3, .cls-4, .cls-5, .cls-6 {
        stroke: #2f6c89;
        stroke-miterlimit: 10;
      }

      .cls-1, .cls-2, .cls-3, .cls-5, .cls-6 {
        stroke-width: 5px;
      }

      .cls-2 {
        fill: #e2ebef;
      }

      .cls-3 {
        fill: none;
      }

      .cls-4 {
        stroke-width: 4px;
      }

      .cls-4, .cls-5 {
        fill: #fff;
      }

      .cls-6 {
        fill: #2f6c89;
      }
    </style>
  </defs>
  <g>
    <ellipse class="cls-1" cx="115.69" cy="178.35" rx="107.21" ry="112.49"/>
    <path class="cls-4" d="M183.36,267.22c-9.4-29.88-33.9-35.94-33.9-35.94,0,0-31.18-2.16-60.19,0-29.01,2.16-38.88,35.94-38.88,35.94,0,0,34.48,27.05,66.48,23.62,32.01-3.43,40.21-8.69,40.21-8.69l26.27-14.93Z"/>
  </g>
  <g>
    <g>
      <path class="cls-5" d="M31.07,172.31c-22.12-9.94-49.4-37.52-3.96-65.87"/>
      <path class="cls-5" d="M201.17,175.46c22.55-8.94,51.04-35.26,6.91-65.62"/>
      <circle class="cls-1" cx="115.65" cy="20.37" r="17.87"/>
      <line class="cls-3" x1="115.65" y1="52.78" x2="115.65" y2="38.24"/>
      <path class="cls-5" d="M156.92,55.08h-82.09s-25.07,9.97-32.74,21.74-15.35,28.65-15.35,28.65v52.69s5.12,20.97,15.35,30.69c10.23,9.72,17.39,18.42,36.32,21.48,18.93,3.07,78.51,0,78.51,0,0,0,30.96-8.18,38.63-24.04s11.25-29.67,11.25-29.67c0,0,1.02-37.34,0-43.48-1.02-6.14-5.63-22-15.86-36.32-10.23-14.32-34.02-21.74-34.02-21.74"/>
    </g>
    <g>
      <ellipse class="cls-2" cx="115.65" cy="133.39" rx="66.48" ry="58.73"/>
      <circle class="cls-6" cx="83.6" cy="124.94" r="7.79"/>
      <circle class="cls-6" cx="147.69" cy="125.6" r="7.79"/>
      <path class="cls-3" d="M99.46,154.88s16.55,21.76,32.37,0"/>
    </g>
  </g>
</svg>
