<svg width="163" height="191" viewBox="0 0 163 191" fill="none" xmlns="http://www.w3.org/2000/svg">
<path d="M123.386 101.405L97.9402 108.211C91.1377 110.292 83.9596 110.847 76.9179 109.836C74.8513 114.928 73.6573 121.296 76.1995 126.189V126.208C73.2232 133.214 69.5698 139.912 65.2913 146.208C54.901 144.759 44.6004 142.726 34.4384 140.12C30.7688 145.387 29.0743 148.706 30.0146 157.513C41.1874 161.105 50.3375 163.808 61.0377 166.209C64.4466 166.977 68.004 166.754 71.2902 165.566C74.5763 164.378 77.454 162.274 79.5835 159.504C85.1413 152.068 90.2546 144.309 94.8965 136.269L84.9008 132.759C93.605 135.132 104.774 130.75 111.895 127.115V127.134L106.124 151.313C110.636 154.963 117.517 156.342 123.082 155.415L135.654 114.123C136.178 112.399 136.232 110.567 135.81 108.815C135.389 107.064 134.507 105.457 133.256 104.16C132.006 102.863 130.431 101.924 128.696 101.44C126.961 100.955 125.128 100.943 123.386 101.405Z" fill="#FECFC4"/>
<path d="M132.48 74.8429L137.395 73.9544L125.579 8.97791L119.057 1L132.48 74.8429Z" fill="#FECFC4"/>
<path d="M118.414 1.11328L115.106 10.8872L126.94 75.8636L131.837 74.9751L118.414 1.11328Z" fill="#FECFC4"/>
<path d="M65.1402 114.241C65.0835 113.674 64.1949 113.069 62.1343 112.805L62.5124 115.735C64.0815 115.546 65.1999 114.903 65.1402 114.241Z" fill="#6153BD"/>
<path d="M54.7224 113.031C52.1354 113.429 51.1006 114.089 51.0747 114.695C51.0429 115.413 52.4548 116.056 54.402 115.98C54.5662 115.838 54.6906 115.656 54.7612 115.451C54.8511 114.646 54.8374 113.833 54.7224 113.031Z" fill="#6153BD"/>
<path d="M32.6046 142.769C30.4999 141.951 28.347 141.262 26.158 140.708C20.3352 144.054 12.228 147.636 4.02022 154.717C3.8596 154.85 3.74135 155.027 3.67993 155.227C8.71264 155.435 13.7533 155.296 18.7661 154.811C22.3014 154.528 26.2147 153.923 29.7499 154.452C29.6574 150.051 30.1529 146.885 32.6046 142.769Z" fill="#6153BD"/>
<path d="M120.645 166.966C120.347 163.337 119.719 159.291 120.324 155.723C116.26 155.856 112.233 154.924 108.641 153.02C107.874 155.039 107.212 157.096 106.656 159.183C110.172 165.1 113.802 173.475 121.06 182.246C121.27 177.149 121.131 172.044 120.645 166.966Z" fill="#6153BD"/>
<path d="M87.2212 52.5922C87.0762 52.2427 86.8163 51.9532 86.4844 51.7715C86.1525 51.5898 85.7686 51.5268 85.3961 51.593C85.0235 51.6591 84.6847 51.8504 84.4356 52.1352C84.1866 52.42 84.0422 52.7813 84.0263 53.1593C83.9885 53.1593 83.9696 53.1782 83.9318 53.1782C83.7725 52.8183 83.4915 52.5261 83.1381 52.3529C82.7847 52.1796 82.3815 52.1365 81.9995 52.231C81.6171 52.3257 81.2806 52.5527 81.0495 52.8718C80.8184 53.1908 80.7076 53.5814 80.7368 53.9742C80.7179 53.9742 80.699 53.9931 80.6801 53.9931C80.4917 53.6065 80.1608 53.3078 79.757 53.1598C79.3531 53.0118 78.9076 53.026 78.5139 53.1994C78.1203 53.3728 77.8091 53.6919 77.6457 54.0898C77.4823 54.4877 77.4793 54.9334 77.6374 55.3334C77.4642 55.0192 77.1935 54.7699 76.866 54.6232C76.5386 54.4765 76.1723 54.4405 75.8225 54.5205C75.5579 54.5852 75.3129 54.7128 75.1082 54.8925C74.9035 55.0722 74.7453 55.2987 74.6469 55.5527C74.5485 55.8067 74.5129 56.0807 74.5432 56.3514C74.5734 56.6221 74.6686 56.8815 74.8206 57.1075C75.936 59.2059 81.6453 70.3977 80.3597 74.4205C81.9856 70.7529 81.1557 65.6297 80.8134 65.3461C77.4862 62.5859 79.9438 59.5044 81.5507 61.5651C82.3258 62.5481 82.685 62.5103 82.893 61.8865C83.5547 58.6726 87.5436 53.9842 89.659 60.4308C86.9456 51.6788 87.3765 53.0588 87.2212 52.5922Z" fill="#6153BD"/>
<path d="M73.2883 93.9188C71.6571 94.493 70.0763 95.2012 68.562 96.0361L72.2863 91.8203C72.6574 92.5009 72.9927 93.2014 73.2883 93.9188Z" fill="#6153BD"/>
<path d="M98.5452 105.621L89.8489 92.0283L98.6964 102.218C98.77 103.355 98.7193 104.496 98.5452 105.621Z" fill="#6153BD"/>
<path d="M96.9571 132.674C96.2765 133.868 95.596 135.056 94.8776 136.266L83.9883 132.447C87.8638 133.827 92.6279 133.6 96.9571 132.674Z" fill="#6153BD"/>
<path d="M133.935 94.5238L137.433 93.881L136.412 88.2852C135.391 88.512 134.181 88.6832 132.929 88.9468L133.935 94.5238Z" fill="#6153BD"/>
<path d="M134.332 76.9419L133.898 74.5977L130.4 75.2404L130.835 77.5846C131.467 77.4712 133.96 77.0185 134.332 76.9419Z" fill="#6153BD"/>
<path d="M150.836 178.916C150.869 179.176 151.002 179.413 151.205 179.578C151.409 179.742 151.668 179.822 151.929 179.8C152.191 179.778 152.433 179.656 152.606 179.46C152.78 179.263 152.87 179.007 152.859 178.746L152.708 177.154C152.685 176.885 152.557 176.637 152.352 176.463C152.146 176.29 151.88 176.205 151.612 176.227C151.343 176.25 151.095 176.378 150.921 176.584C150.748 176.789 150.663 177.055 150.685 177.324L150.836 178.916Z" fill="#6153BD"/>
<path d="M114.085 177.195C108.999 182.245 103.242 186.57 96.9762 190.051C83.9128 185.608 72.0017 177.195 61.9641 166.4" stroke="#120071" stroke-linecap="round" stroke-linejoin="round"/>
<path d="M122.441 50.2857C108.964 45.0577 95.8411 38.9574 83.1566 32.0234C65.4595 45.1288 47.0011 57.1735 27.8784 68.0942L30.355 96.3004C31.9677 112.557 36.9031 128.309 44.8551 142.58" stroke="#120071" stroke-linecap="round" stroke-linejoin="round"/>
<path d="M120.759 169.878C139.456 146.985 148.795 114.184 146.337 86.1293L143.861 57.942C140.512 56.854 137.178 55.7196 133.86 54.5391" stroke="#120071" stroke-linecap="round" stroke-linejoin="round"/>
<path d="M76.8992 77.7737C82.7597 75.7509 81.2901 65.7631 80.8125 65.3531C77.521 62.5313 79.9369 59.5155 81.5498 61.5721C82.114 62.2925 82.709 62.7383 82.903 61.8398C83.6582 58.3424 88.3248 53.1514 90.1894 62.5174C92.7376 75.317 83.4592 69.947 83.4592 69.947" stroke="#120071" stroke-linecap="round" stroke-linejoin="round"/>
<path d="M54.402 115.981C52.4548 116.056 51.0429 115.413 51.0747 114.695C51.1474 113.058 57.0915 112.746 58.7084 112.696C60.2785 112.649 65.0386 112.673 65.1401 114.242C65.1401 114.46 64.958 115.436 62.5123 115.734" stroke="#120071" stroke-linecap="round" stroke-linejoin="round"/>
<path d="M62.5502 116.302C62.8914 118.606 63.0745 120.93 63.0984 123.259C62.8716 124.526 59.7154 130.895 57.7483 133.657C56.4986 135.414 54.8001 135.927 56.2926 132.39C57.1468 130.267 57.8543 128.088 58.41 125.868C59.9622 119.97 55.611 118.722 53.8917 121.123C51.4251 124.569 49.5425 125.585 50.3753 122.957C50.8848 121.35 51.1504 120.386 51.5096 119.157C51.7882 118.211 53.6459 116.804 54.3772 116.018C54.5414 115.868 54.6668 115.679 54.7424 115.471C54.822 114.666 54.8101 113.854 54.7046 113.051C57.1515 112.688 59.633 112.618 62.0964 112.843C62.0964 112.843 62.2208 113.707 62.5502 116.302Z" stroke="#120071" stroke-linecap="round" stroke-linejoin="round"/>
<path d="M57.5781 128.758C56.3371 130.247 54.9144 131.574 53.3434 132.71C51.3952 134.051 50.6231 133.033 52.8141 130.611C54.3488 128.915 55.7045 127.065 56.8597 125.091" stroke="#120071" stroke-linecap="round" stroke-linejoin="round"/>
<path d="M55.3494 124.034C56.2648 124.797 57.2906 125.416 58.3931 125.868" stroke="#120071" stroke-linecap="round" stroke-linejoin="round"/>
<path d="M55.1204 127.72C53.6297 128.619 52.0362 129.335 50.3743 129.853C48.2201 130.498 48.3843 129.184 50.6389 128C52.4426 126.957 54.1285 125.723 55.6676 124.318" stroke="#120071" stroke-linecap="round" stroke-linejoin="round"/>
<path d="M52.8329 126.606C51.6713 126.91 50.479 127.081 49.2788 127.116C47.6529 127.052 47.1246 126.175 49.5245 125.604C51.4179 125.164 53.2308 124.43 54.8975 123.43C54.9798 122.23 55.3217 121.062 55.8995 120.008" stroke="#120071" stroke-linecap="round" stroke-linejoin="round"/>
<path d="M68.562 96.0361L72.2863 91.8203C72.6634 92.4979 73.0027 93.1954 73.3052 93.9098" stroke="#120071" stroke-linecap="round" stroke-linejoin="round"/>
<path d="M98.5454 105.621L89.8491 92.0469L98.6967 102.237" stroke="#120071" stroke-linecap="round" stroke-linejoin="round"/>
<path d="M65.1402 114.241C64.8188 110.101 64.3442 100.422 64.384 98.2285C66.8715 97.0415 70.4137 94.8216 73.3052 93.9132C75.1787 98.4126 76.1419 104.407 76.8991 109.855C83.9405 110.875 91.1206 110.32 97.9215 108.229C98.5733 106.302 98.8367 104.266 98.6966 102.236C98.5971 101.996 103.151 108.213 109.699 104.108L131.894 90.4586C130.778 85.2408 128.245 80.3633 123.973 78.0758L105.71 90.6128C97.9215 78.7783 97.9205 73.9336 85.274 75.7873C76.1608 77.1256 66.6954 81.2767 57.824 87.3193C51.2102 91.8237 51.058 94.2953 50.848 100.893C50.6552 105.494 50.7373 110.103 51.0938 114.694" stroke="#120071" stroke-linecap="round" stroke-linejoin="round"/>
<path d="M117.318 124.091C117.318 124.091 115.201 125.452 111.892 127.135" stroke="#120071" stroke-linecap="round" stroke-linejoin="round"/>
<path d="M96.9404 132.787C91.7759 142.089 85.9706 151.021 79.5667 159.518C77.4376 162.29 74.5602 164.394 71.2741 165.583C67.988 166.772 64.4303 166.997 61.0209 166.23C50.3216 163.823 41.1706 161.125 29.9978 157.515C29.6993 153.804 29.4008 150.279 30.8734 146.323C31.758 144.103 32.9457 142.016 34.4026 140.122C44.5647 142.728 54.8653 144.76 65.2556 146.209C69.5847 139.919 73.2228 133.181 76.1071 126.11" stroke="#120071" stroke-linecap="round" stroke-linejoin="round"/>
<path d="M86.3128 70.9795C86.1039 72.7327 85.7496 74.263 87.1088 75.5804" stroke="#120071" stroke-linecap="round" stroke-linejoin="round"/>
<path d="M3.68001 155.226C3.11286 155.188 2.5079 155.173 1.94075 155.131C1.78766 155.12 1.63911 155.074 1.50628 154.997C1.37345 154.92 1.2598 154.814 1.17388 154.687C1.08796 154.56 1.03201 154.415 1.01025 154.263C0.988489 154.111 1.00148 153.956 1.04824 153.81C1.11092 153.615 1.23032 153.443 1.39251 153.316C5.21457 150.327 9.28082 147.665 13.5484 145.356C17.3145 143.302 20.6945 141.708 23.4168 140.101C24.3432 140.29 25.2506 140.46 26.1581 140.706" stroke="#120071" stroke-linecap="round" stroke-linejoin="round"/>
<path d="M32.6046 142.769C30.1668 146.861 29.6554 150.024 29.7499 154.452C26.2147 153.923 22.3014 154.527 18.7661 154.811C13.7533 155.295 8.71264 155.433 3.67993 155.225C3.74135 155.026 3.8596 154.848 4.02022 154.715C12.233 147.633 20.3382 144.052 26.158 140.706C28.3453 141.267 30.4978 141.956 32.6046 142.769Z" stroke="#120071" stroke-linecap="round" stroke-linejoin="round"/>
<path d="M121.06 182.242C121.023 182.747 121.003 183.27 120.948 183.774C120.931 183.978 120.854 184.173 120.726 184.333C120.598 184.492 120.424 184.61 120.228 184.67C120.032 184.729 119.822 184.727 119.626 184.666C119.431 184.603 119.259 184.483 119.133 184.322C112.409 175.75 109.132 167.743 105.918 162.298C106.126 161.239 106.391 160.218 106.656 159.179" stroke="#120071" stroke-linecap="round" stroke-linejoin="round"/>
<path d="M120.124 161.065C119.991 159.282 120.052 157.489 120.305 155.719C116.241 155.852 112.214 154.92 108.622 153.016C107.858 155.153 107.229 156.955 106.656 159.179C110.172 165.096 113.801 173.47 121.06 182.242C121.549 173.512 120.338 164.877 120.124 161.065Z" stroke="#120071" stroke-linecap="round" stroke-linejoin="round"/>
<path d="M121.761 76.8097L142.575 73.0098" stroke="#120071" stroke-linecap="round" stroke-linejoin="round"/>
<path d="M5.6084 122.389L9.84312 127.361L13.5674 119.289" stroke="#120071" stroke-linecap="round" stroke-linejoin="round"/>
<path d="M157.472 178.424L156.924 172.091L145.656 173.074L146.205 179.407C146.26 180.154 146.464 180.882 146.803 181.55C147.142 182.218 147.611 182.811 148.181 183.296C148.751 183.782 149.413 184.149 150.126 184.377C150.839 184.605 151.591 184.689 152.337 184.624C153.083 184.559 153.809 184.346 154.472 183.998C155.135 183.65 155.722 183.174 156.2 182.597C156.678 182.02 157.036 181.354 157.255 180.638C157.473 179.922 157.547 179.169 157.472 178.424Z" stroke="#120071" stroke-linecap="round" stroke-linejoin="round"/>
<path d="M145.656 173.073L145.297 169.028C145.188 167.545 145.667 166.078 146.63 164.945C147.594 163.814 148.965 163.107 150.446 162.977C151.927 162.848 153.399 163.307 154.545 164.255C155.69 165.203 156.416 166.565 156.565 168.045" stroke="#120071" stroke-linecap="round" stroke-linejoin="round"/>
<path d="M150.836 178.916C150.869 179.176 151.002 179.413 151.205 179.578C151.409 179.742 151.668 179.822 151.929 179.8C152.191 179.778 152.433 179.656 152.606 179.46C152.78 179.263 152.87 179.007 152.859 178.746L152.708 177.154C152.685 176.885 152.557 176.637 152.352 176.463C152.146 176.29 151.88 176.205 151.612 176.227C151.343 176.25 151.095 176.378 150.921 176.584C150.748 176.789 150.663 177.055 150.685 177.324L150.836 178.916Z" stroke="#120071" stroke-linecap="round" stroke-linejoin="round"/>
<path d="M39.9965 36.2955C40.0462 36.7549 40.0037 37.2195 39.8715 37.6622C39.7394 38.1049 39.5202 38.5168 39.2269 38.8737C38.9335 39.2306 38.5719 39.5254 38.1632 39.7408C37.7545 39.9563 37.3069 40.0879 36.8466 40.1282C36.3864 40.1684 35.9227 40.1164 35.4828 39.9753C35.0429 39.8341 34.6356 39.6065 34.2848 39.3059C33.9339 39.0053 33.6466 38.6377 33.4396 38.2247C33.2326 37.8117 33.1101 37.3615 33.0793 36.9005C33.0187 35.9938 33.3158 35.0996 33.907 34.4095C34.4982 33.7195 35.3363 33.2887 36.2415 33.2095C37.1467 33.1303 38.0469 33.4091 38.7489 33.9861C39.4509 34.563 39.8988 35.3921 39.9965 36.2955Z" stroke="#120071" stroke-linecap="round" stroke-linejoin="round"/>
<path d="M136.847 85.3354C138.794 85.1652 139.135 87.793 137.543 88.0388C137.411 88.0597 133.63 88.7194 131.607 89.2487C130.53 85.1085 128.523 81.3275 125.425 79.0002C126.881 78.244 128.696 77.9415 133.857 77.0102C134.594 76.8779 136.597 76.4769 137.298 76.3485C139.205 75.9983 139.726 78.7077 138.167 79.0898C137.998 79.1316 136.352 79.4878 136.163 79.5246C136.258 79.5057 137.126 79.4659 137.222 79.449C139.256 79.0947 139.755 81.8688 138.092 82.2469L136.485 82.4927C136.598 82.4738 136.957 82.436 137.071 82.4171C139.075 82.1902 139.504 84.8279 137.867 85.1772C137.621 85.2369 137.112 85.2976 136.847 85.3354Z" stroke="#120071" stroke-linecap="round" stroke-linejoin="round"/>
<path d="M89.66 60.4375L87.2401 52.5919C87.0847 52.2446 86.8176 51.9591 86.4813 51.7809C86.1451 51.6026 85.7589 51.5418 85.3842 51.6081C85.0094 51.6745 84.6676 51.8641 84.4129 52.1468C84.1582 52.4296 84.0054 52.7894 83.9785 53.169C83.852 52.9005 83.6581 52.6694 83.4158 52.498C83.1734 52.3266 82.8908 52.2209 82.5955 52.1912C82.3002 52.1614 82.0022 52.2086 81.7305 52.3282C81.4589 52.4478 81.2228 52.6356 81.0453 52.8735C80.8079 53.1928 80.6887 53.5846 80.7079 53.9819C79.7856 51.972 76.7279 53.4407 77.6364 55.3332C77.5173 55.1168 77.3511 54.9299 77.1502 54.7863C76.9493 54.6426 76.7188 54.5458 76.4755 54.503C76.2323 54.4603 75.9825 54.4726 75.7447 54.5391C75.5068 54.6056 75.2869 54.7246 75.1011 54.8874C74.7888 55.157 74.5858 55.5315 74.5304 55.9404C74.4751 56.3493 74.5712 56.7643 74.8006 57.1072C75.916 59.2057 81.6253 70.3785 80.3398 74.4053" stroke="#120071" stroke-linecap="round" stroke-linejoin="round"/>
<path d="M154.825 41.0791L155.109 44.4064" stroke="#120071" stroke-linecap="round" stroke-linejoin="round"/>
<path d="M152.255 47.8096L148.927 48.1121" stroke="#120071" stroke-linecap="round" stroke-linejoin="round"/>
<path d="M161.839 46.958L158.512 47.2605" stroke="#120071" stroke-linecap="round" stroke-linejoin="round"/>
<path d="M155.941 53.9913L155.657 50.6641" stroke="#120071" stroke-linecap="round" stroke-linejoin="round"/>
<path d="M158.512 47.2609C157.893 47.3159 157.272 47.1859 156.727 46.8872C156.182 46.5885 155.738 46.1347 155.451 45.5833C155.261 45.2172 155.145 44.8173 155.109 44.4062C155.145 44.8172 155.1 45.2312 154.976 45.6247C154.852 46.0181 154.652 46.3833 154.387 46.6993C154.122 47.0154 153.797 47.276 153.431 47.4665C153.065 47.6569 152.665 47.7733 152.254 47.8092C152.873 47.755 153.494 47.8855 154.039 48.1841C154.584 48.4827 155.028 48.936 155.315 49.4867C155.505 49.8529 155.621 50.2529 155.657 50.6638C155.602 50.0449 155.733 49.4236 156.031 48.8787C156.33 48.3338 156.784 47.8899 157.335 47.6032C157.701 47.4131 158.101 47.2967 158.512 47.2609Z" stroke="#120071" stroke-linecap="round" stroke-linejoin="round"/>
<path d="M94.9345 136.286L84.3298 132.606" stroke="#120071" stroke-linecap="round" stroke-linejoin="round"/>
<path d="M97.9024 108.229L123.349 101.423C125.093 100.957 126.929 100.966 128.669 101.448C130.409 101.931 131.988 102.869 133.243 104.167C134.498 105.464 135.383 107.073 135.808 108.828C136.232 110.583 136.179 112.419 135.656 114.146L123.084 155.439C120.255 155.89 117.366 155.807 114.567 155.196C111.489 154.589 108.598 153.267 106.126 151.337L111.897 127.138C105.415 130.459 96.2856 133.935 88.637 133.384C79.89 132.753 73.4374 127.131 74.9567 116.668C75.312 114.331 75.9664 112.05 76.904 109.881" stroke="#120071" stroke-linecap="round" stroke-linejoin="round"/>
<path d="M105.71 90.6104L106.712 92.0471" stroke="#120071" stroke-linecap="round" stroke-linejoin="round"/>
<path d="M115.106 10.8877L118.713 1.13965L125.579 8.97826L137.395 73.9547L126.94 75.8642L115.106 10.8877Z" stroke="#120071" stroke-linejoin="round"/>
<path d="M118.72 1.14648L132.146 74.8173" stroke="#120071" stroke-linecap="round"/>
<path d="M133.935 94.5238L137.433 93.881L136.412 88.2852C135.391 88.512 134.181 88.6832 132.929 88.9468L133.935 94.5238Z" stroke="#120071" stroke-linejoin="round"/>
<path d="M134.332 76.9419L133.898 74.5977L130.4 75.2404L130.835 77.5846C131.467 77.4712 133.96 77.0185 134.332 76.9419Z" stroke="#120071" stroke-linejoin="round"/>
</svg>
