<svg width="38" height="38" viewBox="0 0 38 38" fill="none" xmlns="http://www.w3.org/2000/svg">
<path d="M28.3932 20.1199L22.6977 21.4159C21.1751 21.8123 19.5685 21.918 17.9924 21.7255C17.5298 22.695 17.2626 23.9077 17.8316 24.8395V24.8431C17.1654 26.1771 16.3477 27.4527 15.3901 28.6515C13.0644 28.3756 10.7589 27.9886 8.48436 27.4923C7.66302 28.4952 7.28375 29.1273 7.49421 30.8043C9.99499 31.4883 12.043 32.0031 14.438 32.4603C15.201 32.6065 15.9972 32.564 16.7328 32.3378C17.4683 32.1115 18.1124 31.711 18.589 31.1834C19.833 29.7674 20.9775 28.29 22.0165 26.759L19.7792 26.0906C21.7274 26.5425 24.2273 25.708 25.8212 25.0159V25.0195L24.5295 29.6237C25.5395 30.3187 27.0795 30.5813 28.3251 30.4049L31.139 22.5417C31.2563 22.2135 31.2683 21.8646 31.174 21.5311C31.0797 21.1975 30.8823 20.8915 30.6024 20.6446C30.3225 20.3976 29.9701 20.2188 29.5817 20.1266C29.1933 20.0343 28.783 20.032 28.3932 20.1199Z" fill="#FECFC4"/>
<path d="M30.4286 15.0616L31.5288 14.8924L28.8842 2.51919L27.4243 1L30.4286 15.0616Z" fill="#FECFC4"/>
<path d="M27.2803 1.02148L26.5398 2.88268L29.1887 15.2558L30.2846 15.0866L27.2803 1.02148Z" fill="#FECFC4"/>
<path d="M15.3561 22.5636C15.3435 22.4556 15.1446 22.3404 14.6833 22.29L14.768 22.848C15.1192 22.812 15.3695 22.6896 15.3561 22.5636Z" fill="#6153BD"/>
<path d="M13.0246 22.333C12.4455 22.4088 12.2139 22.5344 12.2081 22.6498C12.201 22.7866 12.517 22.909 12.9529 22.8946C12.9896 22.8675 13.0174 22.8328 13.0333 22.7938C13.0534 22.6405 13.0503 22.4857 13.0246 22.333Z" fill="#6153BD"/>
<path d="M8.07394 27.9959C7.60285 27.8401 7.12098 27.7091 6.63102 27.6035C5.32774 28.2407 3.51313 28.9228 1.67602 30.2711C1.64007 30.2965 1.6136 30.3303 1.59985 30.3683C2.7263 30.4079 3.85454 30.3814 4.97654 30.2891C5.76781 30.2351 6.64372 30.1199 7.435 30.2207C7.41428 29.3827 7.52519 28.7798 8.07394 27.9959Z" fill="#6153BD"/>
<path d="M27.7797 32.6041C27.7129 31.9129 27.5724 31.1425 27.7078 30.463C26.7982 30.4884 25.8967 30.3109 25.0927 29.9482C24.9212 30.3327 24.7729 30.7245 24.6484 31.1218C25.4355 32.2486 26.2479 33.8434 27.8726 35.5136C27.9196 34.5432 27.8884 33.571 27.7797 32.6041Z" fill="#6153BD"/>
<path d="M20.2985 10.8241C20.2661 10.7575 20.2079 10.7024 20.1336 10.6678C20.0593 10.6332 19.9734 10.6212 19.89 10.6338C19.8066 10.6464 19.7308 10.6828 19.675 10.737C19.6193 10.7913 19.587 10.8601 19.5834 10.9321C19.5749 10.9321 19.5707 10.9357 19.5622 10.9357C19.5266 10.8671 19.4637 10.8115 19.3846 10.7785C19.3055 10.7455 19.2153 10.7373 19.1298 10.7553C19.0442 10.7733 18.9688 10.8165 18.9171 10.8773C18.8654 10.9381 18.8406 11.0124 18.8471 11.0872C18.8429 11.0872 18.8387 11.0908 18.8344 11.0908C18.7923 11.0172 18.7182 10.9603 18.6278 10.9321C18.5374 10.904 18.4377 10.9067 18.3496 10.9397C18.2615 10.9727 18.1918 11.0335 18.1553 11.1092C18.1187 11.185 18.118 11.2699 18.1534 11.346C18.1146 11.2862 18.054 11.2387 17.9807 11.2108C17.9075 11.1829 17.8255 11.176 17.7472 11.1913C17.688 11.2036 17.6331 11.2279 17.5873 11.2621C17.5415 11.2963 17.5061 11.3394 17.4841 11.3878C17.462 11.4362 17.4541 11.4883 17.4608 11.5399C17.4676 11.5914 17.4889 11.6408 17.5229 11.6839C17.7726 12.0835 19.0505 14.2147 18.7627 14.9807C19.1266 14.2823 18.9409 13.3067 18.8643 13.2527C18.1196 12.7271 18.6696 12.1403 19.0293 12.5327C19.2028 12.7199 19.2832 12.7127 19.3297 12.5939C19.4778 11.9819 20.3707 11.0891 20.8442 12.3167C20.2368 10.6501 20.3333 10.9129 20.2985 10.8241Z" fill="#6153BD"/>
<path d="M17.1799 18.6935C16.8148 18.8029 16.461 18.9377 16.1221 19.0967L16.9557 18.2939C17.0387 18.4235 17.1138 18.5569 17.1799 18.6935Z" fill="#6153BD"/>
<path d="M22.8332 20.9214L20.8867 18.333L22.867 20.2734C22.8835 20.4898 22.8722 20.7071 22.8332 20.9214Z" fill="#6153BD"/>
<path d="M22.4777 26.0735C22.3254 26.3008 22.173 26.5271 22.0123 26.7575L19.575 26.0303C20.4424 26.2931 21.5087 26.2499 22.4777 26.0735Z" fill="#6153BD"/>
<path d="M30.7545 18.8091L31.5373 18.6867L31.3088 17.6211C31.0803 17.6643 30.8095 17.6969 30.5293 17.7471L30.7545 18.8091Z" fill="#6153BD"/>
<path d="M30.8433 15.461L30.7459 15.0146L29.9631 15.137L30.0605 15.5834C30.2019 15.5618 30.76 15.4756 30.8433 15.461Z" fill="#6153BD"/>
<path d="M34.5373 34.8788C34.5447 34.9283 34.5743 34.9735 34.6199 35.0049C34.6655 35.0363 34.7235 35.0515 34.782 35.0473C34.8404 35.0431 34.8947 35.0199 34.9335 34.9824C34.9723 34.945 34.9925 34.8963 34.9901 34.8464L34.9563 34.5433C34.9512 34.4922 34.9225 34.4449 34.8765 34.4118C34.8305 34.3788 34.7709 34.3626 34.7108 34.3669C34.6508 34.3712 34.5952 34.3956 34.5563 34.4348C34.5174 34.4739 34.4984 34.5246 34.5035 34.5757L34.5373 34.8788Z" fill="#6153BD"/>
<path d="M26.3113 34.5517C25.1728 35.5132 23.8843 36.3369 22.4819 36.9997C19.558 36.1537 16.8919 34.5517 14.6453 32.4961" stroke="#120071" stroke-linecap="round" stroke-linejoin="round"/>
<path d="M28.1817 10.3848C25.1651 9.38928 22.2279 8.22763 19.3888 6.90723C15.4277 9.40281 11.2963 11.6964 7.01611 13.776L7.57043 19.1472C7.9314 22.2429 9.03607 25.2425 10.8159 27.96" stroke="#120071" stroke-linecap="round" stroke-linejoin="round"/>
<path d="M27.8052 33.1588C31.9901 28.7992 34.0804 22.5533 33.5303 17.2109L32.976 11.8433C32.2263 11.6361 31.4801 11.4201 30.7376 11.1953" stroke="#120071" stroke-linecap="round" stroke-linejoin="round"/>
<path d="M17.9883 15.6198C19.3 15.2346 18.9711 13.3327 18.8642 13.2546C18.1275 12.7173 18.6682 12.143 19.0292 12.5346C19.1555 12.6718 19.2887 12.7567 19.3321 12.5856C19.5011 11.9196 20.5456 10.9311 20.963 12.7146C21.5333 15.152 19.4566 14.1294 19.4566 14.1294" stroke="#120071" stroke-linecap="round" stroke-linejoin="round"/>
<path d="M12.9529 22.8953C12.517 22.9097 12.201 22.7871 12.2081 22.6505C12.2244 22.3386 13.5548 22.2793 13.9167 22.2698C14.2682 22.2607 15.3336 22.2655 15.3563 22.5641C15.3563 22.6058 15.3156 22.7914 14.7681 22.8483" stroke="#120071" stroke-linecap="round" stroke-linejoin="round"/>
<path d="M14.7767 22.9558C14.853 23.3944 14.894 23.837 14.8994 24.2806C14.8486 24.5218 14.1422 25.7346 13.7019 26.2606C13.4222 26.5952 13.042 26.6928 13.3761 26.0194C13.5673 25.6151 13.7256 25.2001 13.85 24.7774C14.1974 23.6542 13.2235 23.4166 12.8387 23.8738C12.2866 24.5299 11.8652 24.7234 12.0516 24.223C12.1656 23.917 12.2251 23.7334 12.3055 23.4994C12.3679 23.3192 12.7837 23.0513 12.9473 22.9016C12.9841 22.873 13.0121 22.8372 13.0291 22.7974C13.0469 22.6441 13.0442 22.4895 13.0206 22.3366C13.5683 22.2675 14.1237 22.2542 14.6751 22.297C14.6751 22.297 14.7029 22.4616 14.7767 22.9558Z" stroke="#120071" stroke-linecap="round" stroke-linejoin="round"/>
<path d="M13.6637 25.3283C13.3859 25.6118 13.0675 25.8645 12.7158 26.0807C12.2798 26.3361 12.107 26.1423 12.5974 25.6811C12.9409 25.3581 13.2443 25.0058 13.5029 24.6299" stroke="#120071" stroke-linecap="round" stroke-linejoin="round"/>
<path d="M13.1648 24.4287C13.3697 24.574 13.5993 24.6919 13.8461 24.7779" stroke="#120071" stroke-linecap="round" stroke-linejoin="round"/>
<path d="M13.1136 25.1302C12.7799 25.3014 12.4233 25.4377 12.0513 25.5363C11.5691 25.6592 11.6059 25.4089 12.1105 25.1835C12.5142 24.9849 12.8916 24.7498 13.2361 24.4824" stroke="#120071" stroke-linecap="round" stroke-linejoin="round"/>
<path d="M12.6017 24.9185C12.3417 24.9764 12.0748 25.009 11.8062 25.0157C11.4423 25.0036 11.324 24.8365 11.8612 24.7277C12.285 24.6439 12.6907 24.5042 13.0638 24.3137C13.0822 24.0853 13.1587 23.8629 13.2881 23.6621" stroke="#120071" stroke-linecap="round" stroke-linejoin="round"/>
<path d="M16.1221 19.0967L16.9557 18.2939C17.0401 18.423 17.116 18.5558 17.1837 18.6918" stroke="#120071" stroke-linecap="round" stroke-linejoin="round"/>
<path d="M22.8332 20.9227L20.8867 18.3379L22.867 20.2783" stroke="#120071" stroke-linecap="round" stroke-linejoin="round"/>
<path d="M15.3562 22.5636C15.2843 21.7753 15.178 19.9321 15.1869 19.5145C15.7437 19.2884 16.5365 18.8657 17.1837 18.6927C17.6031 19.5495 17.8187 20.6911 17.9881 21.7285C19.5642 21.9227 21.1713 21.8169 22.6935 21.4189C22.8394 21.0519 22.8983 20.6641 22.867 20.2777C22.8447 20.2318 23.864 21.4158 25.3297 20.6341L30.2974 18.0349C30.0477 17.0413 29.4807 16.1125 28.5244 15.6769L24.4368 18.0642C22.6935 15.8106 22.6933 14.8881 19.8627 15.2411C17.8229 15.4959 15.7043 16.2864 13.7186 17.4371C12.2383 18.2948 12.2042 18.7655 12.1572 20.0219C12.1141 20.898 12.1324 21.7756 12.2122 22.6499" stroke="#120071" stroke-linecap="round" stroke-linejoin="round"/>
<path d="M27.035 24.4395C27.035 24.4395 26.5611 24.6987 25.8206 25.0191" stroke="#120071" stroke-linecap="round" stroke-linejoin="round"/>
<path d="M22.4739 26.0956C21.3179 27.867 20.0186 29.5679 18.5852 31.186C18.1087 31.7137 17.4646 32.1144 16.7291 32.3408C15.9936 32.5673 15.1973 32.61 14.4342 32.464C12.0394 32.0056 9.99118 31.492 7.4904 30.8044C7.42359 30.0978 7.35678 29.4265 7.68639 28.6732C7.8844 28.2504 8.15023 27.8531 8.47633 27.4924C10.7509 27.9886 13.0564 28.3757 15.382 28.6516C16.351 27.4538 17.1653 26.1706 17.8109 24.8242" stroke="#120071" stroke-linecap="round" stroke-linejoin="round"/>
<path d="M20.0951 14.3252C20.0484 14.659 19.9691 14.9505 20.2733 15.2013" stroke="#120071" stroke-linecap="round" stroke-linejoin="round"/>
<path d="M1.59986 30.3685C1.47291 30.3613 1.33751 30.3584 1.21057 30.3505C1.1763 30.3483 1.14305 30.3396 1.11332 30.325C1.08359 30.3103 1.05815 30.2901 1.03892 30.2659C1.01969 30.2417 1.00717 30.214 1.00229 30.1851C0.997424 30.1562 1.00033 30.1267 1.0108 30.0988C1.02483 30.0617 1.05155 30.0289 1.08785 30.0049C1.94333 29.4357 2.85346 28.9287 3.80866 28.4891C4.65161 28.098 5.40814 27.7943 6.01747 27.4883C6.22481 27.5243 6.42792 27.5567 6.63103 27.6035" stroke="#120071" stroke-linecap="round" stroke-linejoin="round"/>
<path d="M8.07394 27.9963C7.52831 28.7756 7.41384 29.3779 7.435 30.2211C6.64372 30.1203 5.76781 30.2353 4.97653 30.2895C3.85454 30.3816 2.7263 30.4079 1.59985 30.3683C1.6136 30.3303 1.64007 30.2965 1.67602 30.2711C3.51424 28.9226 5.32841 28.2407 6.63102 27.6035C7.1206 27.7104 7.6024 27.8415 8.07394 27.9963Z" stroke="#120071" stroke-linecap="round" stroke-linejoin="round"/>
<path d="M27.8726 35.5129C27.8643 35.6091 27.8599 35.7086 27.8474 35.8047C27.8438 35.8436 27.8265 35.8806 27.7977 35.911C27.769 35.9414 27.7302 35.9638 27.6864 35.9752C27.6424 35.9864 27.5954 35.9862 27.5516 35.9744C27.508 35.9625 27.4695 35.9398 27.4412 35.9091C25.9361 34.2768 25.2027 32.7519 24.4834 31.7151C24.5299 31.5135 24.5892 31.3191 24.6484 31.1211" stroke="#120071" stroke-linecap="round" stroke-linejoin="round"/>
<path d="M27.663 31.4801C27.6334 31.1405 27.647 30.7992 27.7035 30.4621C26.794 30.4874 25.8925 30.31 25.0885 29.9473C24.9177 30.3543 24.7767 30.6974 24.6484 31.1209C25.4355 32.2477 26.2477 33.8423 27.8726 35.5127C27.9819 33.8502 27.7109 32.206 27.663 31.4801Z" stroke="#120071" stroke-linecap="round" stroke-linejoin="round"/>
<path d="M28.0293 15.4355L32.6881 14.7119" stroke="#120071" stroke-linecap="round" stroke-linejoin="round"/>
<path d="M2.03149 24.1158L2.97933 25.0626L3.81293 23.5254" stroke="#120071" stroke-linecap="round" stroke-linejoin="round"/>
<path d="M36.0226 34.7861L35.8999 33.5801L33.3779 33.7673L33.5006 34.9733C33.5131 35.1155 33.5586 35.2542 33.6346 35.3813C33.7105 35.5085 33.8153 35.6215 33.943 35.7139C34.0707 35.8063 34.2186 35.8762 34.3783 35.9196C34.538 35.963 34.7062 35.979 34.8732 35.9667C35.0402 35.9542 35.2026 35.9137 35.351 35.8475C35.4995 35.7812 35.6309 35.6906 35.7379 35.5807C35.8448 35.4709 35.925 35.3441 35.9739 35.2077C36.0228 35.0713 36.0393 34.928 36.0226 34.7861Z" stroke="#120071" stroke-linecap="round" stroke-linejoin="round"/>
<path d="M33.3778 33.7674L33.2974 32.997C33.2729 32.7146 33.38 32.4354 33.5956 32.2196C33.8114 32.0041 34.1182 31.8695 34.4497 31.8449C34.7812 31.8203 35.1108 31.9077 35.3672 32.0881C35.6236 32.2687 35.786 32.528 35.8193 32.8098" stroke="#120071" stroke-linecap="round" stroke-linejoin="round"/>
<path d="M34.5373 34.8798C34.5447 34.9293 34.5743 34.9745 34.6199 35.0059C34.6655 35.0372 34.7235 35.0524 34.782 35.0483C34.8404 35.0441 34.8947 35.0208 34.9335 34.9834C34.9723 34.946 34.9925 34.8973 34.9901 34.8474L34.9563 34.5443C34.9512 34.4932 34.9225 34.4459 34.8765 34.4128C34.8305 34.3797 34.7709 34.3636 34.7108 34.3679C34.6508 34.3722 34.5952 34.3966 34.5563 34.4357C34.5174 34.4749 34.4984 34.5256 34.5035 34.5767L34.5373 34.8798Z" stroke="#120071" stroke-linecap="round" stroke-linejoin="round"/>
<path d="M9.72846 7.72103C9.73957 7.8085 9.73006 7.89698 9.70048 7.98128C9.6709 8.06558 9.62185 8.14401 9.55619 8.21198C9.49053 8.27995 9.40959 8.33609 9.31811 8.37711C9.22663 8.41813 9.12645 8.4432 9.02343 8.45087C8.92042 8.45853 8.81664 8.44863 8.71818 8.42174C8.61971 8.39486 8.52855 8.35152 8.45002 8.29428C8.37149 8.23704 8.30718 8.16705 8.26085 8.08839C8.21451 8.00974 8.1871 7.92401 8.1802 7.83623C8.16663 7.66358 8.23315 7.49329 8.36547 7.36189C8.4978 7.23049 8.68539 7.14845 8.888 7.13338C9.09061 7.1183 9.29209 7.17139 9.44922 7.28125C9.60634 7.39112 9.70659 7.549 9.72846 7.72103Z" stroke="#120071" stroke-linecap="round" stroke-linejoin="round"/>
<path d="M31.4061 17.0591C31.8419 17.0267 31.9183 17.527 31.562 17.5738C31.5323 17.5778 30.686 17.7034 30.2333 17.8042C29.9921 17.0159 29.5429 16.2959 28.8496 15.8527C29.1754 15.7087 29.5816 15.6511 30.7368 15.4737C30.9019 15.4485 31.3502 15.3722 31.5069 15.3477C31.9339 15.281 32.0506 15.797 31.7016 15.8697C31.6637 15.8777 31.2954 15.9455 31.2531 15.9525C31.2742 15.9489 31.4686 15.9413 31.49 15.9381C31.9452 15.8707 32.057 16.3989 31.6847 16.4709L31.325 16.5177C31.3504 16.5141 31.4308 16.5069 31.4562 16.5033C31.9047 16.4601 32.0007 16.9624 31.6343 17.0289C31.5793 17.0403 31.4653 17.0519 31.4061 17.0591Z" stroke="#120071" stroke-linecap="round" stroke-linejoin="round"/>
<path d="M20.8444 12.3181L20.3028 10.8241C20.268 10.758 20.2082 10.7036 20.1329 10.6697C20.0577 10.6358 19.9712 10.6242 19.8874 10.6368C19.8035 10.6494 19.727 10.6855 19.67 10.7394C19.613 10.7932 19.5787 10.8618 19.5727 10.934C19.5444 10.8829 19.501 10.8389 19.4468 10.8063C19.3925 10.7736 19.3293 10.7535 19.2632 10.7478C19.1971 10.7422 19.1304 10.7512 19.0696 10.7739C19.0088 10.7967 18.9559 10.8325 18.9162 10.8778C18.8631 10.9386 18.8364 11.0132 18.8407 11.0888C18.6343 10.7061 17.9499 10.9858 18.1532 11.3461C18.1265 11.3049 18.0894 11.2694 18.0444 11.242C17.9994 11.2146 17.9478 11.1962 17.8934 11.1881C17.8389 11.1799 17.783 11.1823 17.7298 11.1949C17.6766 11.2076 17.6273 11.2303 17.5857 11.2613C17.5158 11.3126 17.4704 11.3839 17.458 11.4618C17.4456 11.5396 17.4671 11.6187 17.5185 11.684C17.7681 12.0836 19.046 14.2112 18.7583 14.978" stroke="#120071" stroke-linecap="round" stroke-linejoin="round"/>
<path d="M35.4302 8.63184L35.4936 9.26543" stroke="#120071" stroke-linecap="round" stroke-linejoin="round"/>
<path d="M34.8546 9.91309L34.1099 9.97069" stroke="#120071" stroke-linecap="round" stroke-linejoin="round"/>
<path d="M37.0001 9.75195L36.2554 9.80955" stroke="#120071" stroke-linecap="round" stroke-linejoin="round"/>
<path d="M35.6797 11.0906L35.6162 10.457" stroke="#120071" stroke-linecap="round" stroke-linejoin="round"/>
<path d="M36.2553 9.80922C36.1168 9.8197 35.9777 9.79494 35.8558 9.73806C35.7338 9.68119 35.6344 9.59477 35.5703 9.48977C35.5277 9.42005 35.5017 9.34389 35.4937 9.26562C35.5018 9.34387 35.4917 9.42271 35.4639 9.49764C35.4362 9.57256 35.3914 9.6421 35.3321 9.70228C35.2727 9.76247 35.2 9.81211 35.1181 9.84837C35.0362 9.88463 34.9467 9.90681 34.8547 9.91362C34.9932 9.90332 35.1322 9.92817 35.2542 9.98502C35.3761 10.0419 35.4755 10.1282 35.5398 10.2331C35.5823 10.3028 35.6084 10.379 35.6164 10.4572C35.6041 10.3394 35.6332 10.221 35.7001 10.1173C35.7669 10.0135 35.8685 9.92899 35.9919 9.8744C36.0738 9.83821 36.1634 9.81604 36.2553 9.80922Z" stroke="#120071" stroke-linecap="round" stroke-linejoin="round"/>
<path d="M22.025 26.7612L19.6514 26.0605" stroke="#120071" stroke-linecap="round" stroke-linejoin="round"/>
<path d="M22.6893 21.419L28.3848 20.123C28.7751 20.0342 29.1863 20.0359 29.5756 20.1277C29.965 20.2196 30.3185 20.3983 30.5994 20.6454C30.8803 20.8924 31.0785 21.1989 31.1735 21.533C31.2684 21.8672 31.2567 22.2168 31.1394 22.5458L28.3255 30.4089C27.6923 30.4947 27.0457 30.479 26.4192 30.3627C25.7304 30.2471 25.0832 29.9953 24.5299 29.6277L25.8216 25.0197C24.3707 25.6522 22.3274 26.314 20.6154 26.2091C18.6576 26.0889 17.2134 25.0184 17.5534 23.0259C17.6329 22.581 17.7794 22.1466 17.9893 21.7335" stroke="#120071" stroke-linecap="round" stroke-linejoin="round"/>
<path d="M24.437 18.0635L24.6613 18.3371" stroke="#120071" stroke-linecap="round" stroke-linejoin="round"/>
<path d="M26.5398 2.88263L27.3471 1.02637L28.884 2.51904L31.5287 14.8922L29.1887 15.2558L26.5398 2.88263Z" stroke="#120071" stroke-linejoin="round"/>
<path d="M27.3489 1.02832L30.3539 15.0571" stroke="#120071" stroke-linecap="round"/>
<path d="M30.7545 18.8091L31.5373 18.6867L31.3088 17.6211C31.0803 17.6643 30.8095 17.6969 30.5293 17.7471L30.7545 18.8091Z" stroke="#120071" stroke-linejoin="round"/>
<path d="M30.8433 15.461L30.7459 15.0146L29.9631 15.137L30.0605 15.5834C30.2019 15.5618 30.76 15.4756 30.8433 15.461Z" stroke="#120071" stroke-linejoin="round"/>
</svg>
