<svg width="42" height="42" viewBox="0 0 42 42" fill="none" xmlns="http://www.w3.org/2000/svg">
<path d="M28.7304 10.3192C27.2524 10.1272 25.5383 9.93115 25.5383 9.93115C25.8726 9.97515 26.0461 10.6592 25.9345 11.4552C25.823 12.2512 25.4596 12.863 25.1253 12.819C24.9106 12.791 24.7619 12.495 24.7124 12.075C24.5059 12.119 24.2953 12.1552 24.0805 12.1912C24.0805 12.1912 25.1171 13.739 24.1714 14.087C23.3495 14.387 21.4705 12.851 21.4705 12.851C19.193 13.9531 14.7792 14.8089 12.4189 15.2574C13.0197 15.1614 13.6594 17.9646 13.071 18.1069C15.8212 17.6269 18.8194 16.9389 21.3879 15.8431C21.8339 16.4869 22.7053 17.2469 22.8044 18.0389C23.9442 18.2915 25.3194 18.2589 26.0254 17.8029C26.3514 15.7151 26.2319 14.7502 25.9717 14.163C26.891 14.0368 27.7885 13.7905 28.6395 13.431C30.8948 12.5083 30.3532 10.5343 28.7304 10.3192Z" fill="#FECFC4"/>
<path d="M24.374 24.1156L24.0106 24.0796L23.8743 24.4196L23.5563 24.3564L22.2802 26.9003C22.0644 27.3316 21.6844 27.6651 21.2201 27.8307C20.7558 27.9963 20.2432 27.9811 19.7902 27.7883L16.4244 26.2163L14.7769 27.1163C14.525 28.9843 15.9991 32.5562 18.4604 33.7042L23.9693 30.7121C24.3657 29.3083 24.915 27.3363 24.9811 27.0723C24.5735 25.0939 24.514 24.8103 24.374 24.1156Z" fill="#FECFC4"/>
<path d="M24.708 12.0391C24.8113 13.0311 25.3935 13.0791 25.7526 12.1513C25.4005 12.1659 25.0482 12.1281 24.708 12.0391Z" fill="#6153BD"/>
<path d="M25.3888 9.94658L25.3682 10.2146C25.4095 10.2906 25.6988 10.3546 25.8885 10.3586C25.8018 10.0672 25.6294 9.84721 25.3888 9.94658Z" fill="#6153BD"/>
<path d="M29.0604 10.3989C29.9192 10.7109 30.8566 11.791 29.4527 12.9508C29.0773 13.2384 28.6522 13.4593 28.1973 13.6034C28.4874 14.8891 28.8948 16.1473 29.4145 17.3633C31.3552 16.3593 33.3623 15.8795 35.1007 15.9106C32.7357 12.5779 30.3817 10.4069 29.0604 10.3989Z" fill="#6153BD"/>
<path d="M27.5157 28.5229C27.4744 28.631 27.4331 28.739 27.3877 28.851L27.7759 28.643C27.6876 28.6062 27.6008 28.5662 27.5157 28.5229Z" fill="#6153BD"/>
<path d="M39.0082 22.6309C38.1368 24.0835 36.6707 25.4989 34.7754 26.5869C35.8007 27.9112 38.9301 31.6186 40.4079 30.8148C41.5891 30.1706 40.9407 26.7867 39.0082 22.6309Z" fill="#6153BD"/>
<path d="M12.2031 15.6075C12.3724 15.5515 12.6904 15.4391 12.7111 15.4355C12.4633 15.1355 12.2692 15.2355 12.2031 15.6075Z" fill="#6153BD"/>
<path d="M20.3478 7.3794C19.9009 7.379 19.4628 7.50049 19.0838 7.72995C18.7048 7.95941 18.4002 8.28757 18.2047 8.67689C18.0483 8.52325 17.8495 8.41643 17.6322 8.36918C17.4148 8.32192 17.188 8.33623 16.9788 8.4104C16.7696 8.48457 16.5869 8.61546 16.4523 8.78746C16.3178 8.95946 16.2373 9.16531 16.2202 9.38046C16.2032 9.5956 16.2504 9.81095 16.3562 10.0008C16.462 10.1907 16.622 10.3471 16.8171 10.4513C17.0121 10.5555 17.234 10.6032 17.4563 10.5886C17.6786 10.5741 17.8918 10.4979 18.0706 10.3691C18.1848 10.7276 18.3876 11.0536 18.6614 11.3189C18.9351 11.5843 19.2715 11.7809 19.6415 11.8918C20.0115 12.0028 20.4038 12.0246 20.7844 11.9555C21.165 11.8863 21.5225 11.7283 21.8258 11.4951C21.7857 11.4108 21.7328 11.3327 21.6689 11.2635C21.6433 11.2302 21.6091 11.204 21.5698 11.1875C20.7769 11.1033 20.8388 10.4035 21.2972 10.5515C21.5161 10.6235 21.5698 10.5795 21.5363 10.4672C21.2885 9.87524 21.5652 8.47921 22.7298 9.75923C22.7394 9.4503 22.6849 9.14265 22.5696 8.85448C22.4542 8.56632 22.2803 8.3035 22.0582 8.08159C21.8361 7.85969 21.5703 7.6832 21.2765 7.56259C20.9827 7.44197 20.6669 7.37968 20.3478 7.3794Z" fill="#6153BD"/>
<path d="M3.7502 20.1631C3.41998 20.1106 3.08201 20.1265 2.7586 20.2097C2.43518 20.293 2.13368 20.4418 1.87399 20.6462C1.61429 20.8506 1.40231 21.1061 1.25203 21.3957C1.10176 21.6853 1.01661 22.0025 1.0022 22.3264C0.987785 22.6502 1.04444 22.9733 1.16843 23.2744C1.29243 23.5754 1.48093 23.8476 1.7215 24.0729C1.96207 24.2983 2.24924 24.4716 2.56406 24.5815C2.87888 24.6914 3.21418 24.7354 3.54784 24.7106C3.2383 23.2009 3.3077 21.6414 3.7502 20.1631Z" fill="#6153BD"/>
<path d="M13.2726 17.7778C13.1157 17.8298 12.9466 17.8818 12.7646 17.9298C13.0083 18.2225 13.2024 18.1425 13.2726 17.7778Z" fill="#6153BD"/>
<path d="M9.0456 24.6993C10.4974 23.8283 12.0606 23.1452 13.6955 22.6673C13.5183 22.5734 13.3497 22.465 13.1917 22.3433C11.2324 22.6519 9.36551 23.3684 7.71973 24.4433C8.15676 24.551 8.59933 24.6365 9.0456 24.6993Z" fill="#6153BD"/>
<path d="M22.9697 33.4946C22.788 33.8466 22.6436 34.0946 22.6475 34.1146C23.0098 35.9781 23.7044 37.7663 24.7 39.399C24.8318 39.0326 24.9393 38.6585 25.0221 38.2789C24.4275 37.1665 23.362 34.4986 22.9697 33.4946Z" fill="#6153BD"/>
<path d="M22.1804 15.4839L21.8954 16.4755C21.7096 16.2555 21.5279 16.0435 21.3916 15.8439C21.6563 15.7276 21.9193 15.6076 22.1804 15.4839Z" fill="#6153BD"/>
<path d="M22.4443 11.6073L23.1181 11.9633C23.0228 11.8357 22.9437 11.6973 22.8827 11.5513C22.7405 11.592 22.5926 11.6109 22.4443 11.6073Z" fill="#6153BD"/>
<path fill-rule="evenodd" clip-rule="evenodd" d="M27.573 6.77917C28.1484 6.5993 28.6559 6.25817 29.0312 5.79894C29.2808 5.49414 29.4658 5.14466 29.5758 4.77052C29.6858 4.39637 29.7186 4.00489 29.6722 3.61848C29.6257 3.23208 29.5011 2.85836 29.3053 2.51871C29.1095 2.17905 28.8465 1.88013 28.5313 1.63907C28.1171 1.32164 27.6252 1.11354 27.1033 1.03506C26.5814 0.956576 26.0475 1.01038 25.5534 1.19123C25.0594 1.37209 24.6222 1.67382 24.2844 2.06702C23.9466 2.46022 23.7197 2.93149 23.6258 3.43489C23.532 3.93829 23.5743 4.45666 23.7488 4.93947C23.9233 5.42229 24.224 5.85308 24.6215 6.18987C25.019 6.52667 25.4998 6.75797 26.0171 6.86125C26.5343 6.96452 27.0704 6.93625 27.573 6.77917ZM26.9292 3.47511L26.6401 2.86309L28.2672 3.46732L27.6725 5.05914L27.3628 4.39912C27.3628 4.39912 25.6781 5.25114 25.0008 3.59111C25.3559 4.46313 26.9292 3.47511 26.9292 3.47511Z" fill="#6153BD"/>
<path d="M35.8122 35.2144C35.8123 35.6105 35.7064 35.9998 35.5049 36.3444C35.3034 36.689 35.0131 36.9772 34.6624 37.1808C34.3117 37.3844 33.9125 37.4966 33.5037 37.5063C33.095 37.516 32.6906 37.423 32.33 37.2362C31.9694 37.0495 31.6649 36.7755 31.4462 36.4409C31.2274 36.1063 31.1019 35.7224 31.0819 35.3269C31.0619 34.9313 31.1481 34.5374 31.332 34.1837C31.5159 33.83 31.7913 33.5284 32.1313 33.3085C32.5205 33.0567 32.9781 32.9224 33.4461 32.9224C34.0734 32.9233 34.6747 33.165 35.1183 33.5947C35.5618 34.0243 35.8114 34.6068 35.8122 35.2144Z" fill="#6153BD"/>
<path d="M20.3478 7.3794C19.9009 7.379 19.4628 7.50049 19.0838 7.72995C18.7048 7.95941 18.4002 8.28757 18.2047 8.67689C18.0483 8.52325 17.8495 8.41643 17.6322 8.36918C17.4148 8.32192 17.188 8.33623 16.9788 8.4104C16.7696 8.48457 16.5869 8.61546 16.4523 8.78746C16.3178 8.95946 16.2373 9.16531 16.2202 9.38046C16.2032 9.5956 16.2504 9.81095 16.3562 10.0008C16.462 10.1907 16.622 10.3471 16.8171 10.4513C17.0121 10.5555 17.234 10.6032 17.4563 10.5886C17.6786 10.5741 17.8918 10.4979 18.0706 10.3691C18.1848 10.7276 18.3876 11.0536 18.6614 11.3189C18.9351 11.5843 19.2715 11.7809 19.6415 11.8918C20.0115 12.0028 20.4038 12.0246 20.7844 11.9555C21.165 11.8863 21.5225 11.7283 21.8258 11.4951C21.7857 11.4108 21.7328 11.3327 21.6689 11.2635C21.6433 11.2302 21.6091 11.204 21.5698 11.1875C20.7769 11.1033 20.8388 10.4035 21.2972 10.5515C21.5161 10.6235 21.5698 10.5795 21.5363 10.4672C21.2885 9.87524 21.5652 8.47921 22.7298 9.75923C22.7394 9.4503 22.6849 9.14265 22.5696 8.85448C22.4542 8.56632 22.2803 8.3035 22.0582 8.08159C21.8361 7.85969 21.5703 7.6832 21.2765 7.56259C20.9827 7.44197 20.6669 7.37968 20.3478 7.3794Z" stroke="#120071" stroke-linejoin="round"/>
<path d="M27.7755 28.643C27.6885 28.607 27.6016 28.567 27.5146 28.5229" stroke="#120071" stroke-linecap="round" stroke-linejoin="round"/>
<path d="M23.9643 30.7109L18.4596 33.7028C15.9983 32.5548 14.52 28.9829 14.7719 27.1149L16.4195 26.2148" stroke="#120071" stroke-linecap="round" stroke-linejoin="round"/>
<path d="M20.4619 16.2148C21.1741 16.9386 21.7649 17.7659 22.2129 18.6667" stroke="#120071" stroke-linecap="round" stroke-linejoin="round"/>
<path d="M12.7604 32.4264C10.175 32.2971 7.74428 31.1936 5.98747 29.3518C4.23067 27.5099 3.28707 25.0757 3.35824 22.5691C3.42942 20.0624 4.50971 17.6821 6.36837 15.9365C8.22704 14.191 10.7167 13.2186 13.3056 13.2271C14.7715 13.2306 16.2185 13.5488 17.5423 14.1589" stroke="#120071" stroke-linecap="round" stroke-linejoin="round"/>
<path d="M25.5042 33.2255L28.4529 38.3624C28.5705 38.5674 28.6052 38.8075 28.5503 39.0359C28.4953 39.2644 28.3546 39.4649 28.1555 39.5984C27.3846 40.1166 26.563 40.56 25.7024 40.9222C25.4805 41.0151 25.2308 41.0248 25.0019 40.9494C24.7729 40.874 24.5811 40.7189 24.4635 40.5142L20.0566 32.8423" stroke="#120071" stroke-linecap="round" stroke-linejoin="round"/>
<path d="M29.1084 10.4004C30.4425 10.4602 32.7678 12.6234 35.1011 15.907" stroke="#120071" stroke-linecap="round" stroke-linejoin="round"/>
<path d="M39.0078 22.6269C40.9403 26.7828 41.5841 30.1698 40.4075 30.8108C38.9121 31.6256 35.0606 27.7383 31.8016 22.1309C29.9232 18.8988 28.6499 15.7992 28.1924 13.5991" stroke="#120071" stroke-linecap="round" stroke-linejoin="round"/>
<path d="M29.4111 17.3627C33.5531 15.2189 38.008 15.4633 39.4584 17.9587C40.9088 20.4541 38.8183 24.2666 34.7755 26.5905" stroke="#120071" stroke-linecap="round" stroke-linejoin="round"/>
<path d="M39.5742 30.8664L27.7759 28.6426L27.3877 28.8506" stroke="#120071" stroke-linecap="round" stroke-linejoin="round"/>
<path d="M18.4595 33.7027L17.6666 34.1307C13.2026 36.0585 10.0518 29.6868 14.2976 27.3708L14.7725 27.1147" stroke="#120071" stroke-linecap="round" stroke-linejoin="round"/>
<path d="M27.0609 13.9512L26.2061 16.2032" stroke="#120071" stroke-linecap="round" stroke-linejoin="round"/>
<path d="M22.8818 11.5513C22.8818 11.5513 23.1496 12.3359 23.7573 12.2431C24.0834 12.1934 24.4016 12.1353 24.7154 12.0746" stroke="#120071" stroke-linecap="round" stroke-linejoin="round"/>
<path d="M21.4697 12.852C21.4697 12.852 23.3488 14.3878 24.1706 14.084C25.112 13.736 24.0797 12.188 24.0797 12.188" stroke="#120071" stroke-linecap="round" stroke-linejoin="round"/>
<path d="M20.8379 13.1154C21.668 13.7794 23.3031 14.9826 24.4638 14.6114C25.4917 14.2828 25.1494 12.9394 24.6538 12.0796" stroke="#120071" stroke-linecap="round" stroke-linejoin="round"/>
<path d="M12.2031 15.6075C12.3724 15.5515 12.6904 15.4391 12.7111 15.4355C12.4633 15.1355 12.2692 15.2355 12.2031 15.6075Z" stroke="#120071" stroke-linecap="round" stroke-linejoin="round"/>
<path d="M25.3882 9.95156C25.8301 9.76756 26.0575 10.5996 25.9334 11.4556C25.8179 12.2516 25.4586 12.863 25.1241 12.8194C24.9053 12.7912 24.7525 12.4826 24.707 12.0476" stroke="#120071" stroke-linecap="round" stroke-linejoin="round"/>
<path d="M25.5371 9.92725C25.5371 9.92725 27.2542 10.1266 28.7294 10.3153C30.3757 10.5258 30.8964 12.4972 28.6386 13.4271C27.7865 13.7839 26.8894 14.0301 25.9707 14.1591" stroke="#120071" stroke-linecap="round" stroke-linejoin="round"/>
<path d="M25.125 12.8149H27.9165" stroke="#120071" stroke-linecap="round" stroke-linejoin="round"/>
<path d="M23.952 9.93915C23.9103 9.77544 23.8297 9.62341 23.7167 9.49514C23.5004 9.2684 23.5549 10.5832 23.7703 11.3672C23.9021 11.8472 24.7243 12.183 25.7524 12.1552" stroke="#120071" stroke-linecap="round" stroke-linejoin="round"/>
<path d="M24.4387 8.74369C24.4924 8.44369 24.5624 7.4664 24.2405 8.38768C24.1571 8.63622 24.0923 8.89021 24.0464 9.1477C23.9587 9.57016 23.9268 10.0017 23.9514 10.4319" stroke="#120071" stroke-linecap="round" stroke-linejoin="round"/>
<path d="M25.376 10.2153C25.4173 10.2913 25.6981 10.3553 25.8881 10.3593" stroke="#120071" stroke-linecap="round" stroke-linejoin="round"/>
<path d="M25.0459 9.55509C25.0624 9.51909 25.1698 9.29508 25.1822 9.26308C25.443 8.72307 25.5258 8.87528 25.4339 9.51909C25.372 10.0357 25.3389 10.5551 25.3348 11.0751" stroke="#120071" stroke-linecap="round" stroke-linejoin="round"/>
<path d="M24.5996 9.69913C24.6781 9.32018 24.8185 8.82312 24.8604 8.71111C25.1495 7.9271 25.3832 8.06289 25.2082 8.85112C25.108 9.29892 25.0224 9.62713 24.9691 9.92714" stroke="#120071" stroke-linecap="round" stroke-linejoin="round"/>
<path d="M24.8978 8.62746C25.0134 7.40364 24.6202 8.02724 24.46 8.67146C24.3842 8.96661 24.3261 9.26579 24.2861 9.56748" stroke="#120071" stroke-linecap="round" stroke-linejoin="round"/>
<path d="M24.1709 9.56787C24.3504 9.59158 24.5224 9.65281 24.675 9.74733C24.8276 9.84185 24.9572 9.96739 25.0547 10.1153" stroke="#120071" stroke-linecap="round" stroke-linejoin="round"/>
<path d="M10.1101 16.7432C10.1101 16.7432 9.68065 16.6872 9.01989 16.6072C8.32609 16.523 8.22698 16.2451 9.02815 16.2432C9.11509 16.2432 9.99451 16.2249 10.2547 16.2192C10.3951 16.216 10.7948 16.1672 10.7957 16.0432C10.7976 15.6952 10.1104 14.9484 10.3662 14.7751C10.5316 14.6636 11.0278 15.1303 11.353 15.4712C11.4459 15.5672 11.5659 15.6346 11.698 15.6652C11.8302 15.6958 11.9687 15.6881 12.0963 15.6432C12.1211 15.6347 12.6786 15.4432 12.7034 15.4352" stroke="#120071" stroke-linecap="round" stroke-linejoin="round"/>
<path d="M10.291 16.7109C10.291 16.7109 8.77954 16.9709 8.68042 16.9867C7.89186 17.1131 8.03205 17.3674 8.72998 17.3467C9.39487 17.3274 10.208 17.3147 10.208 17.3147" stroke="#120071" stroke-linecap="round" stroke-linejoin="round"/>
<path d="M10.4603 17.231C9.98813 17.3887 9.50688 17.5196 9.01897 17.623C8.23802 17.7933 8.39951 18.0156 9.09744 17.979C9.52843 17.967 9.95782 17.9229 10.3818 17.847" stroke="#120071" stroke-linecap="round" stroke-linejoin="round"/>
<path d="M10.7868 17.6523C10.4093 17.8601 10.0072 18.0227 9.58922 18.1366C8.81304 18.3454 8.99019 18.5557 9.70898 18.4806C9.90308 18.4595 10.0722 18.4364 10.2128 18.4126C10.6205 18.342 11.0293 18.278 11.4391 18.2206C12.0623 18.1214 12.6765 17.9757 13.2764 17.7848" stroke="#120071" stroke-linecap="round" stroke-linejoin="round"/>
<path d="M10.25 16.4751C10.3739 17.1469 10.663 17.5549 11.1583 18.0429" stroke="#120071" stroke-linecap="round" stroke-linejoin="round"/>
<path d="M10.8242 16.291C11.0301 16.5484 11.2892 16.7613 11.5849 16.9162C11.8805 17.0712 12.2063 17.1647 12.5413 17.1908" stroke="#120071" stroke-linecap="round" stroke-linejoin="round"/>
<path d="M21.3887 15.8456C21.8351 16.489 22.7045 17.2482 22.8034 18.0391C23.9433 18.2918 25.3182 18.2591 26.0244 17.8031C26.5243 14.5993 25.9749 14.0433 25.4876 13.4272" stroke="#120071" stroke-linecap="round" stroke-linejoin="round"/>
<path d="M26.0241 17.7993C26.0241 17.7993 27.0892 20.4434 28.1964 23.4192C26.8737 23.9603 25.4361 24.1853 24.0049 24.0752" stroke="#120071" stroke-linecap="round" stroke-linejoin="round"/>
<path d="M25.376 20.6112L23.8684 24.4151C22.4606 24.1382 21.1063 23.6496 19.8545 22.967C20.5522 20.4272 21.8613 18.9952 22.8029 18.0352" stroke="#120071" stroke-linecap="round" stroke-linejoin="round"/>
<path d="M20.2019 23.1509C20.0688 23.9103 19.9861 24.6772 19.9541 25.4469" stroke="#120071" stroke-linecap="round" stroke-linejoin="round"/>
<path d="M20.0452 24.2752C20.0452 24.2752 16.6588 23.5832 15.2755 23.2552C13.8923 22.9272 13.1983 22.3472 13.1983 22.3472C11.2391 22.6558 9.37227 23.3723 7.72656 24.4472C11.2614 25.2872 12.1245 24.2912 13.8755 25.0272L19.785 27.7871C20.2381 27.9796 20.7505 27.9947 21.2148 27.8291C21.6791 27.6635 22.0591 27.3302 22.275 26.899L23.5511 24.3552" stroke="#120071" stroke-linecap="round" stroke-linejoin="round"/>
<path d="M27.7263 23.5952C27.9487 24.7 28.0333 25.8267 27.9782 26.9511C27.9654 27.1478 27.9294 27.3424 27.8708 27.5311C27.3274 29.284 25.2651 33.755 25.2651 33.755C24.7572 35.231 25.7316 36.5108 24.7 39.3989C23.7127 37.7623 23.0188 35.9756 22.6475 34.1146C22.6406 34.0805 23.1296 33.2725 23.44 32.4783C23.6552 31.9282 24.9472 27.1923 24.9767 27.0747L24.3738 24.1108" stroke="#120071" stroke-linecap="round" stroke-linejoin="round"/>
<path d="M10.1594 33.5471C10.0824 33.526 10.0018 33.5199 9.92238 33.529C9.84292 33.5381 9.76609 33.5623 9.69629 33.6002C9.62649 33.6381 9.56508 33.6889 9.51558 33.7498C9.46607 33.8107 9.42944 33.8805 9.40777 33.9551L9.34582 34.1591L9.1352 34.0991C8.97956 34.0568 8.81294 34.076 8.67194 34.1526C8.53094 34.2292 8.42707 34.3568 8.38315 34.5075C8.33935 34.6583 8.35916 34.8197 8.43824 34.9563C8.51732 35.0929 8.64918 35.1935 8.80482 35.2359L10.1883 35.6149L10.5795 34.2751C10.6232 34.1246 10.6035 33.9634 10.5248 33.827C10.446 33.6905 10.3146 33.5899 10.1594 33.5471Z" stroke="#120071" stroke-linecap="round" stroke-linejoin="round"/>
<path d="M36.5633 14.1364C36.4542 14.2176 36.3164 14.2535 36.18 14.2363C36.0436 14.219 35.9199 14.15 35.836 14.0444C35.7522 13.9388 35.7151 13.8052 35.7329 13.6731C35.7507 13.541 35.822 13.4212 35.931 13.34C35.985 13.2997 36.0466 13.2702 36.1124 13.2531C36.1782 13.236 36.2468 13.2315 36.3143 13.2401C36.3818 13.2486 36.447 13.27 36.506 13.3029C36.565 13.3358 36.6168 13.3797 36.6583 13.432C36.6998 13.4843 36.7303 13.544 36.748 13.6077C36.7657 13.6714 36.7702 13.7378 36.7614 13.8032C36.7526 13.8686 36.7305 13.9317 36.6966 13.9889C36.6626 14.0461 36.6173 14.0962 36.5633 14.1364Z" stroke="#120071" stroke-linecap="round" stroke-linejoin="round"/>
<path d="M3.5061 20.1362C3.03261 20.1096 2.56178 20.2213 2.15466 20.457C1.74754 20.6927 1.42291 21.0414 1.22284 21.4579C1.02278 21.8744 0.956517 22.3396 1.03265 22.793C1.10877 23.2464 1.32378 23.6673 1.6498 24.0009C1.97581 24.3346 2.39779 24.5657 2.86103 24.6643C3.32427 24.7629 3.8074 24.7244 4.24778 24.5538C4.68817 24.3832 5.0655 24.0885 5.33085 23.7077C5.5962 23.3269 5.73733 22.8777 5.73595 22.4183C5.73534 21.8341 5.50402 21.2722 5.08942 20.8479C4.67481 20.4236 4.10832 20.1689 3.5061 20.1362Z" stroke="#120071" stroke-linecap="round" stroke-linejoin="round"/>
<path d="M13.2736 17.7856C13.1167 17.8376 12.9476 17.8896 12.7656 17.9376C13.0093 18.2297 13.2034 18.1497 13.2736 17.7856Z" stroke="#120071" stroke-linecap="round" stroke-linejoin="round"/>
<path d="M22.4443 11.6113L23.1134 11.9633" stroke="#120071" stroke-linecap="round" stroke-linejoin="round"/>
<path d="M22.444 11.6117C22.444 11.6117 24.4098 11.6157 22.729 9.76368C21.5896 8.50366 21.3001 9.81631 21.5203 10.4281C21.5712 10.5696 21.547 10.6386 21.296 10.5557C20.8376 10.4083 20.7756 11.1077 21.5685 11.1917C21.6314 11.226 21.685 11.2738 21.7255 11.3317C22.2254 12.1235 22.1921 12.5715 21.2795 12.9395C18.8183 13.9276 16.6544 14.4554 12.4092 15.2596C12.743 15.1859 13.0806 16.1451 13.1654 16.4722C13.2608 16.8405 13.4479 18.0196 13.0699 18.1114C16.1094 17.5794 19.4461 16.7996 22.1797 15.4876L21.8904 16.4756" stroke="#120071" stroke-linecap="round" stroke-linejoin="round"/>
<path d="M23.4776 18.731C23.4776 18.731 23.1298 19.267 22.2139 19.267" stroke="#120071" stroke-linecap="round" stroke-linejoin="round"/>
<path d="M8.75879 9.84326L9.67972 11.7793" stroke="#120071" stroke-linecap="round" stroke-linejoin="round"/>
<path d="M10.2164 10.3672L8.22168 11.2592" stroke="#120071" stroke-linecap="round" stroke-linejoin="round"/>
<path d="M26.6403 2.86328L26.9294 3.47529C26.9294 3.47529 25.3561 4.46331 25.001 3.5913C25.6783 5.25133 27.363 4.39931 27.363 4.39931L27.6727 5.05932L28.2674 3.4675L26.6403 2.86328Z" stroke="#120071" stroke-linecap="round" stroke-linejoin="round"/>
<path d="M29.0308 5.79915C28.6555 6.25841 28.1481 6.59956 27.5726 6.77947C26.9972 6.95938 26.3796 6.96998 25.7979 6.80991C25.2163 6.64984 24.6967 6.3263 24.3049 5.8802C23.913 5.4341 23.6666 4.88548 23.5967 4.30372C23.5268 3.72195 23.6365 3.13317 23.9121 2.61183C24.1876 2.09049 24.6166 1.66 25.1448 1.3748C25.6729 1.0896 26.2765 0.962506 26.8792 1.00958C27.482 1.05666 28.0567 1.2758 28.5309 1.63928C28.846 1.88041 29.109 2.17934 29.3048 2.51898C29.5005 2.85863 29.6252 3.23232 29.6718 3.61869C29.7181 4.0051 29.6853 4.39657 29.5753 4.77071C29.4653 5.14484 29.2803 5.49432 29.0308 5.79915Z" stroke="#120071" stroke-linecap="round" stroke-linejoin="round"/>
<path d="M33.4742 35.7823C33.5432 35.7771 33.6123 35.7919 33.6727 35.8247C33.7331 35.8576 33.7821 35.9071 33.8134 35.9669C33.8448 36.0267 33.8571 36.0942 33.8488 36.1608C33.8406 36.2275 33.8121 36.2902 33.767 36.3411C33.722 36.3921 33.6623 36.4289 33.5956 36.447C33.5289 36.4651 33.4581 36.4636 33.3923 36.4428C33.3265 36.4219 33.2685 36.3826 33.2257 36.3298C33.183 36.277 33.1573 36.2132 33.152 36.1463C33.1463 36.0569 33.1768 35.969 33.2369 35.901C33.2971 35.8331 33.3822 35.7905 33.4742 35.7823Z" stroke="#120071" stroke-linecap="round" stroke-linejoin="round"/>
<path d="M34.3209 34.3506C34.3899 34.3454 34.459 34.3602 34.5194 34.3931C34.5798 34.426 34.6288 34.4754 34.6601 34.5353C34.6915 34.5951 34.7038 34.6626 34.6956 34.7292C34.6873 34.7958 34.6588 34.8586 34.6138 34.9095C34.5687 34.9604 34.509 34.9973 34.4423 35.0154C34.3756 35.0335 34.3049 35.032 34.239 35.0111C34.1732 34.9903 34.1152 34.951 34.0724 34.8982C34.0297 34.8454 34.004 34.7815 33.9988 34.7146C33.9929 34.6253 34.0233 34.5372 34.0835 34.4693C34.1437 34.4013 34.2288 34.3587 34.3209 34.3506Z" stroke="#120071" stroke-linecap="round" stroke-linejoin="round"/>
<path d="M32.5084 34.2666C32.5774 34.2615 32.6465 34.2762 32.7069 34.3091C32.7673 34.342 32.8163 34.3914 32.8476 34.4513C32.879 34.5111 32.8913 34.5786 32.8831 34.6452C32.8748 34.7118 32.8463 34.7746 32.8013 34.8255C32.7562 34.8765 32.6965 34.9133 32.6298 34.9314C32.5631 34.9495 32.4924 34.948 32.4265 34.9271C32.3607 34.9063 32.3027 34.867 32.26 34.8142C32.2172 34.7614 32.1915 34.6975 32.1863 34.6306C32.1804 34.5413 32.2108 34.4532 32.2709 34.3852C32.3311 34.3172 32.4163 34.2747 32.5084 34.2666Z" stroke="#120071" stroke-linecap="round" stroke-linejoin="round"/>
<path d="M32.8838 34.5786L34.003 34.7146" stroke="#120071" stroke-linecap="round" stroke-linejoin="round"/>
<path d="M33.6436 35.8107L34.1474 34.9629" stroke="#120071" stroke-linecap="round" stroke-linejoin="round"/>
<path d="M35.8113 35.2144C35.8113 35.6105 35.7054 35.9998 35.5039 36.3444C35.3024 36.689 35.0121 36.9772 34.6614 37.1808C34.3107 37.3844 33.9115 37.4966 33.5028 37.5063C33.094 37.516 32.6896 37.423 32.329 37.2362C31.9684 37.0495 31.6639 36.7755 31.4452 36.4409C31.2265 36.1063 31.101 35.7224 31.081 35.3269C31.061 34.9313 31.1471 34.5374 31.331 34.1837C31.5149 33.83 31.7903 33.5284 32.1303 33.3085C32.5196 33.0567 32.9771 32.9224 33.4451 32.9224C34.0724 32.9233 34.6738 33.165 35.1173 33.5947C35.5608 34.0243 35.8104 34.6068 35.8113 35.2144Z" stroke="#120071" stroke-linecap="round" stroke-linejoin="round"/>
<path d="M9.04462 24.6993C10.4964 23.8283 12.0596 23.1452 13.6945 22.6673C13.5173 22.5734 13.3488 22.465 13.1907 22.3433C11.2314 22.6519 9.36453 23.3684 7.71875 24.4433C8.15579 24.551 8.59835 24.6365 9.04462 24.6993Z" stroke="#120071" stroke-linecap="round" stroke-linejoin="round"/>
<path d="M22.9687 33.4946C22.787 33.8466 22.6426 34.0946 22.6466 34.1146C23.0089 35.9781 23.7034 37.7663 24.6991 39.399C24.8308 39.0326 24.9384 38.6585 25.0212 38.2789C24.4265 37.1665 23.361 34.4986 22.9687 33.4946Z" stroke="#120071" stroke-linecap="round" stroke-linejoin="round"/>
</svg>
