<svg width="185" height="191" viewBox="0 0 185 191" fill="none" xmlns="http://www.w3.org/2000/svg">
<path d="M127.941 45.0442C121.175 44.1368 113.329 43.2104 113.329 43.2104C114.859 43.4184 115.653 46.6512 115.143 50.4133C114.632 54.1753 112.969 57.0668 111.438 56.8589C110.455 56.7265 109.775 55.3276 109.548 53.3425C108.602 53.5505 107.638 53.7216 106.655 53.8918C106.655 53.8918 111.4 61.207 107.071 62.8517C103.309 64.2696 94.7073 57.0101 94.7073 57.0101C84.2817 62.2189 64.0762 66.2636 53.2715 68.383C56.0217 67.9292 58.95 81.1777 56.2565 81.8503C68.8462 79.5817 82.5713 76.33 94.3292 71.151C96.3709 74.1938 100.36 77.7857 100.814 81.5289C106.031 82.7229 112.327 82.5687 115.558 80.4135C117.051 70.5461 116.504 65.986 115.313 63.2109C119.521 62.6143 123.629 61.4505 127.525 59.7513C137.849 55.3902 135.37 46.0611 127.941 45.0442Z" fill="#FECFC4"/>
<path d="M107.997 110.247L106.334 110.077L105.71 111.684L104.254 111.385L98.4125 123.408C97.4246 125.446 95.6851 127.022 93.5595 127.805C91.4339 128.587 89.0876 128.516 87.0138 127.605L71.6062 120.175L64.0641 124.429C62.9109 133.257 69.659 150.138 80.9264 155.564L106.145 141.423C107.96 134.788 110.474 125.468 110.776 124.221C108.911 114.871 108.638 113.53 107.997 110.247Z" fill="#FECFC4"/>
<path d="M109.528 53.1724C110.001 57.8608 112.667 58.0877 114.31 53.7027C112.699 53.772 111.086 53.5931 109.528 53.1724Z" fill="#6153BD"/>
<path d="M112.647 43.2829L112.553 44.5496C112.742 44.9088 114.066 45.2112 114.935 45.2301C114.538 43.8531 113.749 42.8133 112.647 43.2829Z" fill="#6153BD"/>
<path d="M129.453 45.4224C133.384 46.897 137.676 52.0013 131.249 57.4828C129.53 58.842 127.585 59.8863 125.502 60.5673C126.83 66.6436 128.695 72.5901 131.074 78.337C139.958 73.5918 149.146 71.3242 157.104 71.4715C146.278 55.7206 135.502 45.4602 129.453 45.4224Z" fill="#6153BD"/>
<path d="M122.383 131.077C122.194 131.587 122.005 132.098 121.797 132.627L123.574 131.644C123.17 131.47 122.772 131.281 122.383 131.077Z" fill="#6153BD"/>
<path d="M174.994 103.231C171.005 110.096 164.294 116.786 155.617 121.928C160.311 128.187 174.637 145.708 181.402 141.91C186.808 138.865 183.84 122.872 174.994 103.231Z" fill="#6153BD"/>
<path d="M52.2861 70.0358C53.0612 69.7711 54.5169 69.2398 54.6115 69.2229C53.4772 67.805 52.5886 68.2776 52.2861 70.0358Z" fill="#6153BD"/>
<path d="M89.57 31.1499C87.524 31.1481 85.5187 31.7222 83.7837 32.8067C82.0488 33.8911 80.6541 35.4421 79.7593 37.2821C79.0433 36.5559 78.1335 36.0511 77.1385 35.8278C76.1434 35.6044 75.1052 35.6721 74.1475 36.0226C73.1898 36.3731 72.3532 36.9917 71.7375 37.8046C71.1217 38.6175 70.7528 39.5904 70.6748 40.6072C70.5967 41.624 70.8128 42.6418 71.2973 43.5392C71.7818 44.4365 72.5142 45.1756 73.4071 45.6682C74.3 46.1607 75.3158 46.386 76.3333 46.3172C77.3508 46.2484 78.3269 45.8883 79.1454 45.2799C79.6684 46.9738 80.5967 48.5146 81.8498 49.7687C83.103 51.0227 84.6431 51.9522 86.3366 52.4764C88.0302 53.0006 89.8261 53.1038 91.5685 52.7771C93.311 52.4503 94.9475 51.7034 96.336 50.6012C96.1521 50.2027 95.91 49.8338 95.6176 49.5067C95.5002 49.3495 95.3438 49.2257 95.1639 49.1475C91.5341 48.7495 91.8177 45.4421 93.9162 46.1416C94.9181 46.4819 95.1639 46.2739 95.0107 45.7436C93.8764 42.9456 95.143 36.3478 100.474 42.3974C100.518 40.9373 100.269 39.4833 99.7406 38.1214C99.2125 36.7595 98.4165 35.5174 97.3997 34.4686C96.383 33.4198 95.1661 32.5857 93.8212 32.0157C92.4763 31.4456 91.0307 31.1512 89.57 31.1499Z" fill="#6153BD"/>
<path d="M13.5897 91.5676C12.0781 91.3193 10.5309 91.3944 9.05043 91.7879C7.56992 92.1815 6.18971 92.8845 5.00089 93.8507C3.81207 94.8169 2.84167 96.0242 2.15375 97.393C1.46583 98.7617 1.07602 100.261 1.01005 101.791C0.944082 103.322 1.20346 104.849 1.77105 106.272C2.33865 107.695 3.20157 108.981 4.30284 110.046C5.40412 111.111 6.71872 111.93 8.15988 112.45C9.60103 112.969 11.136 113.177 12.6634 113.06C11.2464 105.925 11.5641 98.554 13.5897 91.5676Z" fill="#6153BD"/>
<path d="M57.1827 80.2969C56.4643 80.5426 55.6902 80.7884 54.8574 81.0153C55.9728 82.3983 56.8613 82.0202 57.1827 80.2969Z" fill="#6153BD"/>
<path d="M37.8302 113.005C44.4761 108.888 51.6322 105.66 59.1163 103.401C58.3052 102.957 57.5336 102.445 56.8099 101.87C47.8408 103.328 39.2947 106.714 31.7607 111.795C33.7614 112.304 35.7873 112.708 37.8302 113.005Z" fill="#6153BD"/>
<path d="M101.57 154.575C100.738 156.238 100.077 157.41 100.095 157.505C101.754 166.312 104.933 174.763 109.491 182.479C110.094 180.748 110.586 178.98 110.965 177.186C108.243 171.929 103.366 159.32 101.57 154.575Z" fill="#6153BD"/>
<path d="M97.9585 69.4517L96.6541 74.1381C95.8033 73.0983 94.9715 72.0964 94.3477 71.1531C95.5595 70.6035 96.7632 70.0363 97.9585 69.4517Z" fill="#6153BD"/>
<path d="M99.1689 51.1314L102.253 52.8139C101.817 52.2107 101.455 51.5569 101.176 50.8667C100.525 51.0594 99.8476 51.1487 99.1689 51.1314Z" fill="#6153BD"/>
<path fill-rule="evenodd" clip-rule="evenodd" d="M122.645 28.3142C125.28 27.4641 127.603 25.8519 129.321 23.6815C130.463 22.241 131.31 20.5893 131.814 18.821C132.317 17.0528 132.467 15.2026 132.255 13.3763C132.042 11.5502 131.472 9.78388 130.576 8.17862C129.679 6.57335 128.475 5.16062 127.032 4.02132C125.137 2.5211 122.884 1.5376 120.495 1.16667C118.106 0.795748 115.662 1.05004 113.4 1.90478C111.139 2.75952 109.137 4.18554 107.591 6.04388C106.045 7.90222 105.006 10.1295 104.576 12.5086C104.147 14.8878 104.341 17.3377 105.139 19.6195C105.938 21.9014 107.315 23.9374 109.134 25.5291C110.954 27.1209 113.155 28.2141 115.523 28.7022C117.891 29.1903 120.345 29.0566 122.645 28.3142ZM119.698 12.6987L118.375 9.80625L125.823 12.6619L123.101 20.1851L121.683 17.0658C121.683 17.0658 113.971 21.0925 110.871 13.247C112.496 17.3682 119.698 12.6987 119.698 12.6987Z" fill="#6153BD"/>
<path d="M160.361 162.704C160.362 164.576 159.877 166.416 158.954 168.045C158.032 169.673 156.703 171.035 155.098 171.998C153.492 172.96 151.665 173.49 149.794 173.536C147.922 173.582 146.071 173.142 144.421 172.26C142.77 171.377 141.376 170.082 140.375 168.501C139.373 166.919 138.799 165.105 138.707 163.236C138.616 161.366 139.01 159.505 139.852 157.833C140.694 156.161 141.955 154.736 143.511 153.696C145.293 152.507 147.387 151.872 149.53 151.872C152.401 151.876 155.154 153.018 157.185 155.049C159.215 157.08 160.358 159.833 160.361 162.704Z" fill="#6153BD"/>
<path d="M89.57 31.1499C87.524 31.1481 85.5187 31.7222 83.7837 32.8067C82.0488 33.8911 80.6541 35.4421 79.7593 37.2821C79.0433 36.5559 78.1335 36.0511 77.1385 35.8278C76.1434 35.6044 75.1052 35.6721 74.1475 36.0226C73.1898 36.3731 72.3532 36.9917 71.7375 37.8046C71.1217 38.6175 70.7528 39.5904 70.6748 40.6072C70.5967 41.624 70.8128 42.6418 71.2973 43.5392C71.7818 44.4365 72.5142 45.1756 73.4071 45.6682C74.3 46.1607 75.3158 46.386 76.3333 46.3172C77.3508 46.2484 78.3269 45.8883 79.1454 45.2799C79.6684 46.9738 80.5967 48.5146 81.8498 49.7687C83.103 51.0227 84.6431 51.9522 86.3366 52.4764C88.0302 53.0006 89.8261 53.1038 91.5685 52.7771C93.311 52.4503 94.9475 51.7034 96.336 50.6012C96.1521 50.2027 95.91 49.8338 95.6176 49.5067C95.5002 49.3495 95.3438 49.2257 95.1639 49.1475C91.5341 48.7495 91.8177 45.4421 93.9162 46.1416C94.9181 46.4819 95.1639 46.2739 95.0107 45.7436C93.8764 42.9456 95.143 36.3478 100.474 42.3974C100.518 40.9373 100.269 39.4833 99.7406 38.1214C99.2125 36.7595 98.4165 35.5174 97.3997 34.4686C96.383 33.4198 95.1661 32.5857 93.8212 32.0157C92.4763 31.4456 91.0307 31.1512 89.57 31.1499Z" stroke="#120071" stroke-linejoin="round"/>
<path d="M123.574 131.644C123.176 131.474 122.778 131.285 122.38 131.077" stroke="#120071" stroke-linecap="round" stroke-linejoin="round"/>
<path d="M106.126 141.418L80.9264 155.558C69.659 150.132 62.892 133.251 64.0453 124.422L71.5874 120.168" stroke="#120071" stroke-linecap="round" stroke-linejoin="round"/>
<path d="M90.0938 72.9092C93.3538 76.33 96.0584 80.2399 98.1095 84.4969" stroke="#120071" stroke-linecap="round" stroke-linejoin="round"/>
<path d="M54.8384 149.527C43.0029 148.916 31.8756 143.701 23.8334 134.996C15.7912 126.291 11.4716 114.787 11.7975 102.94C12.1233 91.0931 17.0686 79.8433 25.5771 71.5936C34.0856 63.3439 45.4827 58.7482 57.3339 58.7883C64.0447 58.8049 70.6685 60.3089 76.7284 63.1922" stroke="#120071" stroke-linecap="round" stroke-linejoin="round"/>
<path d="M113.176 153.304L126.674 177.582C127.213 178.551 127.372 179.686 127.12 180.765C126.868 181.845 126.224 182.793 125.313 183.424C121.784 185.872 118.023 187.968 114.083 189.68C113.067 190.119 111.924 190.165 110.876 189.808C109.828 189.452 108.95 188.719 108.412 187.752L88.2383 151.493" stroke="#120071" stroke-linecap="round" stroke-linejoin="round"/>
<path d="M129.676 45.4282C135.783 45.7108 146.428 55.9344 157.109 71.4534" stroke="#120071" stroke-linecap="round" stroke-linejoin="round"/>
<path d="M174.994 103.212C183.84 122.853 186.787 138.861 181.401 141.891C174.556 145.741 156.924 127.37 142.005 100.868C133.407 85.5925 127.578 70.9432 125.483 60.5454" stroke="#120071" stroke-linecap="round" stroke-linejoin="round"/>
<path d="M131.062 78.3338C150.022 68.2017 170.416 69.3569 177.055 81.1506C183.695 92.9444 174.125 110.963 155.618 121.946" stroke="#120071" stroke-linecap="round" stroke-linejoin="round"/>
<path d="M177.584 142.154L123.574 131.644L121.797 132.627" stroke="#120071" stroke-linecap="round" stroke-linejoin="round"/>
<path d="M80.9258 155.558L77.2961 157.581C56.8608 166.692 42.4372 136.578 61.8736 125.632L64.0476 124.422" stroke="#120071" stroke-linecap="round" stroke-linejoin="round"/>
<path d="M120.303 62.209L116.39 72.8525" stroke="#120071" stroke-linecap="round" stroke-linejoin="round"/>
<path d="M101.173 50.8667C101.173 50.8667 102.399 54.5751 105.181 54.1363C106.673 53.9014 108.13 53.6268 109.567 53.3403" stroke="#120071" stroke-linecap="round" stroke-linejoin="round"/>
<path d="M94.707 57.0142C94.707 57.0142 103.309 64.2727 107.071 62.8369C111.38 61.1922 106.655 53.876 106.655 53.876" stroke="#120071" stroke-linecap="round" stroke-linejoin="round"/>
<path d="M91.8145 58.2577C95.6144 61.3959 103.1 67.0824 108.413 65.3282C113.118 63.775 111.551 57.4259 109.283 53.3623" stroke="#120071" stroke-linecap="round" stroke-linejoin="round"/>
<path d="M52.2861 70.0358C53.0612 69.7711 54.5169 69.2398 54.6115 69.2229C53.4772 67.805 52.5886 68.2776 52.2861 70.0358Z" stroke="#120071" stroke-linecap="round" stroke-linejoin="round"/>
<path d="M112.647 43.305C114.669 42.4353 115.71 46.3676 115.142 50.4132C114.614 54.1753 112.969 57.0648 111.438 56.8588C110.436 56.7255 109.736 55.2668 109.528 53.2112" stroke="#120071" stroke-linecap="round" stroke-linejoin="round"/>
<path d="M113.327 43.1914C113.327 43.1914 121.188 44.1337 127.941 45.0252C135.477 46.0202 137.861 55.3374 127.525 59.7323C123.624 61.4186 119.518 62.5819 115.312 63.1919" stroke="#120071" stroke-linecap="round" stroke-linejoin="round"/>
<path d="M111.438 56.8398H124.216" stroke="#120071" stroke-linecap="round" stroke-linejoin="round"/>
<path d="M106.069 43.2482C105.877 42.4745 105.508 41.756 104.991 41.1498C104.001 40.0782 104.251 46.2919 105.237 49.9973C105.84 52.2659 109.604 53.8529 114.31 53.7216" stroke="#120071" stroke-linecap="round" stroke-linejoin="round"/>
<path d="M108.3 37.5958C108.545 36.1779 108.866 31.5591 107.392 35.9132C107.011 37.0878 106.714 38.2882 106.504 39.5052C106.103 41.5018 105.957 43.5413 106.069 45.5747" stroke="#120071" stroke-linecap="round" stroke-linejoin="round"/>
<path d="M112.59 44.5527C112.779 44.9119 114.064 45.2144 114.934 45.2333" stroke="#120071" stroke-linecap="round" stroke-linejoin="round"/>
<path d="M111.078 41.4335C111.154 41.2634 111.645 40.2047 111.702 40.0534C112.896 37.5013 113.275 38.2206 112.854 41.2634C112.571 43.7048 112.419 46.1597 112.4 48.6174" stroke="#120071" stroke-linecap="round" stroke-linejoin="round"/>
<path d="M109.037 42.1138C109.396 40.3228 110.039 37.9736 110.231 37.4443C111.554 33.7389 112.624 34.3807 111.823 38.1059C111.364 40.2223 110.972 41.7735 110.729 43.1914" stroke="#120071" stroke-linecap="round" stroke-linejoin="round"/>
<path d="M110.398 37.0472C110.927 31.2633 109.127 34.2105 108.394 37.2552C108.046 38.6501 107.781 40.0641 107.598 41.4899" stroke="#120071" stroke-linecap="round" stroke-linejoin="round"/>
<path d="M107.07 41.4922C107.892 41.6042 108.679 41.8936 109.378 42.3403C110.077 42.7871 110.67 43.3804 111.116 44.0792" stroke="#120071" stroke-linecap="round" stroke-linejoin="round"/>
<path d="M42.7048 75.4048C42.7048 75.4048 40.7387 75.1401 37.7139 74.762C34.5378 74.364 34.0841 73.0506 37.7517 73.0417C38.1497 73.0417 42.1755 72.9551 43.3665 72.9282C44.0092 72.9133 45.839 72.6825 45.843 72.0964C45.852 70.4517 42.7058 66.9224 43.8769 66.1035C44.6341 65.5762 46.9057 67.7821 48.3942 69.393C48.8196 69.8467 49.3688 70.1656 49.9737 70.3101C50.5786 70.4546 51.2126 70.4184 51.7971 70.2059C51.9105 70.1661 54.4627 69.2607 54.5761 69.2228" stroke="#120071" stroke-linecap="round" stroke-linejoin="round"/>
<path d="M43.5336 75.2534C43.5336 75.2534 36.6143 76.4822 36.1606 76.5569C32.5508 77.1539 33.1925 78.3558 36.3875 78.2583C39.4312 78.1668 43.1535 78.1071 43.1535 78.1071" stroke="#120071" stroke-linecap="round" stroke-linejoin="round"/>
<path d="M44.3095 77.71C42.1482 78.4555 39.9452 79.0742 37.7117 79.5627C34.1366 80.3676 34.8759 81.4183 38.0709 81.2452C40.0438 81.1888 42.0095 80.9802 43.9503 80.6213" stroke="#120071" stroke-linecap="round" stroke-linejoin="round"/>
<path d="M45.8027 79.7002C44.0745 80.682 42.2336 81.4505 40.3202 81.9887C36.7671 82.9757 37.578 83.9697 40.8685 83.6145C41.757 83.515 42.5311 83.4056 43.1749 83.2931C45.041 82.9595 46.9125 82.657 48.7887 82.3857C51.6412 81.917 54.4531 81.2284 57.1994 80.326" stroke="#120071" stroke-linecap="round" stroke-linejoin="round"/>
<path d="M43.3447 74.1382C43.9119 77.3132 45.2352 79.2415 47.5028 81.548" stroke="#120071" stroke-linecap="round" stroke-linejoin="round"/>
<path d="M45.9727 73.2686C46.9153 74.4848 48.1012 75.4912 49.4547 76.2234C50.8081 76.9557 52.2993 77.3976 53.8332 77.5212" stroke="#120071" stroke-linecap="round" stroke-linejoin="round"/>
<path d="M94.3369 71.162C96.3806 74.2027 100.361 77.7907 100.813 81.5289C106.031 82.7229 112.326 82.5687 115.558 80.4135C117.847 65.2716 115.331 62.6438 113.101 59.7324" stroke="#120071" stroke-linecap="round" stroke-linejoin="round"/>
<path d="M115.558 80.3965C115.558 80.3965 120.433 92.8927 125.502 106.957C119.447 109.514 112.866 110.578 106.314 110.057" stroke="#120071" stroke-linecap="round" stroke-linejoin="round"/>
<path d="M112.59 93.6846L105.689 111.662C99.2447 110.354 93.0447 108.045 87.3145 104.819C90.5084 92.815 96.5013 86.047 100.812 81.5098" stroke="#120071" stroke-linecap="round" stroke-linejoin="round"/>
<path d="M88.9038 105.688C88.2947 109.278 87.9158 112.902 87.7695 116.54" stroke="#120071" stroke-linecap="round" stroke-linejoin="round"/>
<path d="M88.1856 111.001C88.1856 111.001 72.6835 107.73 66.3513 106.18C60.0191 104.63 56.8421 101.889 56.8421 101.889C47.8733 103.347 39.3276 106.733 31.7939 111.814C47.9756 115.784 51.9268 111.077 59.9425 114.555L86.9946 127.598C89.0685 128.509 91.4144 128.58 93.5397 127.797C95.6651 127.015 97.4047 125.439 98.3933 123.402L104.235 111.379" stroke="#120071" stroke-linecap="round" stroke-linejoin="round"/>
<path d="M123.347 107.787C124.365 113.009 124.753 118.334 124.5 123.647C124.442 124.577 124.277 125.497 124.009 126.389C121.521 134.673 112.081 155.804 112.081 155.804C109.755 162.78 114.216 168.828 109.494 182.478C104.974 174.743 101.797 166.299 100.098 157.503C100.066 157.342 102.305 153.523 103.726 149.77C104.711 147.17 110.625 124.788 110.76 124.231L108 110.224" stroke="#120071" stroke-linecap="round" stroke-linejoin="round"/>
<path d="M42.9289 154.822C42.5764 154.723 42.2077 154.694 41.8439 154.737C41.4802 154.78 41.1285 154.895 40.809 155.074C40.4894 155.253 40.2083 155.493 39.9817 155.781C39.7551 156.069 39.5874 156.398 39.4882 156.751L39.2046 157.715L38.2404 157.431C37.528 157.231 36.7652 157.322 36.1197 157.684C35.4742 158.046 34.9988 158.649 34.7977 159.362C34.5972 160.074 34.6879 160.837 35.0499 161.483C35.4119 162.128 36.0156 162.604 36.728 162.804L43.0612 164.595L44.8522 158.263C45.0521 157.552 44.962 156.79 44.6015 156.145C44.2409 155.501 43.6395 155.025 42.9289 154.822Z" stroke="#120071" stroke-linecap="round" stroke-linejoin="round"/>
<path d="M163.802 63.0833C163.303 63.4672 162.672 63.637 162.047 63.5554C161.423 63.4739 160.856 63.1477 160.473 62.6485C160.089 62.1494 159.919 61.5182 160 60.8938C160.082 60.2695 160.408 59.7031 160.907 59.3192C161.155 59.1292 161.437 58.9897 161.738 58.9087C162.039 58.8277 162.353 58.8068 162.662 58.8471C162.971 58.8875 163.269 58.9884 163.54 59.144C163.81 59.2996 164.047 59.5069 164.237 59.7541C164.427 60.0012 164.566 60.2834 164.647 60.5844C164.728 60.8855 164.749 61.1996 164.709 61.5088C164.668 61.8179 164.568 62.1161 164.412 62.3862C164.256 62.6564 164.049 62.8933 163.802 63.0833Z" stroke="#120071" stroke-linecap="round" stroke-linejoin="round"/>
<path d="M12.4741 91.4411C10.3066 91.3153 8.15125 91.8435 6.28756 92.9574C4.42386 94.0712 2.93776 95.7192 2.02192 97.6878C1.10608 99.6563 0.802746 101.855 1.15124 103.998C1.49974 106.141 2.484 108.13 3.97641 109.706C5.46882 111.283 7.40054 112.376 9.52113 112.842C11.6417 113.307 13.8534 113.126 15.8694 112.319C17.8853 111.513 19.6126 110.12 20.8273 108.321C22.0421 106.521 22.6881 104.398 22.6818 102.227C22.679 99.4657 21.6201 96.8101 19.7221 94.8047C17.8242 92.7992 15.2309 91.5958 12.4741 91.4411Z" stroke="#120071" stroke-linecap="round" stroke-linejoin="round"/>
<path d="M57.1866 80.3311C56.4683 80.5768 55.6941 80.8226 54.8613 81.0494C55.9767 82.4295 56.8653 82.0514 57.1866 80.3311Z" stroke="#120071" stroke-linecap="round" stroke-linejoin="round"/>
<path d="M99.168 51.1504L102.231 52.814" stroke="#120071" stroke-linecap="round" stroke-linejoin="round"/>
<path d="M99.1686 51.1506C99.1686 51.1506 108.167 51.1695 100.473 42.4165C95.2573 36.4615 93.9319 42.6653 94.9399 45.5568C95.1727 46.2254 95.0622 46.5518 93.913 46.1597C91.8146 45.4632 91.531 48.7686 95.1607 49.1656C95.4483 49.3278 95.6941 49.5537 95.8791 49.8273C98.1676 53.5695 98.0154 55.6868 93.8374 57.4261C82.571 62.0956 72.6648 64.5901 53.2314 68.391C54.7598 68.0428 56.305 72.576 56.6931 74.1222C57.1299 75.8625 57.9865 81.4355 56.2562 81.8693C70.1703 79.3549 85.4446 75.6694 97.9587 69.4686L96.6343 74.1381" stroke="#120071" stroke-linecap="round" stroke-linejoin="round"/>
<path d="M103.897 84.7993C103.897 84.7993 102.305 87.3326 98.1123 87.3326" stroke="#120071" stroke-linecap="round" stroke-linejoin="round"/>
<path d="M36.5205 42.7944L40.7363 51.9445" stroke="#120071" stroke-linecap="round" stroke-linejoin="round"/>
<path d="M43.1936 45.271L34.0625 49.4868" stroke="#120071" stroke-linecap="round" stroke-linejoin="round"/>
<path d="M118.375 9.80615L119.699 12.6986C119.699 12.6986 112.497 17.3682 110.871 13.2469C113.972 21.0924 121.684 17.0657 121.684 17.0657L123.102 20.185L125.824 12.6618L118.375 9.80615Z" stroke="#120071" stroke-linecap="round" stroke-linejoin="round"/>
<path d="M129.321 23.6815C127.603 25.852 125.28 27.4644 122.645 28.3147C120.011 29.165 117.184 29.215 114.521 28.4585C111.859 27.702 109.48 26.1729 107.686 24.0646C105.893 21.9563 104.765 19.3634 104.444 16.6139C104.124 13.8644 104.627 11.0817 105.888 8.61775C107.15 6.1538 109.113 4.11925 111.531 2.77136C113.949 1.42347 116.712 0.822799 119.471 1.04529C122.23 1.26779 124.862 2.30346 127.032 4.02134C128.475 5.16094 129.678 6.57374 130.575 8.17895C131.471 9.78416 132.042 11.5503 132.255 13.3763C132.467 15.2026 132.317 17.0527 131.813 18.8209C131.31 20.5892 130.463 22.2408 129.321 23.6815Z" stroke="#120071" stroke-linecap="round" stroke-linejoin="round"/>
<path d="M149.661 165.388C149.977 165.363 150.294 165.433 150.57 165.588C150.847 165.744 151.071 165.977 151.214 166.26C151.358 166.543 151.414 166.862 151.376 167.177C151.339 167.492 151.208 167.788 151.002 168.029C150.796 168.27 150.523 168.444 150.217 168.529C149.912 168.615 149.588 168.608 149.287 168.509C148.985 168.411 148.72 168.225 148.524 167.975C148.328 167.726 148.211 167.424 148.187 167.108C148.161 166.686 148.3 166.27 148.575 165.949C148.851 165.628 149.24 165.426 149.661 165.388Z" stroke="#120071" stroke-linecap="round" stroke-linejoin="round"/>
<path d="M153.537 158.621C153.854 158.596 154.17 158.666 154.446 158.821C154.723 158.977 154.947 159.21 155.09 159.493C155.234 159.776 155.29 160.095 155.253 160.41C155.215 160.725 155.084 161.021 154.878 161.262C154.672 161.503 154.399 161.677 154.093 161.762C153.788 161.848 153.464 161.841 153.163 161.742C152.861 161.644 152.596 161.458 152.4 161.208C152.204 160.959 152.087 160.657 152.063 160.341C152.036 159.919 152.175 159.503 152.451 159.181C152.726 158.86 153.116 158.659 153.537 158.621Z" stroke="#120071" stroke-linecap="round" stroke-linejoin="round"/>
<path d="M145.238 158.224C145.554 158.199 145.87 158.269 146.147 158.424C146.423 158.58 146.647 158.813 146.791 159.096C146.934 159.379 146.991 159.698 146.953 160.013C146.915 160.328 146.785 160.624 146.578 160.865C146.372 161.106 146.099 161.28 145.794 161.365C145.488 161.451 145.164 161.444 144.863 161.345C144.562 161.247 144.296 161.061 144.1 160.811C143.905 160.562 143.787 160.26 143.763 159.944C143.736 159.522 143.875 159.105 144.151 158.784C144.426 158.463 144.816 158.262 145.238 158.224Z" stroke="#120071" stroke-linecap="round" stroke-linejoin="round"/>
<path d="M146.958 159.698L152.081 160.341" stroke="#120071" stroke-linecap="round" stroke-linejoin="round"/>
<path d="M150.437 165.52L152.743 161.513" stroke="#120071" stroke-linecap="round" stroke-linejoin="round"/>
<path d="M160.36 162.704C160.361 164.576 159.876 166.416 158.954 168.045C158.031 169.673 156.702 171.035 155.097 171.998C153.491 172.96 151.664 173.49 149.793 173.536C147.922 173.582 146.07 173.142 144.42 172.26C142.769 171.377 141.375 170.082 140.374 168.501C139.372 166.919 138.798 165.105 138.706 163.236C138.615 161.366 139.009 159.505 139.851 157.833C140.693 156.161 141.954 154.736 143.51 153.696C145.292 152.507 147.386 151.872 149.529 151.872C152.401 151.876 155.153 153.018 157.184 155.049C159.214 157.08 160.357 159.833 160.36 162.704Z" stroke="#120071" stroke-linecap="round" stroke-linejoin="round"/>
<path d="M37.8293 113.005C44.4751 108.888 51.6313 105.66 59.1153 103.401C58.3042 102.957 57.5326 102.445 56.8089 101.87C47.8398 103.328 39.2938 106.714 31.7598 111.795C33.7604 112.304 35.7864 112.708 37.8293 113.005Z" stroke="#120071" stroke-linecap="round" stroke-linejoin="round"/>
<path d="M101.57 154.575C100.738 156.238 100.077 157.41 100.095 157.505C101.754 166.312 104.933 174.763 109.491 182.479C110.094 180.748 110.586 178.98 110.965 177.186C108.243 171.929 103.366 159.32 101.57 154.575Z" stroke="#120071" stroke-linecap="round" stroke-linejoin="round"/>
</svg>
