<svg width="51" height="38" viewBox="0 0 51 38" fill="none" xmlns="http://www.w3.org/2000/svg">
<path d="M35.245 19.0638C34.7695 18.0352 34.0514 16.5069 33.7069 15.8763C33.1617 14.883 32.725 14.8567 32.2707 14.4305C31.8948 14.3941 31.5312 14.2784 31.2036 14.0908C31.1579 14.1168 31.1093 14.1372 31.059 14.1516C31.1752 14.3304 30.9102 14.5579 30.6635 14.6217C30.7911 14.7144 30.6612 14.9946 30.4081 15.037C30.2822 15.037 30.1364 15.0533 29.5347 15.0564C29.37 15.4586 29.1563 15.4614 28.9941 15.1958C28.6425 14.6204 28.6862 12.7619 29.1902 12.6304L25.7893 12.9113C25.4519 12.9401 25.1338 13.0801 24.8848 13.3093C24.6357 13.5385 24.4698 13.844 24.4131 14.1777C24.3565 14.5115 24.4123 14.8546 24.5718 15.1531C24.7313 15.4517 24.9855 15.6889 25.2944 15.8273L27.5503 16.8363L27.2737 18.1897L31.4998 20.1887L32.7174 17.5541V19.1262L33.256 20.0914L31.889 23.8538C32.5657 24.3433 33.3732 24.6204 34.208 24.6495L35.3627 21.1224C35.5857 20.4462 35.5435 19.7104 35.245 19.0638ZM27.7745 15.7842L25.6205 15.668L27.8327 15.4933L27.7745 15.7842Z" fill="#FECFC4"/>
<path d="M16.0816 19.6504L13.4421 18.0784C13.3732 18.0383 13.2916 18.0262 13.2141 18.0444L8.95428 18.6062L13.4618 20.1939C13.5229 20.2151 13.5741 20.258 13.6054 20.3144C13.6368 20.3711 13.6461 20.4372 13.6316 20.5003C13.6224 20.534 13.6065 20.5657 13.5846 20.593C13.5627 20.6203 13.5355 20.6428 13.5046 20.6594C13.4736 20.6757 13.4397 20.6854 13.4047 20.6883C13.3698 20.6908 13.3347 20.6865 13.3017 20.675L8.82812 18.8838L11.6997 22.1344C11.7472 22.1975 11.8164 22.2406 11.8938 22.2557L14.9174 22.7846C14.9889 22.7961 15.0623 22.7828 15.125 22.7465C15.1878 22.7103 15.2361 22.6533 15.2619 22.5856L16.2128 20.024C16.2379 19.9561 16.2385 19.8818 16.2146 19.8136C16.1906 19.7454 16.1436 19.6877 16.0816 19.6504Z" fill="#FECFC4"/>
<path d="M42.8682 25.8611L43.693 24.3716L44.4887 24.8131L43.6639 26.3024L42.8682 25.8611Z" fill="#FECFC4"/>
<path d="M46.3758 22.9012L46.3418 21.1981L47.2537 21.1787L47.2877 22.8818L46.3758 22.9012Z" fill="#FECFC4"/>
<path d="M45.2117 22.9256L45.1729 21.2225L46.085 21.2031L46.119 22.9062L45.2117 22.9256Z" fill="#FECFC4"/>
<path d="M43.0712 3.17425C41.5528 2.20385 39.6023 2.53864 38.7144 3.92145C38.4041 4.40655 38.2535 4.97645 38.2831 5.55147L37.1084 6.42482L38.5566 6.69143C38.8344 7.30671 39.2854 7.82776 39.8544 8.19094C41.373 9.16134 43.3233 8.82655 44.2112 7.44374C45.0991 6.06092 44.5907 4.14465 43.0712 3.17425Z" fill="#FECFC4"/>
<path d="M38.6761 27.5201L37.1575 31.6101L35.5469 31.0087L37.0653 26.9233L38.6761 27.5201Z" fill="#6153BD"/>
<path d="M34.7406 12.4147C34.6937 12.3714 34.6436 12.3315 34.591 12.2955C35.1142 12.5541 35.1303 11.9668 34.5667 11.5728C33.6806 10.8276 32.986 10.7995 32.5263 10.941C33.0866 10.8922 33.1967 11.4124 33.0287 11.9413C32.9743 12.0638 33.0996 12.0689 33.233 12.048C33.6308 11.9946 33.5677 12.6098 33.0542 12.5332C33.0287 12.5674 32.5366 13.2176 32.5156 13.2464C32.5938 13.1581 32.6931 13.0911 32.8044 13.0518C32.9155 13.0125 33.035 13.0022 33.1512 13.0217C33.5803 13.117 33.9789 13.3176 34.3109 13.6055C34.5438 13.8287 34.8216 13.9209 34.9319 13.8098C35.0422 13.6987 34.9416 13.4216 34.7087 13.1984C34.6697 13.1614 34.6247 13.1154 34.5795 13.0708C34.9792 13.2133 35.1543 12.811 34.7406 12.4147Z" fill="#6153BD"/>
<path d="M25.0039 20.8784L25.2999 21.538L27.7305 20.752L25.0039 20.8784Z" fill="#6153BD"/>
<path d="M32.7228 17.5547V19.1267L32.3252 18.4137L32.7228 17.5547Z" fill="#6153BD"/>
<path d="M29.5401 15.0562C29.3702 15.4783 29.1131 15.4977 28.9287 15.0659C29.0937 15.0659 29.3169 15.061 29.5401 15.0562Z" fill="#6153BD"/>
<path d="M29.5448 12.9599C29.3331 12.9957 29.1191 13.0151 28.9043 13.0181C29.0693 12.5475 29.3453 12.4747 29.5448 12.9599Z" fill="#6153BD"/>
<path d="M27.8324 15.4927L27.7741 15.7835L25.6201 15.6673L27.8324 15.4927Z" fill="#6153BD"/>
<path d="M1.73518 25.3905C1.69872 25.4587 1.64287 25.5144 1.5747 25.5509C1.50652 25.5872 1.4291 25.6025 1.3522 25.5948C1.2753 25.5874 1.20239 25.557 1.14268 25.508C1.08297 25.459 1.03915 25.3934 1.01676 25.3193C0.994371 25.2455 0.994414 25.1666 1.01688 25.0925C1.03936 25.0185 1.08325 24.9531 1.143 24.9041C1.20277 24.855 1.27571 24.8249 1.35262 24.8172C1.42952 24.8098 1.50693 24.8252 1.57507 24.8617C1.66624 24.9107 1.73425 24.994 1.76426 25.093C1.79426 25.1921 1.78381 25.2991 1.73518 25.3905Z" fill="#6153BD"/>
<path d="M16.1883 12.7221C16.1518 12.7902 16.096 12.846 16.0278 12.8824C15.9597 12.9188 15.8822 12.9341 15.8053 12.9265C15.7284 12.9189 15.6555 12.8886 15.5958 12.8396C15.5361 12.7905 15.4923 12.7249 15.4699 12.6509C15.4475 12.577 15.4475 12.498 15.47 12.4241C15.4925 12.3501 15.5364 12.2845 15.5961 12.2355C15.6559 12.1866 15.7288 12.1564 15.8057 12.1488C15.8827 12.1413 15.9601 12.1567 16.0282 12.1932C16.1194 12.2423 16.1874 12.3255 16.2174 12.4246C16.2474 12.5237 16.2369 12.6307 16.1883 12.7221Z" fill="#6153BD"/>
<path d="M47.4094 14.2071C48.3119 13.7474 48.7389 14.6389 49.52 14.6156C48.9281 15.2949 47.9334 15.5472 47.293 14.9262L47.4094 14.2071Z" fill="#6153BD"/>
<path d="M41.1746 6.73039C41.1606 6.76898 41.1315 6.80039 41.0942 6.81768C41.0569 6.83497 41.0142 6.83673 40.9757 6.82258C40.9371 6.80841 40.9057 6.7795 40.8884 6.74219C40.871 6.70488 40.8695 6.66224 40.8835 6.62365C40.8975 6.58504 40.9267 6.55363 40.9639 6.53634C41.0012 6.51905 41.0439 6.51729 41.0824 6.53146C41.121 6.54561 41.1524 6.57452 41.1698 6.61183C41.1871 6.64914 41.1887 6.69178 41.1746 6.73039Z" fill="#6153BD"/>
<path d="M18.7405 17.2002C18.1291 17.3118 17.5275 17.3555 17.0717 17.4379C16.1061 17.6126 15.257 17.8115 15.1891 17.9959C14.9514 18.6461 17.3868 18.6655 18.3087 19.2728C19.0564 19.7623 19.3266 19.8292 20.0069 19.4377C19.4008 18.8121 18.9649 18.0418 18.7405 17.2002Z" fill="#6153BD"/>
<path d="M21.9862 30.1102C21.8369 30.5173 21.6223 30.8975 21.3508 31.2356C21.1545 31.4432 20.9141 31.6039 20.6473 31.7063C19.5326 32.1659 18.0237 34.345 17.5809 33.7295C17.4552 33.5546 17.7997 32.6721 18.2359 31.6917C18.5467 30.9933 19.1626 29.9404 19.6624 29.0137C20.3494 29.5415 21.1419 29.9156 21.9862 30.1102Z" fill="#6153BD"/>
<path d="M28.6618 23.5759C28.66 23.6216 28.6406 23.665 28.6077 23.6969C28.5747 23.7286 28.5306 23.7464 28.4848 23.7464C28.4389 23.7464 28.3947 23.7286 28.3618 23.6969C28.3288 23.665 28.3094 23.6216 28.3076 23.5759C28.3094 23.5301 28.3288 23.4867 28.3618 23.4548C28.3947 23.4231 28.4389 23.4053 28.4848 23.4053C28.5306 23.4053 28.5747 23.4231 28.6077 23.4548C28.6406 23.4867 28.66 23.5301 28.6618 23.5759Z" fill="#6153BD"/>
<path d="M30.3024 20.4172C30.3006 20.4629 30.2812 20.5063 30.2483 20.5382C30.2154 20.5699 30.1712 20.5878 30.1252 20.5878C30.0795 20.5878 30.0353 20.5699 30.0024 20.5382C29.9694 20.5063 29.95 20.4629 29.9482 20.4172C29.95 20.3715 29.9694 20.328 30.0024 20.2961C30.0353 20.2645 30.0795 20.2466 30.1252 20.2466C30.1712 20.2466 30.2154 20.2645 30.2483 20.2961C30.2812 20.328 30.3006 20.3715 30.3024 20.4172Z" fill="#6153BD"/>
<path d="M25.9753 19.8698C25.9735 19.9155 25.9541 19.9589 25.9211 19.9908C25.8882 20.0225 25.844 20.0404 25.7981 20.0404C25.7524 20.0404 25.7082 20.0225 25.6752 19.9908C25.6423 19.9589 25.6229 19.9155 25.6211 19.8698C25.6229 19.8241 25.6423 19.7807 25.6752 19.7488C25.7082 19.7171 25.7524 19.6992 25.7981 19.6992C25.844 19.6992 25.8882 19.7171 25.9211 19.7488C25.9541 19.7807 25.9735 19.8241 25.9753 19.8698Z" fill="#6153BD"/>
<path d="M26.2653 16.8565C26.2635 16.9023 26.2441 16.9457 26.2112 16.9775C26.1782 17.0093 26.1341 17.027 26.0881 17.027C26.0424 17.027 25.9982 17.0093 25.9653 16.9775C25.9323 16.9457 25.9129 16.9023 25.9111 16.8565C25.9129 16.8107 25.9323 16.7674 25.9653 16.7356C25.9982 16.7038 26.0424 16.686 26.0881 16.686C26.1341 16.686 26.1782 16.7038 26.2112 16.7356C26.2441 16.7674 26.2635 16.8107 26.2653 16.8565Z" fill="#6153BD"/>
<path d="M23.5827 15.2892C23.581 15.3349 23.5615 15.3783 23.5285 15.4101C23.4955 15.4419 23.4515 15.4596 23.4056 15.4596C23.3598 15.4596 23.3157 15.4419 23.2827 15.4101C23.2497 15.3783 23.2303 15.3349 23.2285 15.2892C23.2303 15.2433 23.2497 15.2 23.2827 15.1682C23.3157 15.1364 23.3598 15.1187 23.4056 15.1187C23.4515 15.1187 23.4955 15.1364 23.5285 15.1682C23.5615 15.2 23.581 15.2433 23.5827 15.2892Z" fill="#6153BD"/>
<path d="M19.7155 17.1959C19.7138 17.2417 19.6944 17.285 19.6613 17.3168C19.6283 17.3486 19.5843 17.3664 19.5384 17.3664C19.4926 17.3664 19.4485 17.3486 19.4155 17.3168C19.3825 17.285 19.3631 17.2417 19.3613 17.1959C19.3631 17.1501 19.3825 17.1068 19.4155 17.075C19.4485 17.0432 19.4926 17.0254 19.5384 17.0254C19.5843 17.0254 19.6283 17.0432 19.6613 17.075C19.6944 17.1068 19.7138 17.1501 19.7155 17.1959Z" fill="#6153BD"/>
<path d="M22.3786 17.5548C22.3769 17.6006 22.3574 17.6439 22.3244 17.6757C22.2914 17.7075 22.2474 17.7253 22.2015 17.7253C22.1557 17.7253 22.1116 17.7075 22.0786 17.6757C22.0456 17.6439 22.0262 17.6006 22.0244 17.5548C22.0262 17.509 22.0456 17.4656 22.0786 17.4338C22.1116 17.4021 22.1557 17.3843 22.2015 17.3843C22.2474 17.3843 22.2914 17.4021 22.3244 17.4338C22.3574 17.4656 22.3769 17.509 22.3786 17.5548Z" fill="#6153BD"/>
<path d="M23.82 25.2302C23.8183 25.2759 23.7988 25.3193 23.7658 25.3512C23.7328 25.3829 23.6888 25.4007 23.6429 25.4007C23.5971 25.4007 23.553 25.3829 23.52 25.3512C23.487 25.3193 23.4676 25.2759 23.4658 25.2302C23.4676 25.1844 23.487 25.141 23.52 25.1091C23.553 25.0774 23.5971 25.0596 23.6429 25.0596C23.6888 25.0596 23.7328 25.0774 23.7658 25.1091C23.7988 25.141 23.8183 25.1844 23.82 25.2302Z" fill="#6153BD"/>
<path d="M25.7565 22.072C25.7548 22.1177 25.7353 22.1611 25.7024 22.193C25.6695 22.2247 25.6253 22.2425 25.5793 22.2425C25.5336 22.2425 25.4894 22.2247 25.4565 22.193C25.4235 22.1611 25.4041 22.1177 25.4023 22.072C25.4041 22.0262 25.4235 21.9828 25.4565 21.9509C25.4894 21.9192 25.5336 21.9014 25.5793 21.9014C25.6253 21.9014 25.6695 21.9192 25.7024 21.9509C25.7353 21.9828 25.7548 22.0262 25.7565 22.072Z" fill="#6153BD"/>
<path d="M20.6911 27.5593C20.6894 27.605 20.6699 27.6484 20.6369 27.6803C20.6039 27.712 20.5599 27.7298 20.514 27.7298C20.4682 27.7298 20.4241 27.712 20.3911 27.6803C20.3581 27.6484 20.3387 27.605 20.3369 27.5593C20.3387 27.5135 20.3581 27.4701 20.3911 27.4382C20.4241 27.4065 20.4682 27.3887 20.514 27.3887C20.5599 27.3887 20.6039 27.4065 20.6369 27.4382C20.6699 27.4701 20.6894 27.5135 20.6911 27.5593Z" fill="#6153BD"/>
<path d="M47.4094 14.2071C48.3119 13.7474 48.7389 14.6389 49.52 14.6156C48.9281 15.2949 47.9334 15.5472 47.293 14.9262L47.4094 14.2071Z" stroke="#120071" stroke-linejoin="round"/>
<path d="M20.7538 26.0498L14.7812 23.8327L16.6396 18.8306L24.5672 21.7754" stroke="#120071" stroke-linecap="round" stroke-linejoin="round"/>
<path d="M33.7759 25.1963L37.2303 26.4818L35.3722 31.4791L23.6406 27.1223" stroke="#120071" stroke-linecap="round" stroke-linejoin="round"/>
<path d="M29.9814 23.7891L31.7307 24.4382" stroke="#120071" stroke-linecap="round" stroke-linejoin="round"/>
<path d="M38.6761 27.5201L37.1575 31.6101L35.5469 31.0087L37.0653 26.9233L38.6761 27.5201Z" stroke="#120071" stroke-linecap="round" stroke-linejoin="round"/>
<path d="M16.0622 19.6461L13.447 18.0838C13.3781 18.0437 13.2965 18.0315 13.2189 18.0498L8.95431 18.6078L13.4664 20.1944C13.5275 20.2156 13.5787 20.2585 13.6101 20.3152C13.6414 20.3716 13.6507 20.4378 13.6362 20.5008C13.6271 20.5345 13.6111 20.5662 13.5892 20.5935C13.5674 20.6209 13.5401 20.6436 13.5092 20.6599C13.4782 20.6763 13.4443 20.686 13.4094 20.6888C13.3745 20.6913 13.3394 20.687 13.3063 20.6755L8.83301 18.8803L11.6998 22.1301C11.7472 22.1931 11.8164 22.2363 11.8938 22.2514L14.897 22.7754C14.9686 22.7871 15.0421 22.7739 15.105 22.7378C15.1679 22.7016 15.2164 22.6449 15.2422 22.577L16.1942 20.0197C16.2192 19.9518 16.2197 19.8772 16.1956 19.809C16.1715 19.7409 16.1243 19.6831 16.0622 19.6461Z" stroke="#120071" stroke-linecap="round" stroke-linejoin="round"/>
<path d="M15.7197 21.292L21.8697 23.5757" stroke="#120071" stroke-linecap="round" stroke-linejoin="round"/>
<path d="M32.1309 27.3843L36.3181 28.9418" stroke="#120071" stroke-linecap="round" stroke-linejoin="round"/>
<path d="M31.6221 27.1948L31.8356 27.2773" stroke="#120071" stroke-linecap="round" stroke-linejoin="round"/>
<path d="M30.9277 26.938L31.2965 27.0738" stroke="#120071" stroke-linecap="round" stroke-linejoin="round"/>
<path d="M25.5811 24.9536L30.8549 26.9087" stroke="#120071" stroke-linecap="round" stroke-linejoin="round"/>
<path d="M35.3434 19.3062C36.8907 19.8759 38.2548 20.8539 39.2909 22.1366C40.3266 23.4194 40.996 24.9587 41.2273 26.591C41.4587 28.2236 41.2437 29.8883 40.605 31.4083C39.9663 32.9285 38.9277 34.2469 37.5996 35.2242C36.2717 36.2015 34.7037 36.8006 33.0625 36.9584C31.4212 37.116 29.768 36.8262 28.2781 36.1198C26.7883 35.4132 25.5179 34.3164 24.6014 32.9458C23.685 31.575 23.1569 29.9818 23.0732 28.3352" stroke="#120071" stroke-linecap="round" stroke-linejoin="round"/>
<path d="M27.2795 18.19L27.5561 16.8365L25.3002 15.8276C24.99 15.69 24.7344 15.453 24.5739 15.154C24.4135 14.855 24.3573 14.511 24.4142 14.1765C24.4711 13.8419 24.6379 13.5359 24.8882 13.3068C25.1386 13.0776 25.458 12.9385 25.7964 12.9113L29.2231 12.6304" stroke="#120071" stroke-linecap="round" stroke-linejoin="round"/>
<path d="M31.2041 14.0903C31.5317 14.2779 31.8954 14.3937 32.2713 14.43C32.4319 14.5732 32.6045 14.7025 32.7871 14.8163C33.1799 15.0844 33.4965 15.4494 33.7064 15.8759C34.0517 16.5061 34.779 18.0299 35.2445 19.0634C35.5492 19.7077 35.5926 20.4449 35.3658 21.1203L34.2111 24.6477C33.3745 24.6194 32.5655 24.3423 31.8872 23.852L33.2601 20.092L32.3249 18.414L31.5049 20.1895" stroke="#120071" stroke-linecap="round" stroke-linejoin="round"/>
<path d="M27.7741 15.7835L25.6201 15.6673L27.8324 15.4927L27.7741 15.7835Z" stroke="#120071" stroke-linecap="round" stroke-linejoin="round"/>
<path d="M31.1514 12.3974C31.3031 12.0234 31.5296 11.6845 31.8171 11.4014C32.7004 10.5058 33.3184 11.0202 33.0288 11.9326C32.9778 12.0603 33.1054 12.0644 33.2331 12.0442C33.6297 11.9816 33.5679 12.606 33.0544 12.5294C32.7523 12.8978 32.4813 13.2908 32.2441 13.7041C32.191 13.819 32.1657 13.9449 32.1708 14.0715C32.1759 14.198 32.2109 14.3216 32.2732 14.4319" stroke="#120071" stroke-linecap="round" stroke-linejoin="round"/>
<path d="M31.1803 13.1251C31.0911 13.0026 31.0541 12.8499 31.0768 12.7002" stroke="#120071" stroke-linecap="round" stroke-linejoin="round"/>
<path d="M32.4639 10.9621C33.2673 10.6708 34.0982 11.1062 34.7175 11.6841C35.1468 12.0842 35.0426 12.5089 34.5913 12.2857C35.1475 12.6831 35.0385 13.3583 34.4458 12.965C34.6376 13.061 35.1353 13.5998 34.9358 13.8092C34.8268 13.9231 34.5428 13.8286 34.3099 13.6049C34.3051 13.6001 33.1378 12.5893 32.5349 13.2242" stroke="#120071" stroke-linecap="round" stroke-linejoin="round"/>
<path d="M25.0039 20.8784L27.7305 20.752L25.2999 21.538" stroke="#120071" stroke-linecap="round" stroke-linejoin="round"/>
<path d="M32.7228 17.5547V19.1267L32.3252 18.4137L32.7228 17.5547Z" stroke="#120071" stroke-linecap="round" stroke-linejoin="round"/>
<path d="M26.4108 16.3268L27.279 18.1909L31.5051 20.19L31.5003 20.1997C31.4663 20.7285 31.0975 23.8782 28.9239 24.2799C27.3181 24.5767 25.6393 24.9349 24.5525 25.1824L22.2187 30.1603C21.0333 29.9379 20.3494 29.5175 19.4921 28.8745L21.7725 23.7705C21.9509 23.3713 22.211 23.0138 22.5361 22.7212C22.8611 22.4288 23.2439 22.2076 23.6597 22.0723L25.2997 21.5386L23.5823 17.7004L20.1229 19.5582C19.7591 19.1897 19.445 18.7751 19.1885 18.3253C18.9672 17.9346 18.8063 17.5127 18.7109 17.074H18.7158L23.4123 14.2843C23.7214 14.0991 24.0824 14.019 24.4409 14.0563" stroke="#120071" stroke-linecap="round" stroke-linejoin="round"/>
<path d="M20.007 19.4372C19.7604 19.6071 19.4669 19.6952 19.1676 19.6895C18.8594 19.6009 18.5689 19.4597 18.3088 19.2723C17.3864 18.6668 14.9507 18.6461 15.1892 17.9954C15.2569 17.8111 16.1062 17.6124 17.0718 17.4375C17.5276 17.355 18.1292 17.3113 18.7406 17.1997C18.965 18.0413 19.4009 18.8116 20.007 19.4372Z" stroke="#120071" stroke-linecap="round" stroke-linejoin="round"/>
<path d="M30.9229 13.7029C31.0344 13.6835 31.3547 13.6398 31.5293 13.5913" stroke="#120071" stroke-linecap="round" stroke-linejoin="round"/>
<path d="M30.2246 13.1592C30.3605 13.1689 30.4915 13.1737 30.6077 13.1737" stroke="#120071" stroke-linecap="round" stroke-linejoin="round"/>
<path d="M31.0664 14.1479L30.584 14.2074" stroke="#120071" stroke-linecap="round" stroke-linejoin="round"/>
<path d="M32.4418 12.8434C32.3787 12.7124 31.787 12.9841 31.583 13.0375C31.2653 13.1254 30.9376 13.1711 30.608 13.1734C31.5153 12.3582 31.3309 12.1884 30.4673 12.7027C29.9703 12.9023 29.4404 13.0076 28.9049 13.0132C28.7032 13.6824 28.7134 14.3976 28.934 15.0608C30.6749 15.0273 30.3189 15.0317 30.4152 15.0317C30.6815 14.9872 30.8174 14.6969 30.6544 14.6203C30.9052 14.5618 31.1848 14.3297 31.0674 14.1473C31.1938 14.1159 31.3069 14.045 31.3904 13.9449C31.4737 13.8448 31.5229 13.7207 31.5311 13.5906C31.7796 13.5406 32.5457 13.0592 32.4418 12.8434Z" stroke="#120071" stroke-linecap="round" stroke-linejoin="round"/>
<path d="M30.3018 14.6676C30.3018 14.6676 30.5556 14.6298 30.6526 14.6201" stroke="#120071" stroke-linecap="round" stroke-linejoin="round"/>
<path d="M29.5401 12.9601C29.4583 12.7504 29.3393 12.6281 29.2214 12.6299C28.8508 12.658 28.7505 13.6608 28.7561 14.06C28.7612 14.443 28.8781 15.382 29.2344 15.382C29.3465 15.3759 29.4543 15.2543 29.5352 15.0569" stroke="#120071" stroke-linecap="round" stroke-linejoin="round"/>
<path d="M31.85 24.9194C31.6335 25.5277 31.3242 26.0987 30.933 26.6125C30.7129 26.922 30.8845 27.0686 31.2047 26.7775C31.4923 26.506 31.7507 26.2052 31.9759 25.8801" stroke="#120071" stroke-linecap="round" stroke-linejoin="round"/>
<path d="M31.7783 26.1471C31.6256 26.4916 31.4501 26.8254 31.2527 27.1464C31.0393 27.4618 31.2563 27.582 31.5536 27.2725C31.8825 26.8895 32.1823 26.4822 32.4509 26.0547" stroke="#120071" stroke-linecap="round" stroke-linejoin="round"/>
<path d="M32.1617 26.4894C32.071 26.7494 31.9669 27.0043 31.8499 27.2535C31.6849 27.5931 31.9132 27.6904 32.165 27.3457C32.4109 26.9798 32.6252 26.5934 32.8055 26.1909" stroke="#120071" stroke-linecap="round" stroke-linejoin="round"/>
<path d="M32.6308 26.5495C32.5932 26.7265 32.5462 26.9014 32.49 27.0735C32.367 27.4193 32.5483 27.4617 32.7709 27.1123C32.9936 26.763 33.1834 26.3894 33.3726 26.0255C33.6134 25.5684 33.8014 25.1542 34.0128 24.6406" stroke="#120071" stroke-linecap="round" stroke-linejoin="round"/>
<path d="M31.7459 25.2006C30.5529 25.7729 30.3971 25.5326 31.2635 24.9003C31.5914 24.649 31.8557 24.3245 32.0355 23.9526" stroke="#120071" stroke-linecap="round" stroke-linejoin="round"/>
<path d="M9.12934 19.2189L9.10023 19.3014L8.27539 18.9957L8.58107 18.1709L9.4059 18.4766L9.37756 18.5522" stroke="#120071" stroke-linecap="round" stroke-linejoin="round"/>
<path d="M9.30889 18.7339L9.20215 19.0299" stroke="#120071" stroke-linecap="round" stroke-linejoin="round"/>
<path d="M8.40953 19.0454L1.41016 25.1719" stroke="#120071" stroke-linecap="round" stroke-linejoin="round"/>
<path d="M15.8439 12.5381L9.16504 18.3875" stroke="#120071" stroke-linecap="round" stroke-linejoin="round"/>
<path d="M1.73518 25.3905C1.69872 25.4587 1.64287 25.5144 1.5747 25.5509C1.50652 25.5872 1.4291 25.6025 1.3522 25.5951C1.2753 25.5874 1.20239 25.557 1.14268 25.508C1.08297 25.459 1.03915 25.3934 1.01676 25.3193C0.994371 25.2455 0.994414 25.1666 1.01688 25.0925C1.03936 25.0187 1.08325 24.9531 1.143 24.9041C1.20277 24.855 1.27571 24.8249 1.35262 24.8172C1.42952 24.8098 1.50693 24.8252 1.57507 24.8617C1.66624 24.9107 1.73425 24.994 1.76426 25.093C1.79426 25.1921 1.78381 25.2991 1.73518 25.3905Z" stroke="#120071" stroke-linecap="round" stroke-linejoin="round"/>
<path d="M16.1883 12.7221C16.1518 12.7902 16.096 12.846 16.0278 12.8824C15.9597 12.9187 15.8822 12.9341 15.8053 12.9265C15.7284 12.9189 15.6555 12.8886 15.5958 12.8396C15.5361 12.7905 15.4923 12.7249 15.4699 12.6509C15.4475 12.5769 15.4475 12.498 15.47 12.4241C15.4925 12.3501 15.5364 12.2845 15.5961 12.2355C15.6559 12.1865 15.7288 12.1564 15.8057 12.1488C15.8827 12.1413 15.9601 12.1567 16.0282 12.1932C16.1194 12.2423 16.1874 12.3255 16.2174 12.4246C16.2474 12.5237 16.2369 12.6306 16.1883 12.7221Z" stroke="#120071" stroke-linecap="round" stroke-linejoin="round"/>
<path d="M47.409 14.2067L47.2926 14.9248C46.7402 14.9169 46.1894 14.8715 45.6431 14.789C44.0272 14.5283 42.3292 14.0229 42.3729 13.7507C42.4166 13.4784 44.1921 13.5484 45.8032 13.8089C46.3477 13.9017 46.8842 14.0346 47.409 14.2067Z" stroke="#120071" stroke-linecap="round" stroke-linejoin="round"/>
<path d="M46.007 13.8442L45.8428 14.8192" stroke="#120071" stroke-linecap="round" stroke-linejoin="round"/>
<path d="M43.0722 3.17425C41.5538 2.20385 39.6033 2.53864 38.7154 3.92145C38.4051 4.40655 38.2544 4.97645 38.2841 5.55147L37.1094 6.42482L38.5576 6.69143C38.8354 7.30671 39.2864 7.82776 39.8553 8.19094C41.374 9.16134 43.3243 8.82655 44.2122 7.44374C45.1001 6.06092 44.5916 4.14465 43.0722 3.17425Z" stroke="#120071" stroke-linecap="round" stroke-linejoin="round"/>
<path d="M41.2329 6.0418C41.2959 5.85282 41.4116 5.73536 41.752 5.49378C42.4722 4.97921 42.3177 4.41076 41.8879 4.25167C41.8115 4.22343 41.7298 4.21237 41.6489 4.21929C41.5677 4.22618 41.4893 4.25093 41.4188 4.29171C41.3483 4.33249 41.2878 4.38832 41.2413 4.4552C41.1948 4.52208 41.1639 4.59838 41.1504 4.67864" stroke="#120071" stroke-linecap="round" stroke-linejoin="round"/>
<path d="M41.1746 6.73037C41.1606 6.76898 41.1315 6.8004 41.0942 6.81768C41.0569 6.83497 41.0142 6.83673 40.9757 6.82256C40.9371 6.80841 40.9057 6.77951 40.8884 6.7422C40.871 6.70489 40.8695 6.66224 40.8835 6.62363C40.8975 6.58504 40.9267 6.55363 40.9639 6.53635C41.0012 6.51906 41.0439 6.51729 41.0824 6.53144C41.121 6.54561 41.1524 6.57452 41.1698 6.61183C41.1871 6.64914 41.1887 6.69179 41.1746 6.73037Z" stroke="#120071" stroke-linecap="round" stroke-linejoin="round"/>
<path d="M30.5785 4.34346C30.6196 2.76273 30.1904 2.71932 30.2583 2.08243C30.2774 1.91859 30.3295 1.76029 30.4112 1.61705C30.493 1.47382 30.603 1.34858 30.7343 1.24889C30.8658 1.14919 31.016 1.07708 31.1761 1.03688C31.3359 0.996713 31.5024 0.989257 31.6654 1.015C32.0004 1.05997 32.3053 1.23224 32.5168 1.49606C32.7279 1.75988 32.8296 2.095 32.8005 2.43178C32.7297 3.09573 32.2844 2.99946 31.9999 4.53754L30.5785 4.34346Z" stroke="#120071" stroke-linecap="round" stroke-linejoin="round"/>
<path d="M31.9125 5.59528L30.4375 5.3915L30.5151 4.68311L31.9899 4.88689L31.9125 5.59528Z" stroke="#120071" stroke-linecap="round" stroke-linejoin="round"/>
<path d="M31.4182 2.02446L31.1117 1.98565C31.0734 1.97987 31.0343 1.98187 30.9968 1.99152C30.9593 2.00117 30.924 2.01828 30.8931 2.04183C30.8625 2.06537 30.8367 2.09487 30.8175 2.12855C30.7984 2.16226 30.7861 2.19947 30.7818 2.23795C30.7739 2.31755 30.7971 2.39712 30.8472 2.45968C30.897 2.52222 30.9692 2.5628 31.0486 2.57274L31.9269 2.68918C31.9652 2.69495 32.0042 2.69296 32.0418 2.68331C32.0793 2.67366 32.1146 2.65655 32.1452 2.633C32.1761 2.60946 32.2016 2.57996 32.2208 2.54625C32.2399 2.51257 32.2522 2.47536 32.2565 2.43688C32.2645 2.35728 32.2412 2.27771 32.1912 2.21517C32.1414 2.1526 32.0691 2.11203 31.9897 2.10209L31.8492 2.08754C31.8109 2.08177 31.7719 2.08376 31.7343 2.09341C31.6968 2.10306 31.6615 2.12017 31.6306 2.14372C31.6 2.16726 31.5742 2.19676 31.555 2.23044C31.5359 2.26415 31.5236 2.30136 31.5193 2.33984L31.2912 4.44075" stroke="#120071" stroke-linecap="round" stroke-linejoin="round"/>
<path d="M42.242 23.2603L45.9489 25.3126L44.8621 27.2726L40.874 25.07" stroke="#120071" stroke-linecap="round" stroke-linejoin="round"/>
<path d="M43.8916 26.4283L44.7164 24.939L45.5122 25.3805L44.6873 26.8698L43.8916 26.4283Z" stroke="#120071" stroke-linecap="round" stroke-linejoin="round"/>
<path d="M42.8682 25.8611L43.693 24.3716L44.4887 24.8131L43.6639 26.3024L42.8682 25.8611Z" stroke="#120071" stroke-linecap="round" stroke-linejoin="round"/>
<path d="M41.8447 25.2982L42.6693 23.8086L43.465 24.2501L42.645 25.7348L41.8447 25.2982Z" stroke="#120071" stroke-linecap="round" stroke-linejoin="round"/>
<path d="M41.7034 23.27L42.4455 23.6824L41.6209 25.172L40.8252 24.7305L41.6306 23.2749" stroke="#120071" stroke-linecap="round" stroke-linejoin="round"/>
<path d="M40.1855 23.4687L40.2777 23.3037" stroke="#120071" stroke-linecap="round" stroke-linejoin="round"/>
<path d="M41.3298 23.2798L40.665 24.4831" stroke="#120071" stroke-linecap="round" stroke-linejoin="round"/>
<path d="M23.9365 6.10449L24.0481 6.75466" stroke="#120071" stroke-linecap="round" stroke-linejoin="round"/>
<path d="M23.5486 7.46777L22.9033 7.57937" stroke="#120071" stroke-linecap="round" stroke-linejoin="round"/>
<path d="M25.4119 7.1377L24.7666 7.25414" stroke="#120071" stroke-linecap="round" stroke-linejoin="round"/>
<path d="M24.3782 8.61309L24.2617 7.96777" stroke="#120071" stroke-linecap="round" stroke-linejoin="round"/>
<path d="M24.2616 7.96788C24.2332 7.80718 24.1421 7.6643 24.0085 7.57063C23.8749 7.47693 23.7096 7.44006 23.5488 7.46812C23.7096 7.43973 23.8526 7.34864 23.9463 7.2149C24.04 7.08119 24.0768 6.91571 24.0486 6.75488C24.0769 6.91564 24.1679 7.05857 24.3015 7.15231C24.4352 7.24606 24.6005 7.28293 24.7613 7.25489C24.6006 7.28329 24.4577 7.37433 24.364 7.50801C24.2702 7.64167 24.2334 7.80707 24.2616 7.96788Z" stroke="#120071" stroke-linecap="round" stroke-linejoin="round"/>
<path d="M21.9862 30.1102C21.8369 30.5173 21.6223 30.8975 21.3508 31.2356C21.1545 31.4432 20.9141 31.6039 20.6473 31.7063C19.5326 32.1659 18.0237 34.345 17.5809 33.7295C17.4552 33.5546 17.7997 32.6721 18.2359 31.6917C18.5467 30.9933 19.1626 29.9404 19.6624 29.0137C20.3494 29.5415 21.1419 29.9156 21.9862 30.1102Z" stroke="#120071" stroke-linecap="round" stroke-linejoin="round"/>
<path d="M38.3076 21.1015L47.5938 20.9028L47.6423 23.1442L40.0931 23.3043" stroke="#120071" stroke-linecap="round" stroke-linejoin="round"/>
<path d="M46.3758 22.9012L46.3418 21.1981L47.2537 21.1787L47.2877 22.8818L46.3758 22.9012Z" stroke="#120071" stroke-linecap="round" stroke-linejoin="round"/>
<path d="M45.2117 22.9256L45.1729 21.2225L46.085 21.2031L46.119 22.9062L45.2117 22.9256Z" stroke="#120071" stroke-linecap="round" stroke-linejoin="round"/>
<path d="M44.0417 22.95L44.0029 21.2469L44.9151 21.2275L44.9539 22.9306L44.0417 22.95Z" stroke="#120071" stroke-linecap="round" stroke-linejoin="round"/>
<path d="M42.8728 22.9739L42.834 21.2758L43.7462 21.2563L43.785 22.9545L42.8728 22.9739Z" stroke="#120071" stroke-linecap="round" stroke-linejoin="round"/>
<path d="M41.7039 23.0032L41.6699 21.3002L42.577 21.2808L42.6158 22.979L41.7039 23.0032Z" stroke="#120071" stroke-linecap="round" stroke-linejoin="round"/>
<path d="M30.4133 15.0312C29.7102 16.2536 29.201 17.5777 28.9043 18.9562" stroke="#120071" stroke-linecap="round" stroke-linejoin="round"/>
<path d="M18.0177 26.0498L17.2607 27.714" stroke="#120071" stroke-linecap="round" stroke-linejoin="round"/>
<path d="M18.4687 27.2579L16.8047 26.501" stroke="#120071" stroke-linecap="round" stroke-linejoin="round"/>
<path d="M23.583 17.701L23.9272 17.5161" stroke="#120071" stroke-linecap="round" stroke-linejoin="round"/>
<path d="M29.2345 15.3813L27.8322 15.4929L27.5557 16.8367" stroke="#120071" stroke-linecap="round" stroke-linejoin="round"/>
</svg>
