<svg width="236" height="176" viewBox="0 0 236 176" fill="none" xmlns="http://www.w3.org/2000/svg">
<path d="M166.155 88.1165C163.862 83.1557 160.399 75.7847 158.737 72.744C156.108 67.9531 154.002 67.8263 151.811 65.7708C149.998 65.5956 148.244 65.0374 146.664 64.1328C146.444 64.2579 146.21 64.3563 145.967 64.4259C146.527 65.288 145.249 66.3853 144.059 66.6932C144.675 67.1403 144.048 68.4913 142.828 68.6958C142.221 68.6958 141.517 68.7746 138.616 68.7894C137.821 70.7291 136.791 70.7426 136.008 69.4618C134.313 66.687 134.523 57.7236 136.954 57.0894L120.552 58.4441C118.925 58.5829 117.391 59.2582 116.19 60.3636C114.989 61.4692 114.189 62.9424 113.915 64.552C113.642 66.1614 113.911 67.8162 114.681 69.2561C115.45 70.6961 116.676 71.8397 118.165 72.5075L129.045 77.3735L127.711 83.9008L148.093 93.5416L153.965 80.8354V88.417L156.562 93.0724L149.97 111.217C153.233 113.578 157.128 114.914 161.154 115.055L166.723 98.0443C167.798 94.7831 167.595 91.2349 166.155 88.1165ZM130.126 72.2994L119.738 71.739L130.407 70.8966L130.126 72.2994Z" fill="#FECFC4"/>
<path d="M73.7357 90.9476L61.0061 83.366C60.6739 83.1726 60.2803 83.114 59.9063 83.2022L39.3623 85.9116L61.1009 93.5684C61.3958 93.6706 61.6426 93.8775 61.7938 94.1497C61.9449 94.4231 61.9899 94.7421 61.9199 95.0463C61.8758 95.2088 61.7987 95.3616 61.6933 95.4933C61.5879 95.6251 61.4565 95.7335 61.3073 95.8135C61.1581 95.8924 60.9943 95.9392 60.8259 95.9527C60.6575 95.965 60.4883 95.9441 60.3287 95.8887L38.7539 87.2504L52.603 102.927C52.832 103.231 53.1655 103.439 53.539 103.512L68.1209 106.063C68.466 106.118 68.8197 106.054 69.1224 105.879C69.4252 105.704 69.6583 105.43 69.7823 105.103L74.3687 92.7494C74.4897 92.4218 74.4926 92.0634 74.377 91.7345C74.2614 91.4057 74.0346 91.1274 73.7357 90.9476Z" fill="#FECFC4"/>
<path d="M202.92 120.899L206.898 113.715L210.736 115.844L206.758 123.027L202.92 120.899Z" fill="#FECFC4"/>
<path d="M219.838 106.625L219.674 98.4115L224.072 98.3179L224.236 106.531L219.838 106.625Z" fill="#FECFC4"/>
<path d="M214.222 106.741L214.035 98.5277L218.434 98.4341L218.598 106.647L214.222 106.741Z" fill="#FECFC4"/>
<path d="M203.903 11.4853C196.58 6.80526 187.173 8.41986 182.891 15.0889C181.395 17.4284 180.668 20.1769 180.811 22.95L175.146 27.162L182.13 28.4478C183.47 31.4152 185.645 33.9281 188.389 35.6796C195.713 40.3596 205.118 38.745 209.401 32.076C213.683 25.407 211.231 16.1653 203.903 11.4853Z" fill="#FECFC4"/>
<path d="M182.703 128.901L175.379 148.626L167.611 145.725L174.934 126.022L182.703 128.901Z" fill="#6153BD"/>
<path d="M163.724 56.05C163.497 55.841 163.256 55.6488 163.002 55.4749C165.526 56.7225 165.603 53.8899 162.885 51.9895C158.612 48.3958 155.262 48.2603 153.045 48.9426C155.747 48.7074 156.278 51.2161 155.467 53.7667C155.205 54.3579 155.81 54.3825 156.453 54.2815C158.371 54.0241 158.067 56.991 155.591 56.6215C155.467 56.7865 153.094 59.9221 152.993 60.0613C153.37 59.6353 153.849 59.3123 154.386 59.1227C154.922 58.933 155.498 58.8832 156.059 58.9775C158.128 59.4368 160.05 60.4044 161.651 61.7929C162.774 62.8693 164.114 63.3139 164.646 62.7782C165.178 62.2424 164.693 60.9062 163.57 59.8298C163.382 59.6512 163.165 59.4295 162.947 59.214C164.874 59.9012 165.719 57.9614 163.724 56.05Z" fill="#6153BD"/>
<path d="M116.766 96.8679L118.193 100.049L129.915 96.2583L116.766 96.8679Z" fill="#6153BD"/>
<path d="M153.993 80.8398V88.4214L152.075 84.9829L153.993 80.8398Z" fill="#6153BD"/>
<path d="M138.644 68.7896C137.825 70.8254 136.585 70.919 135.695 68.8364C136.491 68.8364 137.567 68.813 138.644 68.7896Z" fill="#6153BD"/>
<path d="M138.667 58.6808C137.646 58.8534 136.614 58.9472 135.578 58.9616C136.374 56.6918 137.705 56.3408 138.667 58.6808Z" fill="#6153BD"/>
<path d="M130.406 70.8955L130.126 72.2983L119.737 71.7379L130.406 70.8955Z" fill="#6153BD"/>
<path d="M4.54561 118.629C4.36974 118.958 4.1004 119.226 3.77163 119.403C3.44285 119.577 3.06943 119.651 2.69857 119.614C2.3277 119.579 1.97606 119.432 1.68812 119.196C1.40016 118.959 1.18883 118.643 1.08084 118.286C0.972852 117.93 0.973061 117.549 1.08143 117.192C1.18981 116.835 1.40148 116.519 1.68968 116.283C1.97789 116.047 2.32968 115.901 2.70059 115.864C3.07149 115.829 3.44483 115.902 3.77341 116.079C4.2131 116.315 4.54114 116.716 4.68585 117.194C4.83055 117.672 4.78013 118.188 4.54561 118.629Z" fill="#6153BD"/>
<path d="M74.2507 57.5344C74.0749 57.8628 73.8055 58.1319 73.4767 58.3074C73.148 58.4829 72.7745 58.5569 72.4037 58.5202C72.0328 58.4835 71.6812 58.3376 71.3932 58.101C71.1053 57.8644 70.8939 57.5478 70.7859 57.1911C70.6779 56.8345 70.6782 56.4537 70.7865 56.0971C70.8949 55.7406 71.1066 55.4242 71.3948 55.1878C71.683 54.9516 72.0347 54.806 72.4057 54.7697C72.7766 54.7334 73.1499 54.8079 73.4785 54.9838C73.9182 55.2205 74.2463 55.6217 74.391 56.0997C74.5357 56.5777 74.4852 57.0935 74.2507 57.5344Z" fill="#6153BD"/>
<path d="M224.821 64.6946C229.174 62.4777 231.233 66.7772 235 66.6651C232.146 69.9411 227.349 71.1579 224.26 68.1627L224.821 64.6946Z" fill="#6153BD"/>
<path d="M194.754 28.6365C194.687 28.8226 194.546 28.9741 194.366 29.0575C194.187 29.1409 193.981 29.1493 193.795 29.0811C193.609 29.0128 193.458 28.8734 193.374 28.6934C193.29 28.5135 193.283 28.3078 193.35 28.1217C193.418 27.9355 193.559 27.784 193.738 27.7006C193.918 27.6173 194.124 27.6088 194.31 27.6771C194.496 27.7453 194.647 27.8848 194.731 28.0647C194.815 28.2446 194.822 28.4503 194.754 28.6365Z" fill="#6153BD"/>
<path d="M86.5575 79.1309C83.6091 79.6691 80.7075 79.8797 78.5091 80.2775C73.8525 81.1199 69.7575 82.0793 69.4299 82.9685C68.2833 86.1041 80.0289 86.1977 84.4749 89.1264C88.081 91.4873 89.384 91.81 92.6649 89.922C89.7422 86.9045 87.6398 83.1898 86.5575 79.1309Z" fill="#6153BD"/>
<path d="M102.211 141.391C101.491 143.355 100.456 145.188 99.1469 146.819C98.1999 147.82 97.0404 148.595 95.7539 149.089C90.378 151.306 83.1006 161.815 80.9651 158.847C80.3591 158.003 82.0205 153.747 84.1241 149.019C85.6229 145.65 88.5935 140.572 91.0037 136.103C94.3171 138.649 98.1393 140.453 102.211 141.391Z" fill="#6153BD"/>
<path d="M134.408 109.878C134.4 110.098 134.306 110.308 134.147 110.462C133.988 110.614 133.775 110.701 133.555 110.701C133.333 110.701 133.12 110.614 132.961 110.462C132.802 110.308 132.709 110.098 132.7 109.878C132.709 109.657 132.802 109.448 132.961 109.294C133.12 109.141 133.333 109.055 133.555 109.055C133.775 109.055 133.988 109.141 134.147 109.294C134.306 109.448 134.4 109.657 134.408 109.878Z" fill="#6153BD"/>
<path d="M142.318 94.6454C142.309 94.8659 142.215 95.0753 142.056 95.2292C141.898 95.3819 141.685 95.4681 141.463 95.4681C141.242 95.4681 141.029 95.3819 140.87 95.2292C140.712 95.0753 140.618 94.8659 140.609 94.6454C140.618 94.425 140.712 94.2156 140.87 94.0617C141.029 93.909 141.242 93.8228 141.463 93.8228C141.685 93.8228 141.898 93.909 142.056 94.0617C142.215 94.2156 142.309 94.425 142.318 94.6454Z" fill="#6153BD"/>
<path d="M121.448 92.0048C121.44 92.2253 121.346 92.4346 121.187 92.5886C121.028 92.7413 120.815 92.8275 120.594 92.8275C120.373 92.8275 120.16 92.7413 120.001 92.5886C119.842 92.4346 119.749 92.2253 119.74 92.0048C119.749 91.7844 119.842 91.575 120.001 91.4211C120.16 91.2683 120.373 91.1821 120.594 91.1821C120.815 91.1821 121.028 91.2683 121.187 91.4211C121.346 91.575 121.44 91.7844 121.448 92.0048Z" fill="#6153BD"/>
<path d="M122.85 77.4722C122.841 77.693 122.748 77.9022 122.589 78.0555C122.43 78.2088 122.217 78.2944 121.995 78.2944C121.775 78.2944 121.562 78.2088 121.403 78.0555C121.244 77.9022 121.15 77.693 121.142 77.4722C121.15 77.2513 121.244 77.0422 121.403 76.889C121.562 76.7356 121.775 76.6499 121.995 76.6499C122.217 76.6499 122.43 76.7356 122.589 76.889C122.748 77.0422 122.841 77.2513 122.85 77.4722Z" fill="#6153BD"/>
<path d="M109.909 69.9127C109.901 70.1335 109.807 70.3426 109.648 70.4959C109.489 70.6493 109.276 70.7349 109.055 70.7349C108.834 70.7349 108.622 70.6493 108.463 70.4959C108.303 70.3426 108.21 70.1335 108.201 69.9127C108.21 69.6917 108.303 69.4826 108.463 69.3293C108.622 69.1761 108.834 69.0903 109.055 69.0903C109.276 69.0903 109.489 69.1761 109.648 69.3293C109.807 69.4826 109.901 69.6917 109.909 69.9127Z" fill="#6153BD"/>
<path d="M91.2609 79.108C91.2526 79.3288 91.1588 79.5379 90.9996 79.6913C90.8404 79.8446 90.6279 79.9302 90.4068 79.9302C90.1858 79.9302 89.9733 79.8446 89.8141 79.6913C89.6548 79.5379 89.5611 79.3288 89.5527 79.108C89.5611 78.887 89.6548 78.678 89.8141 78.5247C89.9733 78.3714 90.1858 78.2856 90.4068 78.2856C90.6279 78.2856 90.8404 78.3714 90.9996 78.5247C91.1588 78.678 91.2526 78.887 91.2609 79.108Z" fill="#6153BD"/>
<path d="M104.107 80.8394C104.098 81.0604 104.005 81.2694 103.845 81.4227C103.686 81.576 103.474 81.6616 103.253 81.6616C103.031 81.6616 102.819 81.576 102.66 81.4227C102.501 81.2694 102.407 81.0604 102.398 80.8394C102.407 80.6185 102.501 80.4095 102.66 80.2561C102.819 80.1028 103.031 80.0171 103.253 80.0171C103.474 80.0171 103.686 80.1028 103.845 80.2561C104.005 80.4095 104.098 80.6185 104.107 80.8394Z" fill="#6153BD"/>
<path d="M111.056 117.857C111.047 118.077 110.954 118.287 110.795 118.441C110.635 118.593 110.423 118.68 110.202 118.68C109.981 118.68 109.768 118.593 109.609 118.441C109.45 118.287 109.356 118.077 109.348 117.857C109.356 117.636 109.45 117.427 109.609 117.273C109.768 117.12 109.981 117.034 110.202 117.034C110.423 117.034 110.635 117.12 110.795 117.273C110.954 117.427 111.047 117.636 111.056 117.857Z" fill="#6153BD"/>
<path d="M120.393 102.623C120.384 102.844 120.291 103.053 120.132 103.207C119.973 103.36 119.76 103.446 119.538 103.446C119.318 103.446 119.105 103.36 118.946 103.207C118.787 103.053 118.693 102.844 118.685 102.623C118.693 102.403 118.787 102.194 118.946 102.04C119.105 101.887 119.318 101.801 119.538 101.801C119.76 101.801 119.973 101.887 120.132 102.04C120.291 102.194 120.384 102.403 120.393 102.623Z" fill="#6153BD"/>
<path d="M95.9641 129.088C95.9557 129.308 95.862 129.518 95.7027 129.672C95.5435 129.824 95.331 129.911 95.11 129.911C94.8889 129.911 94.6764 129.824 94.5172 129.672C94.358 129.518 94.2642 129.308 94.2559 129.088C94.2642 128.867 94.358 128.658 94.5172 128.504C94.6764 128.351 94.8889 128.265 95.11 128.265C95.331 128.265 95.5435 128.351 95.7027 128.504C95.862 128.658 95.9557 128.867 95.9641 129.088Z" fill="#6153BD"/>
<path d="M224.821 64.6946C229.174 62.4777 231.233 66.7772 235 66.6651C232.146 69.9411 227.349 71.1579 224.26 68.1627L224.821 64.6946Z" stroke="#120071" stroke-linejoin="round"/>
<path d="M96.269 121.81L67.4648 111.117L76.427 86.9932L114.66 101.196" stroke="#120071" stroke-linecap="round" stroke-linejoin="round"/>
<path d="M159.071 117.693L175.73 123.893L166.769 147.993L110.19 126.981" stroke="#120071" stroke-linecap="round" stroke-linejoin="round"/>
<path d="M140.773 110.907L149.21 114.037" stroke="#120071" stroke-linecap="round" stroke-linejoin="round"/>
<path d="M182.703 128.901L175.379 148.626L167.611 145.725L174.934 126.022L182.703 128.901Z" stroke="#120071" stroke-linecap="round" stroke-linejoin="round"/>
<path d="M73.6421 90.9247L61.0295 83.3899C60.6974 83.1965 60.3038 83.1379 59.9297 83.2261L39.3623 85.9171L61.1231 93.5689C61.418 93.6711 61.6648 93.878 61.816 94.1514C61.9671 94.4236 62.0121 94.7426 61.9421 95.0468C61.898 95.2094 61.8209 95.3621 61.7155 95.4939C61.6101 95.6256 61.4788 95.7352 61.3295 95.8141C61.1803 95.8929 61.0165 95.9397 60.8481 95.9532C60.6798 95.9655 60.5105 95.9446 60.3509 95.8892L38.7773 87.2312L52.6031 102.904C52.832 103.208 53.1655 103.417 53.5391 103.489L68.0224 106.016C68.3678 106.073 68.7222 106.009 69.0257 105.835C69.3291 105.661 69.5629 105.387 69.6875 105.06L74.2789 92.7265C74.3994 92.3989 74.4019 92.0393 74.2856 91.7104C74.1694 91.3816 73.9416 91.1033 73.6421 90.9247Z" stroke="#120071" stroke-linecap="round" stroke-linejoin="round"/>
<path d="M71.9902 98.8633L101.65 109.877" stroke="#120071" stroke-linecap="round" stroke-linejoin="round"/>
<path d="M151.138 128.245L171.332 135.757" stroke="#120071" stroke-linecap="round" stroke-linejoin="round"/>
<path d="M148.683 127.333L149.712 127.73" stroke="#120071" stroke-linecap="round" stroke-linejoin="round"/>
<path d="M145.336 126.092L147.114 126.747" stroke="#120071" stroke-linecap="round" stroke-linejoin="round"/>
<path d="M119.551 116.523L144.985 125.952" stroke="#120071" stroke-linecap="round" stroke-linejoin="round"/>
<path d="M166.629 89.2866C174.091 92.0343 180.671 96.7512 185.667 102.937C190.662 109.124 193.89 116.548 195.006 124.42C196.122 132.293 195.085 140.322 192.005 147.652C188.925 154.984 183.916 161.343 177.51 166.056C171.106 170.769 163.544 173.658 155.629 174.42C147.713 175.179 139.74 173.782 132.555 170.375C125.37 166.967 119.243 161.678 114.823 155.068C110.403 148.457 107.856 140.773 107.453 132.832" stroke="#120071" stroke-linecap="round" stroke-linejoin="round"/>
<path d="M127.74 83.9045L129.073 77.3771L118.194 72.5112C116.697 71.8478 115.465 70.7048 114.691 69.2628C113.917 67.8206 113.646 66.1618 113.921 64.5483C114.195 62.9349 115 61.459 116.207 60.3539C117.414 59.2489 118.955 58.5777 120.586 58.4465L137.113 57.0918" stroke="#120071" stroke-linecap="round" stroke-linejoin="round"/>
<path d="M146.67 64.1328C148.25 65.0374 150.004 65.5958 151.817 65.7708C152.591 66.4617 153.424 67.0852 154.304 67.6342C156.199 68.927 157.726 70.6872 158.738 72.744C160.403 75.7836 163.911 83.1324 166.156 88.1166C167.625 91.2239 167.835 94.7794 166.741 98.037L161.172 115.049C157.137 114.912 153.235 113.576 149.964 111.211L156.585 93.0774L152.075 84.9847L148.121 93.5479" stroke="#120071" stroke-linecap="round" stroke-linejoin="round"/>
<path d="M130.126 72.2978L119.737 71.7374L130.406 70.895L130.126 72.2978Z" stroke="#120071" stroke-linecap="round" stroke-linejoin="round"/>
<path d="M146.412 55.9664C147.144 54.163 148.236 52.5283 149.623 51.1632C153.883 46.8441 156.863 49.3245 155.467 53.7249C155.22 54.3407 155.836 54.3604 156.452 54.2631C158.365 53.9614 158.067 56.9726 155.59 56.6031C154.133 58.3801 152.826 60.275 151.682 62.2684C151.426 62.8227 151.304 63.43 151.329 64.0403C151.353 64.6507 151.522 65.2464 151.822 65.7784" stroke="#120071" stroke-linecap="round" stroke-linejoin="round"/>
<path d="M146.553 59.4766C146.123 58.8858 145.944 58.1494 146.054 57.4272" stroke="#120071" stroke-linecap="round" stroke-linejoin="round"/>
<path d="M152.741 49.0447C156.616 47.6395 160.623 49.7393 163.61 52.5264C165.68 54.4563 165.178 56.5044 163.002 55.428C165.684 57.3443 165.158 60.6006 162.299 58.704C163.224 59.1671 165.625 61.7657 164.663 62.7756C164.137 63.3249 162.767 62.8692 161.644 61.7903C161.621 61.7669 155.991 56.8923 153.084 59.954" stroke="#120071" stroke-linecap="round" stroke-linejoin="round"/>
<path d="M116.766 96.8679L129.915 96.2583L118.193 100.049" stroke="#120071" stroke-linecap="round" stroke-linejoin="round"/>
<path d="M153.993 80.8389V88.4205L152.075 84.9819L153.993 80.8389Z" stroke="#120071" stroke-linecap="round" stroke-linejoin="round"/>
<path d="M123.552 74.9193L127.739 83.9098L148.12 93.5506L148.097 93.5974C147.933 96.148 146.155 111.338 135.672 113.276C127.927 114.707 119.831 116.435 114.589 117.628L103.334 141.635C97.617 140.562 94.3188 138.535 90.1844 135.434L101.182 110.819C102.043 108.894 103.297 107.169 104.865 105.758C106.432 104.348 108.279 103.281 110.284 102.629L118.193 100.055L109.911 81.544L93.2264 90.5037C91.4719 88.7265 89.957 86.7273 88.72 84.5576C87.6531 82.6734 86.8767 80.6389 86.417 78.5229H86.4404L109.09 65.0691C110.581 64.1756 112.322 63.7896 114.051 63.9693" stroke="#120071" stroke-linecap="round" stroke-linejoin="round"/>
<path d="M92.6654 89.9185C91.4763 90.7375 90.0606 91.1624 88.6172 91.1353C87.1312 90.708 85.73 90.0269 84.4754 89.1229C80.0269 86.2029 68.2801 86.1031 69.4304 82.965C69.7568 82.0758 73.853 81.1177 78.5096 80.274C80.708 79.8762 83.6096 79.6656 86.558 79.1274C87.6403 83.1865 89.7427 86.9012 92.6654 89.9185Z" stroke="#120071" stroke-linecap="round" stroke-linejoin="round"/>
<path d="M145.312 62.2609C145.851 62.1673 147.395 61.9567 148.237 61.7227" stroke="#120071" stroke-linecap="round" stroke-linejoin="round"/>
<path d="M141.943 59.6396C142.599 59.6864 143.23 59.7098 143.791 59.7098" stroke="#120071" stroke-linecap="round" stroke-linejoin="round"/>
<path d="M146.001 64.4077L143.675 64.6947" stroke="#120071" stroke-linecap="round" stroke-linejoin="round"/>
<path d="M152.636 58.119C152.331 57.4872 149.478 58.7976 148.494 59.055C146.962 59.4789 145.382 59.6992 143.792 59.7102C148.167 55.779 147.278 54.96 143.113 57.4404C140.716 58.4028 138.161 58.9106 135.578 58.938C134.605 62.1653 134.654 65.6145 135.719 68.8128C144.114 68.6514 142.397 68.6724 142.862 68.6724C144.146 68.4581 144.801 67.0578 144.016 66.6883C145.225 66.4063 146.574 65.2868 146.007 64.4074C146.617 64.2558 147.162 63.9137 147.565 63.4309C147.967 62.9481 148.204 62.3498 148.244 61.7226C149.442 61.4812 153.137 59.1596 152.636 58.119Z" stroke="#120071" stroke-linecap="round" stroke-linejoin="round"/>
<path d="M142.317 66.9171C142.317 66.9171 143.542 66.7348 144.01 66.688" stroke="#120071" stroke-linecap="round" stroke-linejoin="round"/>
<path d="M138.643 58.6804C138.249 57.6693 137.675 57.0794 137.106 57.088C135.319 57.2235 134.835 62.0599 134.862 63.9848C134.887 65.8322 135.451 70.3607 137.169 70.3607C137.71 70.3312 138.23 69.7449 138.62 68.7929" stroke="#120071" stroke-linecap="round" stroke-linejoin="round"/>
<path d="M149.782 116.359C148.738 119.293 147.246 122.046 145.359 124.524C144.298 126.017 145.125 126.724 146.67 125.32C148.057 124.011 149.303 122.56 150.389 120.992" stroke="#120071" stroke-linecap="round" stroke-linejoin="round"/>
<path d="M149.438 122.279C148.702 123.941 147.856 125.55 146.904 127.098C145.874 128.619 146.921 129.2 148.355 127.707C149.941 125.86 151.387 123.895 152.682 121.833" stroke="#120071" stroke-linecap="round" stroke-linejoin="round"/>
<path d="M151.286 123.928C150.849 125.182 150.347 126.411 149.783 127.613C148.987 129.251 150.088 129.721 151.302 128.058C152.488 126.293 153.522 124.43 154.391 122.489" stroke="#120071" stroke-linecap="round" stroke-linejoin="round"/>
<path d="M153.549 124.22C153.367 125.074 153.141 125.917 152.87 126.747C152.276 128.415 153.151 128.619 154.225 126.935C155.299 125.25 156.214 123.448 157.126 121.693C158.288 119.488 159.194 117.491 160.214 115.014" stroke="#120071" stroke-linecap="round" stroke-linejoin="round"/>
<path d="M149.282 117.714C143.528 120.474 142.777 119.315 146.956 116.265C148.537 115.053 149.812 113.488 150.679 111.695" stroke="#120071" stroke-linecap="round" stroke-linejoin="round"/>
<path d="M40.2043 88.8649L40.0639 89.2627L36.0859 87.7885L37.5601 83.8105L41.5381 85.2847L41.4014 85.6493" stroke="#120071" stroke-linecap="round" stroke-linejoin="round"/>
<path d="M41.0705 86.5254L40.5557 87.9528" stroke="#120071" stroke-linecap="round" stroke-linejoin="round"/>
<path d="M36.7339 88.0293L2.97754 117.576" stroke="#120071" stroke-linecap="round" stroke-linejoin="round"/>
<path d="M72.5896 56.645L40.3789 84.8556" stroke="#120071" stroke-linecap="round" stroke-linejoin="round"/>
<path d="M4.54561 118.629C4.36974 118.958 4.1004 119.226 3.77163 119.403C3.44285 119.577 3.06943 119.651 2.69856 119.616C2.3277 119.579 1.97606 119.432 1.68812 119.196C1.40016 118.959 1.18883 118.643 1.08084 118.286C0.972852 117.93 0.973061 117.549 1.08143 117.192C1.18981 116.836 1.40148 116.519 1.68968 116.283C1.97789 116.047 2.32968 115.901 2.70059 115.864C3.07149 115.829 3.44483 115.902 3.77341 116.079C4.2131 116.315 4.54114 116.716 4.68585 117.194C4.83055 117.672 4.78013 118.188 4.54561 118.629Z" stroke="#120071" stroke-linecap="round" stroke-linejoin="round"/>
<path d="M74.2507 57.5342C74.0749 57.8628 73.8055 58.1319 73.4767 58.3073C73.148 58.4828 72.7745 58.557 72.4037 58.5201C72.0328 58.4834 71.6812 58.3376 71.3932 58.101C71.1053 57.8644 70.8939 57.5478 70.7859 57.191C70.6779 56.8343 70.6782 56.4537 70.7865 56.0971C70.8949 55.7406 71.1066 55.4241 71.3948 55.1878C71.683 54.9515 72.0347 54.8061 72.4057 54.7697C72.7766 54.7334 73.1499 54.8078 73.4785 54.9836C73.9182 55.2205 74.2463 55.6217 74.391 56.0996C74.5357 56.5776 74.4852 57.0933 74.2507 57.5342Z" stroke="#120071" stroke-linecap="round" stroke-linejoin="round"/>
<path d="M224.821 64.6941L224.26 68.1573C221.596 68.119 218.939 67.9002 216.305 67.5021C208.511 66.2447 200.323 63.8074 200.533 62.4945C200.744 61.1816 209.307 61.5191 217.077 62.7753C219.703 63.2227 222.29 63.864 224.821 64.6941Z" stroke="#120071" stroke-linecap="round" stroke-linejoin="round"/>
<path d="M218.059 62.9443L217.267 67.6465" stroke="#120071" stroke-linecap="round" stroke-linejoin="round"/>
<path d="M203.903 11.4853C196.58 6.80527 187.173 8.41986 182.891 15.0889C181.395 17.4284 180.668 20.1769 180.811 22.95L175.146 27.162L182.13 28.4478C183.47 31.4152 185.645 33.9281 188.389 35.6796C195.713 40.3596 205.118 38.745 209.401 32.076C213.683 25.407 211.231 16.1653 203.903 11.4853Z" stroke="#120071" stroke-linecap="round" stroke-linejoin="round"/>
<path d="M195.035 25.3134C195.34 24.402 195.898 23.8355 197.539 22.6704C201.012 20.1888 200.267 17.4473 198.195 16.68C197.826 16.5438 197.432 16.4904 197.042 16.5238C196.65 16.5571 196.272 16.6764 195.932 16.8731C195.592 17.0698 195.3 17.339 195.076 17.6616C194.852 17.9841 194.703 18.3521 194.638 18.7392" stroke="#120071" stroke-linecap="round" stroke-linejoin="round"/>
<path d="M194.754 28.6364C194.687 28.8226 194.546 28.9741 194.366 29.0575C194.187 29.1409 193.981 29.1494 193.795 29.081C193.609 29.0128 193.458 28.8734 193.374 28.6934C193.29 28.5135 193.283 28.3078 193.35 28.1216C193.418 27.9355 193.559 27.784 193.738 27.7007C193.918 27.6173 194.124 27.6088 194.31 27.677C194.496 27.7454 194.647 27.8848 194.731 28.0647C194.815 28.2447 194.822 28.4503 194.754 28.6364Z" stroke="#120071" stroke-linecap="round" stroke-linejoin="round"/>
<path d="M143.651 17.1247C143.849 9.50126 141.779 9.29189 142.107 6.22033C142.199 5.43015 142.45 4.6667 142.844 3.9759C143.238 3.28511 143.769 2.68114 144.402 2.20033C145.036 1.71953 145.761 1.37173 146.533 1.17788C147.304 0.984149 148.107 0.948188 148.893 1.07233C150.508 1.28921 151.979 2.12004 152.999 3.39238C154.017 4.66473 154.507 6.28093 154.367 7.90514C154.026 11.1072 151.878 10.6429 150.506 18.0607L143.651 17.1247Z" stroke="#120071" stroke-linecap="round" stroke-linejoin="round"/>
<path d="M150.086 23.1619L142.973 22.1791L143.347 18.7627L150.459 19.7455L150.086 23.1619Z" stroke="#120071" stroke-linecap="round" stroke-linejoin="round"/>
<path d="M147.699 5.93907L146.222 5.75187C146.037 5.72404 145.848 5.73364 145.667 5.7802C145.486 5.82675 145.316 5.90927 145.167 6.02282C145.02 6.13638 144.895 6.27862 144.803 6.44107C144.71 6.60364 144.651 6.78308 144.63 6.96868C144.592 7.35256 144.704 7.73632 144.946 8.03805C145.186 8.33967 145.534 8.53537 145.917 8.58328L150.153 9.14488C150.338 9.17271 150.526 9.1631 150.707 9.11655C150.888 9.07 151.058 8.98748 151.206 8.87393C151.355 8.76038 151.478 8.61813 151.57 8.45556C151.663 8.29312 151.722 8.11368 151.743 7.92808C151.781 7.54419 151.669 7.16043 151.427 6.85882C151.187 6.55708 150.839 6.36138 150.456 6.31347L149.778 6.24328C149.594 6.21544 149.405 6.22505 149.224 6.2716C149.043 6.31815 148.873 6.40067 148.724 6.51422C148.576 6.62777 148.452 6.77002 148.36 6.93247C148.267 7.09503 148.208 7.27448 148.187 7.46007L147.087 17.5923" stroke="#120071" stroke-linecap="round" stroke-linejoin="round"/>
<path d="M199.901 108.356L217.779 118.255L212.537 127.707L193.304 117.085" stroke="#120071" stroke-linecap="round" stroke-linejoin="round"/>
<path d="M207.857 123.635L211.835 116.453L215.673 118.582L211.695 125.765L207.857 123.635Z" stroke="#120071" stroke-linecap="round" stroke-linejoin="round"/>
<path d="M202.92 120.899L206.898 113.715L210.736 115.844L206.758 123.027L202.92 120.899Z" stroke="#120071" stroke-linecap="round" stroke-linejoin="round"/>
<path d="M197.983 118.184L201.96 111L205.798 113.13L201.843 120.29L197.983 118.184Z" stroke="#120071" stroke-linecap="round" stroke-linejoin="round"/>
<path d="M197.305 108.403L200.884 110.392L196.907 117.576L193.069 115.446L196.954 108.426" stroke="#120071" stroke-linecap="round" stroke-linejoin="round"/>
<path d="M189.98 109.362L190.425 108.567" stroke="#120071" stroke-linecap="round" stroke-linejoin="round"/>
<path d="M195.504 108.45L192.298 114.253" stroke="#120071" stroke-linecap="round" stroke-linejoin="round"/>
<path d="M111.618 25.6177L112.156 28.7533" stroke="#120071" stroke-linecap="round" stroke-linejoin="round"/>
<path d="M109.746 32.1934L106.634 32.7316" stroke="#120071" stroke-linecap="round" stroke-linejoin="round"/>
<path d="M118.731 30.6016L115.619 31.1632" stroke="#120071" stroke-linecap="round" stroke-linejoin="round"/>
<path d="M113.747 37.7157L113.186 34.6035" stroke="#120071" stroke-linecap="round" stroke-linejoin="round"/>
<path d="M113.185 34.6029C113.048 33.8279 112.609 33.1388 111.965 32.6871C111.321 32.2352 110.523 32.0574 109.748 32.1927C110.524 32.0558 111.213 31.6165 111.665 30.9715C112.117 30.3266 112.294 29.5286 112.158 28.7529C112.295 29.5282 112.734 30.2175 113.378 30.6696C114.023 31.1217 114.82 31.2996 115.596 31.1644C114.82 31.3013 114.131 31.7404 113.679 32.3851C113.227 33.0297 113.05 33.8274 113.185 34.6029Z" stroke="#120071" stroke-linecap="round" stroke-linejoin="round"/>
<path d="M102.211 141.391C101.491 143.355 100.456 145.188 99.1469 146.819C98.1999 147.82 97.0404 148.595 95.7539 149.089C90.378 151.306 83.1006 161.815 80.9651 158.847C80.3591 158.003 82.0205 153.747 84.1241 149.019C85.6229 145.65 88.5935 140.572 91.0037 136.103C94.3171 138.649 98.1393 140.453 102.211 141.391Z" stroke="#120071" stroke-linecap="round" stroke-linejoin="round"/>
<path d="M180.925 97.943L225.71 96.9849L225.944 107.794L189.536 108.567" stroke="#120071" stroke-linecap="round" stroke-linejoin="round"/>
<path d="M219.838 106.625L219.674 98.4115L224.072 98.3179L224.236 106.531L219.838 106.625Z" stroke="#120071" stroke-linecap="round" stroke-linejoin="round"/>
<path d="M214.222 106.742L214.035 98.5287L218.434 98.4351L218.598 106.648L214.222 106.742Z" stroke="#120071" stroke-linecap="round" stroke-linejoin="round"/>
<path d="M208.583 106.859L208.396 98.6454L212.795 98.5518L212.982 106.765L208.583 106.859Z" stroke="#120071" stroke-linecap="round" stroke-linejoin="round"/>
<path d="M202.943 106.976L202.756 98.786L207.155 98.6924L207.342 106.882L202.943 106.976Z" stroke="#120071" stroke-linecap="round" stroke-linejoin="round"/>
<path d="M197.305 107.116L197.142 98.9027L201.516 98.8091L201.703 106.999L197.305 107.116Z" stroke="#120071" stroke-linecap="round" stroke-linejoin="round"/>
<path d="M142.856 68.6724C139.465 74.5676 137.009 80.9534 135.578 87.6017" stroke="#120071" stroke-linecap="round" stroke-linejoin="round"/>
<path d="M83.0713 121.81L79.4209 129.836" stroke="#120071" stroke-linecap="round" stroke-linejoin="round"/>
<path d="M85.2476 127.637L77.2227 123.986" stroke="#120071" stroke-linecap="round" stroke-linejoin="round"/>
<path d="M109.911 81.544L111.571 80.6523" stroke="#120071" stroke-linecap="round" stroke-linejoin="round"/>
<path d="M137.17 70.3574L130.407 70.8956L129.073 77.3762" stroke="#120071" stroke-linecap="round" stroke-linejoin="round"/>
</svg>
