<svg width="42" height="42" viewBox="0 0 42 42" fill="none" xmlns="http://www.w3.org/2000/svg">
<path d="M19.9561 3.35826C18.3861 3.40282 17.148 4.62244 17.1918 6.08203C17.2398 7.78117 18.9573 8.94808 20.679 8.56582L20.587 7.46406C20.567 7.28146 20.5825 7.09663 20.6328 6.92014C20.683 6.74367 20.7668 6.57898 20.8796 6.43551C20.9924 6.29203 21.1319 6.17258 21.29 6.08398C21.4481 5.9954 21.622 5.93939 21.8014 5.91919L22.8679 5.82576C22.7801 4.41117 21.4938 3.31347 19.9561 3.35826Z" fill="#FECFC4"/>
<path fill-rule="evenodd" clip-rule="evenodd" d="M18.4702 31.8925L31.2682 30.7948C31.6177 30.7644 31.941 30.594 32.1671 30.3211C32.3935 30.0481 32.504 29.695 32.4745 29.3393L31.7315 20.4566C31.7017 20.1009 31.5343 19.7719 31.2661 19.5417C30.9981 19.3115 30.6511 19.199 30.3016 19.2288L23.4636 19.8144C23.3428 20.002 23.264 20.0997 23.0825 20.2449C22.8878 20.3964 22.6606 20.4987 22.4194 20.5432C22.1783 20.5877 21.9301 20.5731 21.6956 20.5007C21.461 20.4283 21.2467 20.3002 21.0705 20.1268C21.0393 20.0956 21.0082 20.0642 20.9771 20.0328L18.8438 20.2151C19.5515 22.7711 19.6258 24.5444 19.6778 27.0768C19.7208 27.8212 19.6207 28.5671 19.383 29.2722L18.4702 31.8925ZM25.9236 26.1116L27.214 26.7254L26.9822 23.9365L25.8119 24.7657C25.7708 24.503 25.6333 24.2661 25.4272 24.1024C25.2211 23.9387 24.9619 23.8607 24.7015 23.8838L22.2048 24.1034C22.069 24.1148 21.9368 24.1536 21.8156 24.2172C21.6945 24.2809 21.5871 24.3685 21.4996 24.4748C21.4118 24.5808 21.3459 24.7038 21.305 24.8362C21.2644 24.9684 21.2499 25.1077 21.2623 25.2459L21.3621 26.4244C21.3732 26.5626 21.4113 26.6971 21.4739 26.8204C21.5364 26.9436 21.6225 27.053 21.7269 27.1422C21.8311 27.2313 21.952 27.2986 22.0819 27.3402C22.212 27.3815 22.3488 27.3963 22.4846 27.3837L24.9771 27.1724C25.1127 27.1606 25.2449 27.1216 25.3657 27.0578C25.4866 26.9939 25.5937 26.9063 25.6813 26.8002C25.7689 26.6941 25.835 26.5714 25.8759 26.4392C25.9087 26.3329 25.9249 26.2221 25.9236 26.1111V26.1116Z" fill="#FECFC4"/>
<path d="M35.3026 20.4936C35.3135 20.5907 35.3053 20.689 35.2786 20.7828C35.2519 20.8767 35.2072 20.9642 35.1472 21.0404C35.087 21.1167 35.0127 21.1799 34.9285 21.2266C34.8443 21.2735 34.7516 21.3029 34.6563 21.313C34.5607 21.3232 34.4643 21.314 34.3723 21.2862C34.2803 21.2581 34.1946 21.212 34.1203 21.1501C34.0459 21.0882 33.9845 21.0121 33.9392 20.9259C33.8939 20.8398 33.8659 20.7453 33.8567 20.6481L33.7409 19.5339C33.7226 19.3397 33.7803 19.1459 33.9015 18.9948C34.023 18.8438 34.1979 18.7475 34.3887 18.7272C34.5792 18.7068 34.7702 18.7639 34.9196 18.8861C35.0691 19.0082 35.1651 19.1855 35.1868 19.3794L35.3026 20.4936Z" fill="#FECFC4"/>
<path d="M27.2898 7.06525C27.3517 7.2131 27.3986 7.36705 27.4296 7.52464C27.5494 7.26857 27.6201 6.99157 27.6378 6.7085C27.5138 6.8467 27.3978 6.96369 27.2898 7.06525Z" fill="#6153BD"/>
<path d="M16.429 12.6553C16.4633 12.8475 16.5281 13.0329 16.6207 13.204C16.9283 13.204 17.2679 13.1635 17.3517 13.0375C17.3637 13.0161 17.3757 12.9927 17.3877 12.9683C17.2719 13.2006 16.853 12.9649 16.429 12.6553Z" fill="#6153BD"/>
<path d="M5.85586 21.6968C5.1129 20.6113 0.387555 24.575 1.06652 25.575L1.18231 25.6807C2.16506 26.2377 6.43503 22.5506 5.85586 21.6968Z" fill="#6153BD"/>
<path d="M13.9404 35.6893C12.9695 36.1592 15.9722 41.6721 16.8878 40.889C17.4356 40.0799 14.7074 35.3154 13.9404 35.6893Z" fill="#6153BD"/>
<path d="M4.80522 25.144C4.7865 25.2141 4.78114 25.2874 4.78943 25.3596C4.82943 25.6197 5.15681 25.6319 5.3766 25.5709C5.22268 25.3838 5.02666 25.2375 4.80522 25.144Z" fill="#6153BD"/>
<path d="M6.92627 23.022C7.07806 23.2131 7.23385 23.4041 7.37365 23.5791C7.39706 23.511 7.41184 23.4398 7.41765 23.3679C7.42165 23.3068 7.40998 23.2455 7.38382 23.1904C7.35765 23.1352 7.31786 23.088 7.26834 23.0531C7.21884 23.0182 7.16128 22.9972 7.10135 22.9916C7.04139 22.9862 6.98107 22.9967 6.92627 23.022Z" fill="#6153BD"/>
<path d="M14.1962 14.7863C14.1519 14.7912 14.1101 14.8092 14.0759 14.8383C14.0417 14.8673 14.0168 14.906 14.0042 14.9495C13.9917 14.993 13.9921 15.0392 14.0054 15.0825C14.0187 15.1257 14.0443 15.164 14.0789 15.1924C14.1136 15.2208 14.1557 15.2382 14.2001 15.2422C14.2444 15.2463 14.2889 15.2368 14.328 15.2151C14.3671 15.1934 14.3989 15.1604 14.4196 15.1203C14.4402 15.0802 14.4487 15.0347 14.444 14.9897C14.4412 14.9596 14.4326 14.9304 14.4185 14.9038C14.4045 14.8771 14.3854 14.8537 14.3623 14.8347C14.3392 14.8158 14.3126 14.8017 14.284 14.7934C14.2555 14.7851 14.2256 14.7827 14.1962 14.7863Z" fill="#6153BD"/>
<path d="M12.5983 16.6757C12.554 16.6805 12.5122 16.6986 12.478 16.7276C12.4438 16.7567 12.4189 16.7954 12.4064 16.8388C12.3938 16.8823 12.3942 16.9286 12.4075 16.9718C12.4208 17.015 12.4464 17.0533 12.481 17.0817C12.5157 17.1102 12.5578 17.1275 12.6022 17.1315C12.6465 17.1356 12.691 17.1262 12.7301 17.1045C12.7691 17.0828 12.801 17.0498 12.8217 17.0097C12.8423 16.9695 12.8508 16.9241 12.8461 16.879C12.843 16.8491 12.8341 16.8201 12.8199 16.7936C12.8058 16.7672 12.7867 16.7439 12.7637 16.725C12.7406 16.7061 12.7142 16.692 12.6858 16.6835C12.6574 16.6751 12.6277 16.6724 12.5983 16.6757Z" fill="#6153BD"/>
<path d="M13.545 19.1722C13.5007 19.177 13.4589 19.195 13.4247 19.2241C13.3905 19.2531 13.3655 19.2918 13.3529 19.3352C13.3403 19.3787 13.3407 19.425 13.354 19.4682C13.3672 19.5115 13.3928 19.5498 13.4275 19.5782C13.4621 19.6067 13.5043 19.624 13.5486 19.6281C13.593 19.6322 13.6375 19.6227 13.6766 19.6011C13.7157 19.5794 13.7475 19.5464 13.7682 19.5062C13.7888 19.4661 13.7973 19.4206 13.7926 19.3755C13.7894 19.3456 13.7806 19.3167 13.7664 19.2902C13.7523 19.2638 13.7332 19.2405 13.7102 19.2217C13.6872 19.2028 13.6608 19.1887 13.6324 19.1802C13.6041 19.1717 13.5744 19.169 13.545 19.1722Z" fill="#6153BD"/>
<path d="M11.4678 16.245C11.4236 16.2498 11.3817 16.2678 11.3475 16.2968C11.3133 16.3258 11.2883 16.3645 11.2758 16.408C11.2632 16.4515 11.2636 16.4978 11.2768 16.541C11.2901 16.5843 11.3157 16.6225 11.3503 16.651C11.385 16.6794 11.4271 16.6968 11.4715 16.7009C11.5158 16.7049 11.5603 16.6955 11.5994 16.6738C11.6385 16.6521 11.6704 16.6191 11.691 16.579C11.7117 16.5388 11.7202 16.4934 11.7154 16.4483C11.7123 16.4184 11.7034 16.3894 11.6893 16.363C11.6752 16.3366 11.656 16.3133 11.633 16.2944C11.6101 16.2755 11.5836 16.2614 11.5553 16.253C11.5269 16.2445 11.4972 16.2417 11.4678 16.245Z" fill="#6153BD"/>
<path d="M16.0975 15.68C16.0532 15.6848 16.0113 15.7029 15.9771 15.7319C15.9429 15.761 15.918 15.7996 15.9054 15.8431C15.8928 15.8866 15.8932 15.9329 15.9065 15.9761C15.9198 16.0194 15.9454 16.0577 15.9801 16.0861C16.0147 16.1146 16.0569 16.1319 16.1013 16.1359C16.1456 16.14 16.1901 16.1305 16.2292 16.1088C16.2683 16.0871 16.3001 16.054 16.3208 16.0139C16.3414 15.9737 16.3498 15.9282 16.345 15.8831C16.3419 15.8533 16.333 15.8243 16.3189 15.7979C16.3047 15.7715 16.2856 15.7482 16.2626 15.7294C16.2396 15.7105 16.2132 15.6965 16.1849 15.688C16.1565 15.6795 16.1268 15.6768 16.0975 15.68Z" fill="#6153BD"/>
<path d="M14.7953 17.5336C14.751 17.5384 14.7091 17.5565 14.675 17.5856C14.6408 17.6146 14.6159 17.6533 14.6033 17.6968C14.5908 17.7403 14.5912 17.7866 14.6045 17.8298C14.6178 17.873 14.6434 17.9113 14.6781 17.9397C14.7128 17.9681 14.755 17.9855 14.7993 17.9895C14.8437 17.9935 14.8882 17.984 14.9272 17.9623C14.9663 17.9406 14.9981 17.9075 15.0188 17.8674C15.0394 17.8272 15.0478 17.7817 15.0431 17.7367C15.0399 17.7068 15.031 17.6778 15.0169 17.6514C15.0027 17.625 14.9836 17.6017 14.9606 17.5828C14.9376 17.5639 14.9111 17.5499 14.8827 17.5414C14.8544 17.533 14.8246 17.5303 14.7953 17.5336Z" fill="#6153BD"/>
<path d="M17.1321 18.3954C17.0879 18.4002 17.046 18.4182 17.0118 18.4472C16.9776 18.4762 16.9527 18.5149 16.9401 18.5584C16.9275 18.6019 16.9279 18.6481 16.9411 18.6914C16.9544 18.7346 16.98 18.7729 17.0146 18.8014C17.0493 18.8298 17.0914 18.8472 17.1358 18.8512C17.1801 18.8553 17.2246 18.8459 17.2637 18.8242C17.3028 18.8025 17.3347 18.7695 17.3553 18.7294C17.376 18.6892 17.3845 18.6438 17.3797 18.5987C17.3766 18.5688 17.3677 18.5398 17.3536 18.5134C17.3395 18.487 17.3203 18.4637 17.2973 18.4448C17.2744 18.4259 17.2479 18.4118 17.2196 18.4033C17.1912 18.3949 17.1615 18.3921 17.1321 18.3954Z" fill="#6153BD"/>
<path d="M18.1026 14.4523C18.0584 14.4571 18.0165 14.4752 17.9823 14.5042C17.9481 14.5332 17.9231 14.5719 17.9105 14.6154C17.898 14.6588 17.8983 14.7051 17.9116 14.7483C17.9249 14.7916 17.9504 14.8299 17.9851 14.8583C18.0197 14.8868 18.0619 14.9041 18.1062 14.9082C18.1506 14.9123 18.1951 14.9029 18.2342 14.8812C18.2733 14.8595 18.3052 14.8265 18.3258 14.7863C18.3465 14.7462 18.355 14.7007 18.3502 14.6557C18.3475 14.6256 18.3388 14.5964 18.3248 14.5698C18.3108 14.5432 18.2917 14.5197 18.2686 14.5008C18.2455 14.4818 18.2189 14.4678 18.1904 14.4594C18.1619 14.4511 18.1321 14.4487 18.1026 14.4523Z" fill="#6153BD"/>
<path d="M20.1956 18.2977C20.1514 18.3025 20.1095 18.3205 20.0753 18.3495C20.0411 18.3786 20.0161 18.4173 20.0036 18.4607C19.991 18.5042 19.9913 18.5505 20.0046 18.5937C20.0179 18.637 20.0434 18.6752 20.0781 18.7037C20.1128 18.7321 20.1549 18.7495 20.1993 18.7536C20.2436 18.7576 20.2881 18.7482 20.3272 18.7265C20.3663 18.7048 20.3982 18.6718 20.4188 18.6317C20.4395 18.5915 20.448 18.5461 20.4432 18.501C20.4368 18.4407 20.4072 18.3853 20.3608 18.3472C20.3144 18.3091 20.2549 18.2912 20.1956 18.2977Z" fill="#6153BD"/>
<path d="M20.2039 16.1638C20.2333 16.1606 20.2617 16.1516 20.2877 16.1372C20.3137 16.1228 20.3366 16.1034 20.3551 16.08C20.3737 16.0566 20.3875 16.0296 20.3959 16.0008C20.4042 15.9719 20.4068 15.9417 20.4037 15.9118C20.3958 15.8527 20.3656 15.799 20.3195 15.7622C20.2733 15.7254 20.2149 15.7083 20.1566 15.7147C20.0983 15.721 20.0448 15.7503 20.0074 15.7963C19.97 15.8422 19.9516 15.9011 19.9563 15.9606C19.9594 15.9905 19.9682 16.0195 19.9824 16.0459C19.9965 16.0723 20.0156 16.0957 20.0386 16.1145C20.0616 16.1334 20.088 16.1475 20.1164 16.1559C20.1448 16.1643 20.1745 16.167 20.2039 16.1638Z" fill="#6153BD"/>
<path d="M22.6446 18.7816C22.6003 18.7864 22.5584 18.8044 22.5241 18.8335C22.49 18.8625 22.465 18.9012 22.4526 18.9446C22.4399 18.9881 22.4403 19.0344 22.4536 19.0776C22.4669 19.1209 22.4923 19.1591 22.5271 19.1876C22.5616 19.2161 22.6039 19.2334 22.6481 19.2375C22.6926 19.2416 22.737 19.2321 22.7761 19.2104C22.8153 19.1887 22.8471 19.1557 22.8677 19.1156C22.8883 19.0754 22.8968 19.03 22.8921 18.9849C22.889 18.955 22.8801 18.926 22.866 18.8996C22.8519 18.8732 22.8328 18.8499 22.8098 18.831C22.7867 18.8121 22.7603 18.7981 22.7319 18.7896C22.7037 18.7811 22.6738 18.7784 22.6446 18.7816Z" fill="#6153BD"/>
<path d="M22.9241 16.3588C22.8799 16.3636 22.838 16.3816 22.8037 16.4106C22.7696 16.4397 22.7445 16.4784 22.7321 16.5219C22.7195 16.5653 22.7199 16.6116 22.7331 16.6549C22.7464 16.6981 22.7721 16.7364 22.8066 16.7649C22.8414 16.7933 22.8835 16.8106 22.9279 16.8147C22.9723 16.8187 23.0167 16.8092 23.0559 16.7875C23.0948 16.7658 23.1268 16.7328 23.1475 16.6926C23.1681 16.6524 23.1765 16.6069 23.1717 16.5619C23.1685 16.532 23.1597 16.503 23.1456 16.4766C23.1315 16.4502 23.1123 16.4269 23.0894 16.4081C23.0662 16.3892 23.0399 16.3751 23.0115 16.3667C22.9833 16.3582 22.9534 16.3555 22.9241 16.3588Z" fill="#6153BD"/>
<path d="M24.9211 15.5456C24.9165 15.5006 24.8986 15.458 24.8701 15.4232C24.8415 15.3884 24.8036 15.363 24.7609 15.3502C24.7181 15.3373 24.6727 15.3377 24.6301 15.3512C24.5876 15.3647 24.5501 15.3908 24.5221 15.426C24.4941 15.4613 24.4771 15.5042 24.4731 15.5493C24.4691 15.5944 24.4783 15.6398 24.4996 15.6796C24.5211 15.7193 24.5535 15.7518 24.5929 15.7728C24.6322 15.7938 24.6771 15.8025 24.7213 15.7976C24.7508 15.7944 24.7792 15.7854 24.8051 15.771C24.831 15.7566 24.8539 15.7372 24.8725 15.7138C24.891 15.6904 24.9049 15.6635 24.9133 15.6346C24.9215 15.6058 24.9242 15.5755 24.9211 15.5456Z" fill="#6153BD"/>
<path d="M31.5877 2.82539C31.5633 2.51018 31.4294 2.21413 31.2098 1.99047C30.9901 1.76682 30.6993 1.63023 30.3896 1.60523C30.0799 1.58024 29.7717 1.66849 29.5201 1.85414C29.2685 2.03976 29.0904 2.31061 29.0176 2.61798C28.6567 2.44706 28.2586 2.37358 27.8618 2.40465C27.4649 2.43572 27.0828 2.57028 26.7519 2.79537C26.4209 3.02046 26.1525 3.32847 25.9725 3.68977C25.7925 4.05107 25.707 4.45344 25.7241 4.85815C26.2051 4.72543 26.6997 4.649 27.1978 4.63038C27.2247 4.79691 27.262 4.96151 27.3096 5.1232C27.3536 5.22476 27.4214 5.2329 27.5411 5.04585C27.8089 4.65159 28.3521 5.2614 27.7169 5.733C27.991 6.21588 28.3393 6.65099 28.7485 7.02182C29.2502 6.85735 29.6822 6.52453 29.974 6.07774C30.2656 5.63097 30.3997 5.09669 30.3545 4.56224C30.3463 4.46417 30.3321 4.36673 30.3124 4.27041C30.3412 4.27056 30.3698 4.26891 30.3985 4.26548C30.5694 4.2504 30.7359 4.2012 30.8882 4.12066C31.0406 4.04014 31.1757 3.92985 31.2861 3.79613C31.3966 3.66241 31.4802 3.50785 31.5317 3.34128C31.5835 3.17473 31.6025 2.99942 31.5877 2.82539Z" fill="#6153BD"/>
<path d="M14.6594 24.2456L14.7034 25.8955L15.274 25.3712C15.0252 25.0225 14.8188 24.6448 14.6594 24.2456Z" fill="#6153BD"/>
<path d="M18.3264 16.7124L18.8936 17.5337L18.9256 18.5866L18.3264 16.7124Z" fill="#6153BD"/>
<path d="M17.3478 11.147C17.4173 11.1341 17.4799 11.0963 17.5246 11.0407C17.5693 10.985 17.593 10.9149 17.5916 10.843C17.5902 10.7711 17.5636 10.7021 17.5167 10.6483C17.4699 10.5945 17.4057 10.5595 17.3358 10.5494C17.3899 10.5092 17.4291 10.4516 17.4471 10.3859C17.4651 10.3202 17.4609 10.2502 17.4351 10.1873C17.4092 10.1243 17.3633 10.0721 17.3048 10.0389C17.2462 10.0058 17.1784 9.99364 17.1122 10.0045C17.1461 9.94725 17.1605 9.88019 17.1531 9.81374C17.1457 9.7473 17.1171 9.68518 17.0715 9.63701C17.0259 9.58885 16.966 9.55733 16.901 9.54734C16.8361 9.53736 16.7697 9.54946 16.7122 9.58177C16.7259 9.51357 16.7163 9.44265 16.6849 9.38079C16.6535 9.31895 16.6022 9.26991 16.5396 9.24188C16.477 9.21383 16.4068 9.20848 16.3408 9.22671C16.2748 9.24493 16.2169 9.28561 16.1768 9.34201C16.1703 9.26873 16.139 9.20004 16.0881 9.14778C16.0372 9.09552 15.97 9.06297 15.898 9.05573C15.8261 9.04851 15.7539 9.06704 15.694 9.10814C15.634 9.14925 15.5901 9.21036 15.5696 9.28094C15.5414 9.21763 15.4927 9.16607 15.4316 9.13486C15.3706 9.10364 15.3009 9.09464 15.2341 9.10936C15.1673 9.1241 15.1075 9.16166 15.0646 9.21581C15.0218 9.26995 14.9984 9.3374 14.9985 9.40693C14.9486 9.36331 14.8861 9.33757 14.8204 9.3337C14.7548 9.3298 14.6898 9.34797 14.6353 9.3854C14.5808 9.42283 14.5399 9.47745 14.5189 9.54085C14.4979 9.60425 14.498 9.6729 14.5191 9.73626C14.457 9.71274 14.3889 9.71096 14.3257 9.73125C14.2624 9.75154 14.2077 9.79272 14.1701 9.84828C14.1325 9.90384 14.1142 9.97059 14.118 10.0379C14.1219 10.1053 14.1478 10.1694 14.1915 10.2201C14.121 10.2161 14.0514 10.2377 13.995 10.2809C13.9386 10.3241 13.8991 10.3862 13.8833 10.4563C13.8675 10.5263 13.8766 10.5997 13.9089 10.6636C13.9411 10.7276 13.9946 10.7778 14.0597 10.8055C13.9905 10.8191 13.9282 10.8573 13.8841 10.9133C13.84 10.9693 13.8168 11.0394 13.8187 11.1112C13.8207 11.1829 13.8475 11.2516 13.8946 11.3051C13.9417 11.3585 14.0058 11.3933 14.0757 11.4031C14.0227 11.444 13.9847 11.5017 13.9677 11.5671C13.9508 11.6326 13.9558 11.7019 13.982 11.7641C14.0081 11.8263 14.054 11.8777 14.1123 11.9103C14.1706 11.9429 14.2379 11.9547 14.3035 11.9439C14.2704 12.0014 14.2568 12.0685 14.2648 12.1346C14.2729 12.2008 14.3021 12.2625 14.348 12.3101C14.3938 12.3577 14.4538 12.3887 14.5187 12.3981C14.5836 12.4076 14.6497 12.3951 14.7069 12.3625C14.6937 12.4306 14.7037 12.5012 14.7354 12.5626C14.7671 12.624 14.8185 12.6725 14.8811 12.7001C14.9436 12.7276 15.0135 12.7325 15.0792 12.714C15.1449 12.6955 15.2024 12.6546 15.242 12.5982C15.2455 12.649 15.2613 12.6981 15.288 12.7411C15.3147 12.7841 15.3515 12.8197 15.395 12.8447C15.4386 12.8697 15.4875 12.8833 15.5375 12.8843C15.5875 12.8853 15.6369 12.8737 15.6814 12.8504C15.7174 12.8056 16.2077 12.1918 16.3806 11.9681C15.9572 11.4804 16.3086 11.1633 16.5364 11.4845C16.6562 11.6593 16.8311 11.6105 16.728 11.09C16.8603 11.0314 16.9872 10.9607 17.1069 10.8787C17.1911 11.2079 17.2543 11.4885 17.3065 11.7242C17.3672 11.7081 17.4213 11.673 17.4614 11.6239C17.5015 11.5749 17.5255 11.5143 17.53 11.4506C17.5346 11.387 17.5194 11.3235 17.4868 11.2691C17.4541 11.2146 17.4055 11.1719 17.3478 11.147Z" fill="#6153BD"/>
<path d="M17.3077 11.7242C17.2559 11.4885 17.1919 11.208 17.1081 10.8787C16.9884 10.9606 16.8616 11.0313 16.7292 11.0899C16.8332 11.6104 16.6587 11.6582 16.5376 11.4844C16.3123 11.1613 15.9584 11.4803 16.3818 11.968C16.21 12.1917 15.7186 12.8056 15.6826 12.8503C15.6382 12.8736 15.5887 12.8852 15.5387 12.8842C15.4887 12.8832 15.4398 12.8696 15.3962 12.8446C15.3527 12.8196 15.3159 12.784 15.2892 12.741C15.2625 12.698 15.2467 12.6489 15.2433 12.5982C15.2036 12.6545 15.1461 12.6954 15.0804 12.7139C15.0148 12.7324 14.9448 12.7275 14.8823 12.7C14.8197 12.6724 14.7683 12.6239 14.7366 12.5625C14.705 12.5011 14.6949 12.4305 14.7081 12.3625C14.6509 12.395 14.5848 12.4075 14.5199 12.398C14.4551 12.3886 14.3951 12.3576 14.3492 12.31C14.3033 12.2624 14.2741 12.2007 14.2661 12.1346C14.258 12.0684 14.2716 12.0013 14.3047 11.9438C14.2391 11.9546 14.1718 11.9428 14.1135 11.9102C14.0553 11.8776 14.0094 11.8261 13.9832 11.764C13.957 11.7018 13.952 11.6324 13.969 11.567C13.986 11.5016 14.024 11.4439 14.0769 11.403C14.0071 11.3932 13.9429 11.3585 13.8958 11.305C13.8488 11.2515 13.8219 11.1828 13.8199 11.1111C13.818 11.0393 13.8412 10.9692 13.8853 10.9132C13.9295 10.8572 13.9917 10.819 14.0609 10.8054C13.9958 10.7777 13.9424 10.7274 13.9101 10.6635C13.8778 10.5997 13.8687 10.5262 13.8845 10.4562C13.9003 10.3861 13.9399 10.324 13.9962 10.2808C14.0526 10.2376 14.1222 10.216 14.1927 10.22C14.149 10.1693 14.1231 10.1052 14.1192 10.0378C14.1154 9.97048 14.1337 9.90373 14.1713 9.84819C14.2089 9.79264 14.2637 9.75145 14.3269 9.73116C14.3901 9.71087 14.4582 9.71263 14.5203 9.73618C14.4998 9.67299 14.5001 9.60472 14.5213 9.54175C14.5425 9.4788 14.5832 9.42459 14.6375 9.38741C14.6917 9.35024 14.7564 9.33213 14.8216 9.33582C14.8869 9.33952 14.9492 9.36485 14.9991 9.40792C14.999 9.33839 15.0224 9.27091 15.0652 9.21677C15.1081 9.16264 15.1679 9.12506 15.2347 9.11034C15.3015 9.09562 15.3712 9.1046 15.4322 9.13582C15.4933 9.16704 15.542 9.21861 15.5702 9.28193C15.5906 9.21135 15.6346 9.15024 15.6946 9.10912C15.7545 9.068 15.8267 9.04947 15.8986 9.05671C15.9706 9.06395 16.0378 9.0965 16.0887 9.14876C16.1396 9.20102 16.1709 9.26971 16.1774 9.34299C16.2175 9.2866 16.2754 9.24591 16.3414 9.22768C16.4074 9.20946 16.4776 9.21482 16.5402 9.24287C16.6028 9.27089 16.6541 9.31992 16.6855 9.38178C16.7169 9.44364 16.7265 9.51456 16.7128 9.58276C16.7703 9.55045 16.8367 9.53834 16.9016 9.54833C16.9666 9.55831 17.0265 9.58983 17.0721 9.638C17.1177 9.68616 17.1463 9.74828 17.1537 9.81473C17.1611 9.88117 17.1467 9.94824 17.1128 10.0055C17.1789 9.99463 17.2468 10.0067 17.3053 10.0399C17.3639 10.073 17.4098 10.1253 17.4356 10.1882C17.4615 10.2512 17.4657 10.3211 17.4477 10.3868C17.4297 10.4525 17.3905 10.5102 17.3364 10.5504C17.4063 10.5604 17.4705 10.5955 17.5173 10.6493C17.5642 10.7031 17.5907 10.7721 17.5922 10.844C17.5936 10.9159 17.5699 10.9859 17.5252 11.0416C17.4805 11.0973 17.4179 11.135 17.3484 11.148C17.4057 11.1731 17.4539 11.2157 17.4864 11.27C17.5188 11.3242 17.5338 11.3874 17.5294 11.4508C17.5249 11.5141 17.5011 11.5745 17.4614 11.6235C17.4217 11.6725 17.368 11.7077 17.3077 11.7242Z" stroke="#120071" stroke-linecap="round" stroke-linejoin="round"/>
<path d="M17.3557 10.0575L18.4263 9.96811C18.5541 9.95675 18.6828 9.97122 18.8051 10.0107C18.9274 10.0502 19.0408 10.1139 19.1388 10.1981C19.2368 10.2824 19.3175 10.3855 19.3762 10.5016C19.4349 10.6177 19.4704 10.7445 19.4808 10.8747L19.7724 14.4399" stroke="#120071" stroke-linecap="round" stroke-linejoin="round"/>
<path d="M18.9653 18.5296L19.1291 18.5174C19.2721 18.5158 19.4118 18.4736 19.5325 18.3955" stroke="#120071" stroke-linecap="round" stroke-linejoin="round"/>
<path d="M11.5519 19.1629L9.403 19.3499C9.14512 19.3719 8.88924 19.2887 8.69153 19.1188C8.49385 18.9489 8.37054 18.706 8.34866 18.4436L7.80129 11.8739C7.7796 11.6114 7.86126 11.3508 8.0283 11.1496C8.19533 10.9483 8.4341 10.8228 8.69204 10.8006L13.9464 10.3501" stroke="#120071" stroke-linecap="round" stroke-linejoin="round"/>
<path d="M18.4702 31.8925L31.2682 30.7948C31.6177 30.7644 31.941 30.594 32.1671 30.3211C32.3935 30.0481 32.504 29.695 32.4745 29.3393L31.7315 20.4566C31.7017 20.1009 31.5343 19.7719 31.2661 19.5417C30.9981 19.3115 30.6511 19.199 30.3016 19.2288L23.4636 19.8144" stroke="#120071" stroke-linecap="round" stroke-linejoin="round"/>
<path d="M18.8496 20.2128L20.9747 20.0298" stroke="#120071" stroke-linecap="round" stroke-linejoin="round"/>
<path d="M25.7441 5.57275L21.7975 5.91837C21.436 5.95942 21.1053 6.14461 20.8776 6.43336C20.65 6.72213 20.5441 7.09091 20.5831 7.45895L21.3741 16.7239" stroke="#120071" stroke-linecap="round" stroke-linejoin="round"/>
<path d="M24.2261 18.0826L36.1973 17.0296C36.4629 17.0052 36.7154 16.8998 36.9213 16.7272C37.1272 16.5546 37.2771 16.3228 37.3516 16.062" stroke="#120071" stroke-linecap="round" stroke-linejoin="round"/>
<path d="M36.9684 10.2566L36.6128 6.04907C36.589 5.67941 36.4223 5.33444 36.149 5.08979C35.8755 4.84514 35.5181 4.72076 35.1549 4.74396L30.3337 5.16693" stroke="#120071" stroke-linecap="round" stroke-linejoin="round"/>
<path d="M32.5862 11.4805C32.1748 12.1389 31.3081 14.062 30.8047 15.3099C31.771 15.6943 32.5854 16.3933 33.1205 17.2978" stroke="#120071" stroke-linecap="round" stroke-linejoin="round"/>
<path d="M26.1514 13.5864C26.2975 14.3521 26.4882 15.1082 26.7225 15.8508C26.5027 16.6922 26.415 17.4402 26.3112 17.8996" stroke="#120071" stroke-linecap="round" stroke-linejoin="round"/>
<path d="M26.5349 10.4561C26.2332 10.9294 26.0572 11.4742 26.0237 12.0374" stroke="#120071" stroke-linecap="round" stroke-linejoin="round"/>
<path d="M30.8008 15.314C29.6745 16.1393 27.5454 16.5781 26.7227 15.8507" stroke="#120071" stroke-linecap="round" stroke-linejoin="round"/>
<path d="M30.2896 15.627C30.8904 16.1052 31.3719 16.7208 31.6953 17.4238" stroke="#120071" stroke-linecap="round" stroke-linejoin="round"/>
<path d="M27.4323 7.51993C27.5502 7.26493 27.6199 6.98968 27.6378 6.7085C27.514 6.8467 27.3978 6.96369 27.2898 7.06525" stroke="#120071" stroke-linecap="round" stroke-linejoin="round"/>
<path d="M32.0152 12.5698L33.4454 15.0292C34.5517 17.0701 36.856 17.712 38.3025 14.6634C38.9853 13.2242 39.3091 12.2568 39.9082 11.2566C38.9284 10.9723 38.0362 10.4378 37.3166 9.70378C36.6515 10.7225 36.0602 11.789 35.5469 12.8949C32.651 6.63033 32.2955 7.73488 30.3662 7.62624C29.7775 7.60972 29.2106 7.39689 28.7524 7.02051" stroke="#120071" stroke-linecap="round" stroke-linejoin="round"/>
<path d="M24.5337 12.6185C25.1049 10.6428 26.3845 9.72956 26.9462 9.10626C27.2104 8.84828 27.3866 8.51079 27.4483 8.14342C27.5102 7.77604 27.4546 7.39818 27.2897 7.06536C26.2832 7.96785 25.728 7.24834 25.728 4.8584" stroke="#120071" stroke-linecap="round" stroke-linejoin="round"/>
<path d="M30.6091 7.63477C29.8085 8.28961 29.0859 9.03749 28.456 9.86315C28.3573 9.98822 28.2284 10.0851 28.0819 10.1443C27.9354 10.2035 27.7762 10.223 27.62 10.2009C27.464 10.1789 27.316 10.1159 27.1909 10.0183C27.0659 9.92068 26.9678 9.79169 26.9063 9.64396C26.8549 9.52182 26.8103 9.40826 26.7705 9.29834" stroke="#120071" stroke-linecap="round" stroke-linejoin="round"/>
<path d="M35.5462 12.895L35.071 13.9846" stroke="#120071" stroke-linecap="round" stroke-linejoin="round"/>
<path d="M15.6819 12.8506C15.1236 13.5791 14.7284 13.5313 13.6768 14.0091C11.5357 14.9808 12.2707 18.8754 12.2707 18.8754" stroke="#120071" stroke-linecap="round" stroke-linejoin="round"/>
<path d="M17.3076 11.7241C17.4821 12.5476 17.4663 12.8627 17.3516 13.0331C17.2674 13.1593 16.9282 13.1998 16.6206 13.1998" stroke="#120071" stroke-linecap="round" stroke-linejoin="round"/>
<path d="M17.3883 12.9649C17.2766 13.2006 16.8525 12.9649 16.429 12.6519C16.509 13.026 16.5647 13.4742 16.8643 13.4933C19.52 13.6628 19.8004 13.969 22.1051 17.9929" stroke="#120071" stroke-linecap="round" stroke-linejoin="round"/>
<path d="M21.8216 17.4929C21.9214 17.2084 22.5405 15.9114 22.9001 14.7407C23.6875 14.6544 24.4789 14.864 25.125 15.3301C24.8772 16.5253 24.1585 18.3387 23.5391 19.6714C23.4338 19.8967 23.2774 20.0932 23.0827 20.2448C22.8879 20.3963 22.6608 20.4986 22.4195 20.543C22.1784 20.5875 21.9302 20.573 21.6957 20.5006C21.4612 20.4282 21.2468 20.3 21.0706 20.1267C20.0365 19.0918 19.1176 17.9441 18.3306 16.7042" stroke="#120071" stroke-linecap="round" stroke-linejoin="round"/>
<path d="M18.3345 16.7041L18.9256 18.5864" stroke="#120071" stroke-linecap="round" stroke-linejoin="round"/>
<path d="M13.9688 20.1232C15.1551 20.5088 17.1842 20.3629 18.7701 19.9239C19.0097 19.4441 18.9099 17.5498 18.9099 17.5498" stroke="#120071" stroke-linecap="round" stroke-linejoin="round"/>
<path d="M13.9565 20.0299C13.4453 20.7779 12.4407 20.8056 11.9792 20.0259C11.3977 19.0402 11.1485 17.6355 11.0247 16.0743C11.0247 16.0743 11.9299 15.7795 12.3089 15.895" stroke="#120071" stroke-linecap="round" stroke-linejoin="round"/>
<path d="M15.2741 25.3711L11.0561 29.1722C10.7771 29.422 10.4186 29.5605 10.047 29.562C9.67543 29.5632 9.31591 29.4276 9.03502 29.1801L4.88525 25.5262" stroke="#120071" stroke-linecap="round" stroke-linejoin="round"/>
<path d="M10.4614 26.1076L7.32178 23.0952" stroke="#120071" stroke-linecap="round" stroke-linejoin="round"/>
<path d="M13.3133 16.0459C13.3133 16.0459 14.008 18.8957 13.9645 20.1965C13.1193 20.6854 12.4662 21.4568 12.116 22.3797C11.6059 23.7825 9.83911 25.4895 9.83911 25.4895" stroke="#120071" stroke-linecap="round" stroke-linejoin="round"/>
<path d="M18.7697 19.9243C19.5525 22.6359 19.6304 24.4454 19.6843 27.071C19.7273 27.8154 19.6272 28.561 19.3895 29.2664L17.5602 34.5025C16.4414 34.3829 15.3659 33.9972 14.4206 33.3765L16.2501 28.0427C16.2854 27.1316 15.985 26.2401 15.408 25.5426C14.8367 24.8345 14.4789 23.9731 14.3774 23.0627" stroke="#120071" stroke-linecap="round" stroke-linejoin="round"/>
<path d="M14.7634 13.5739C14.7634 13.5739 15.4024 14.2894 16.9203 13.4966" stroke="#120071" stroke-linecap="round" stroke-linejoin="round"/>
<path d="M11.3401 15.9809C11.3276 15.3606 11.2594 14.7428 11.1363 14.1352C11.0185 13.6675 10.8496 13.2148 10.6329 12.7853C10.315 12.1545 10.4182 11.9837 10.9287 12.5577C11.4329 13.2019 11.8481 13.9131 12.1628 14.6717" stroke="#120071" stroke-linecap="round" stroke-linejoin="round"/>
<path d="M11.9856 14.2699C12.2393 14.5626 12.3911 13.6699 12.4864 13.4724C12.6182 13.2001 12.7812 12.9035 12.77 13.7409C12.7669 13.9725 12.794 14.3425 12.83 14.7083" stroke="#120071" stroke-linecap="round" stroke-linejoin="round"/>
<path d="M10.8967 13.3828C10.781 13.2527 10.5178 12.9928 10.4414 12.9193C10.0923 12.5795 10.0228 12.6993 10.0624 12.7694C10.214 13.0398 10.4982 13.4563 10.6308 13.7121C10.8431 14.1265 11.2738 14.9155 11.2978 15.3219" stroke="#120071" stroke-linecap="round" stroke-linejoin="round"/>
<path d="M10.6171 13.688C10.5491 13.6393 10.4929 13.5993 10.4613 13.5783C10.0567 13.3098 10.014 13.4319 10.0613 13.4926C10.2531 13.7364 10.6013 14.0976 10.7725 14.3299C10.9735 14.6161 11.1473 14.921 11.2917 15.2406" stroke="#120071" stroke-linecap="round" stroke-linejoin="round"/>
<path d="M24.9372 15.1959C25.1515 14.5457 25.4214 13.9159 25.7442 13.3138C26.0172 12.8594 26.3402 12.4379 26.7067 12.0575C27.2448 11.5004 27.1909 11.281 26.4671 11.716C25.7288 12.2292 25.0623 12.8418 24.4858 13.5373" stroke="#120071" stroke-linecap="round" stroke-linejoin="round"/>
<path d="M24.8217 13.1518C24.4188 13.4576 24.5674 12.4132 24.5297 12.1675C24.479 11.8379 24.4059 11.4683 24.1461 12.3586C24.0743 12.6022 23.7825 13.3573 23.2324 14.7203" stroke="#120071" stroke-linecap="round" stroke-linejoin="round"/>
<path d="M26.2352 12.5982C26.399 12.4967 26.7586 12.3137 26.8623 12.261C27.3417 12.0169 27.3731 12.171 27.3137 12.2284C27.068 12.466 26.635 12.8101 26.415 13.0373C26.06 13.4039 25.3524 14.0942 25.1926 14.5172" stroke="#120071" stroke-linecap="round" stroke-linejoin="round"/>
<path d="M26.4349 13.0174C26.5227 12.9889 26.5947 12.9647 26.6347 12.9532C27.1468 12.7935 27.1537 12.9487 27.0821 12.9979C26.8013 13.1908 26.3196 13.458 26.0634 13.6482C25.7602 13.884 25.4796 14.1481 25.2246 14.437" stroke="#120071" stroke-linecap="round" stroke-linejoin="round"/>
<path d="M5.85608 21.6965C5.14512 20.6571 0.78692 24.2428 1.0084 25.4299C1.04271 25.6137 1.19893 25.7783 1.56336 25.7279C2.96402 25.5349 6.38135 22.4657 5.85608 21.6965Z" stroke="#120071" stroke-linecap="round" stroke-linejoin="round"/>
<path d="M5.85596 21.6968C6.07554 21.9813 6.8305 22.9001 7.36988 23.5823" stroke="#120071" stroke-linecap="round" stroke-linejoin="round"/>
<path d="M17.1201 34.4453C16.9516 35.0915 16.0064 36.51 16.7325 38.3276C17.1045 39.2584 17.3197 40.6158 16.8167 40.9573" stroke="#120071" stroke-linecap="round" stroke-linejoin="round"/>
<path d="M13.8127 35.8114C13.9323 35.5372 14.3671 34.5366 14.7555 33.6045" stroke="#120071" stroke-linecap="round" stroke-linejoin="round"/>
<path d="M13.9405 35.6894C13.0475 36.1216 15.4315 40.5651 16.525 40.9705C16.8271 41.0826 16.9715 40.8634 16.9595 40.537C16.9098 39.1794 14.6309 35.356 13.9405 35.6894Z" stroke="#120071" stroke-linecap="round" stroke-linejoin="round"/>
<path d="M6.92248 23.022C6.97724 22.9967 7.03751 22.9862 7.09745 22.9916C7.15739 22.997 7.21491 23.0182 7.2644 23.0531C7.3139 23.0878 7.35367 23.1352 7.37981 23.1902C7.40598 23.2455 7.41762 23.3066 7.41365 23.3676C7.34754 24.2247 5.78309 25.6929 5.07971 25.6063C4.86917 25.5802 4.7357 25.4287 4.80602 25.1403" stroke="#120071" stroke-linecap="round" stroke-linejoin="round"/>
<path d="M17.3113 32.9888L18.5372 29.0426C18.7499 28.426 18.8396 27.7723 18.8008 27.1198C18.6309 24.2947 18.4254 22.1113 17.926 20.1235" stroke="#120071" stroke-linecap="round" stroke-linejoin="round"/>
<path d="M14.9189 31.9209C15.8257 32.6231 16.9239 33.0222 18.0626 33.0634" stroke="#120071" stroke-linecap="round" stroke-linejoin="round"/>
<path d="M6.06738 26.567C7.27772 26.1725 7.95689 25.2814 8.36427 24.1196" stroke="#120071" stroke-linecap="round" stroke-linejoin="round"/>
<path d="M14.6594 24.2456L11.2602 27.3109C10.9806 27.5644 10.6196 27.7052 10.2452 27.7067C9.87072 27.7082 9.50862 27.5704 9.2271 27.3191L7.43359 25.7172" stroke="#120071" stroke-linecap="round" stroke-linejoin="round"/>
<path d="M15.2345 21.2044C15.1827 21.2126 15.1067 22.2372 15.2425 22.6518C15.5023 23.0171 15.8343 23.3233 16.2173 23.5502C16.4363 23.1789 16.6993 22.8361 17.0002 22.5299C16.9602 22.0135 16.9122 21.7412 16.8564 21.1963C16.3187 21.2745 15.773 21.2773 15.2345 21.2044Z" stroke="#120071" stroke-linecap="round" stroke-linejoin="round"/>
<path d="M12.9698 20.9976C13.1748 21.0006 13.3762 21.0535 13.5569 21.152C13.1894 21.3348 12.818 22.2662 12.818 22.2662L11.999 22.6648" stroke="#120071" stroke-linecap="round" stroke-linejoin="round"/>
<path d="M38.9573 7.71533C39.5889 7.91846 39.94 8.24779 40.3468 8.77639" stroke="#120071" stroke-linecap="round" stroke-linejoin="round"/>
<path d="M38.8018 8.0166C39.0222 8.24428 39.1936 8.51621 39.3049 8.81503C39.4163 9.11385 39.4651 9.433 39.4487 9.75217" stroke="#120071" stroke-linecap="round" stroke-linejoin="round"/>
<path d="M40.0159 8.37438C40.261 8.04578 40.466 7.68813 40.6264 7.30926C40.9212 6.60603 41.1018 6.80123 40.938 7.46782C40.894 7.64673 40.8502 7.80122 40.8102 7.93128C40.6949 8.30539 40.5812 8.68314 40.4746 9.06154C40.3616 9.46351 39.6115 11.1633 39.6115 11.1633C38.9085 10.9722 38.1776 10.4519 37.6064 9.97218C37.6184 9.94775 37.9222 9.37887 37.9338 9.3583C37.9957 9.24459 38.022 9.11438 38.0091 8.98507C37.9963 8.85578 37.9449 8.73354 37.862 8.63472C37.5731 8.28203 37.1864 7.75622 37.3146 7.61416C37.5135 7.39411 38.1413 8.13826 38.4769 8.18347C38.5967 8.19954 38.6927 7.82972 38.7125 7.69558C38.7487 7.45175 38.8748 6.6221 38.8843 6.54111C38.9712 5.78731 39.2359 5.91502 39.2319 6.58161C39.2279 7.21584 39.2279 7.62638 39.2279 7.62638" stroke="#120071" stroke-linecap="round" stroke-linejoin="round"/>
<path d="M39.1772 7.78892C39.1772 7.78892 39.6128 6.39875 39.6404 6.30511C39.857 5.57767 40.0842 5.74416 39.976 6.39853C39.8724 7.02484 39.7602 7.78892 39.7602 7.78892" stroke="#120071" stroke-linecap="round" stroke-linejoin="round"/>
<path d="M39.6533 8.0129C39.8617 7.58773 40.0458 7.1506 40.2045 6.70372C40.4634 5.98807 40.6538 6.17084 40.5321 6.82178C40.4653 7.22647 40.3706 7.62587 40.2485 8.01697" stroke="#120071" stroke-linecap="round" stroke-linejoin="round"/>
<path d="M35.3026 20.4931C35.3135 20.5902 35.3053 20.6885 35.2786 20.7823C35.2519 20.8762 35.2072 20.9637 35.1472 21.0399C35.087 21.1162 35.0127 21.1794 34.9285 21.2261C34.8443 21.273 34.7516 21.3024 34.6563 21.3125C34.5607 21.3228 34.4643 21.3135 34.3723 21.2857C34.2803 21.2576 34.1946 21.2115 34.1203 21.1496C34.0459 21.0877 33.9845 21.0116 33.9392 20.9254C33.8939 20.8393 33.8659 20.7448 33.8567 20.6476L33.7409 19.5334C33.7226 19.3392 33.7803 19.1454 33.9015 18.9943C34.023 18.8433 34.1979 18.7471 34.3887 18.7267C34.5792 18.7063 34.7702 18.7634 34.9196 18.8856C35.0691 19.0077 35.1651 19.185 35.1868 19.3789L35.3026 20.4931Z" stroke="#120071" stroke-linecap="round" stroke-linejoin="round"/>
<path d="M33.2654 20.2004L33.3212 20.7491C33.3384 20.9178 33.3883 21.0815 33.4677 21.2306C33.5471 21.3797 33.6547 21.5115 33.7841 21.6182C33.9134 21.7251 34.0625 21.8048 34.222 21.8533C34.3818 21.9015 34.5494 21.9173 34.7151 21.8998C34.881 21.882 35.0416 21.8314 35.1882 21.7506C35.3347 21.6696 35.4642 21.5604 35.5692 21.4286C35.6741 21.2968 35.7526 21.1453 35.8 20.9827C35.8473 20.8201 35.8629 20.6496 35.8456 20.4809L35.7899 19.9321" stroke="#120071" stroke-linecap="round" stroke-linejoin="round"/>
<path d="M34.7153 21.8999L34.8231 22.9243" stroke="#120071" stroke-linecap="round" stroke-linejoin="round"/>
<path d="M34.2839 22.9812L35.3585 22.8672" stroke="#120071" stroke-linecap="round" stroke-linejoin="round"/>
<path d="M25.9236 26.1116L27.2139 26.7254L26.9821 23.9365L25.8118 24.7657" stroke="#120071" stroke-linecap="round" stroke-linejoin="round"/>
<path d="M24.7016 23.8839C24.962 23.8607 25.2212 23.9387 25.4273 24.1024C25.6334 24.2661 25.7709 24.5031 25.8119 24.7658L25.9197 26.03C25.9317 26.168 25.9168 26.307 25.8759 26.4392C25.8351 26.5714 25.769 26.6942 25.6814 26.8003C25.5938 26.9063 25.4867 26.994 25.3658 27.0578C25.245 27.1217 25.1128 27.1607 24.9772 27.1725L22.4847 27.3837C22.3489 27.3964 22.2121 27.3816 22.082 27.3402C21.9521 27.2987 21.8312 27.2314 21.727 27.1422C21.6226 27.0531 21.5365 26.9436 21.4739 26.8204C21.4114 26.6972 21.3733 26.5627 21.3622 26.4245L21.2624 25.246C21.2499 25.1078 21.2645 24.9685 21.3051 24.8363C21.3459 24.7039 21.4118 24.5809 21.4996 24.4748C21.5872 24.3686 21.6946 24.2809 21.8156 24.2173C21.9369 24.1536 22.0691 24.1149 22.2049 24.1035L24.7016 23.8839Z" stroke="#120071" stroke-linecap="round" stroke-linejoin="round"/>
<path d="M31.5878 2.82544C31.5629 2.51102 31.429 2.21587 31.2099 1.99279C30.9907 1.7697 30.7008 1.63324 30.3917 1.60783C30.0829 1.58242 29.7751 1.66972 29.5237 1.8541C29.2721 2.03847 29.0934 2.3079 29.0193 2.61417C29.3473 2.76816 29.6353 2.9979 29.8608 3.28515C30.0863 3.57238 30.2427 3.90918 30.3176 4.26875C30.4959 4.26455 30.6715 4.22317 30.8336 4.14717C30.9957 4.07119 31.1406 3.96219 31.2598 3.82695C31.3787 3.6917 31.4692 3.53304 31.5257 3.36079C31.5821 3.18854 31.6031 3.00632 31.5878 2.82544Z" stroke="#120071" stroke-linecap="round" stroke-linejoin="round"/>
<path d="M30.3536 4.56141C30.3033 3.94554 30.0178 3.3743 29.5582 2.97032C29.0989 2.56634 28.502 2.36182 27.8959 2.40067C27.29 2.43952 26.723 2.71862 26.3169 3.1781C25.911 3.63757 25.698 4.24076 25.7241 4.85817C26.2051 4.72545 26.6997 4.64902 27.1978 4.6304C27.2247 4.79693 27.262 4.96153 27.3096 5.12322C27.3536 5.22478 27.4214 5.23293 27.5412 5.04587C27.809 4.65162 28.3521 5.26142 27.7169 5.73303C27.9911 6.2159 28.3393 6.65101 28.7485 7.02185C29.2502 6.85718 29.6823 6.52417 29.9738 6.07723C30.2652 5.63028 30.3993 5.09588 30.3536 4.56141Z" stroke="#120071" stroke-linecap="round" stroke-linejoin="round"/>
<path d="M3.60693 18.2818L4.44169 18.1963" stroke="#120071" stroke-linecap="round" stroke-linejoin="round"/>
<path d="M5.91968 18.0418L6.75464 17.9565" stroke="#120071" stroke-linecap="round" stroke-linejoin="round"/>
<path d="M5.021 16.5171L5.105 17.3669" stroke="#120071" stroke-linecap="round" stroke-linejoin="round"/>
<path d="M5.25684 18.8711L5.34063 19.7207" stroke="#120071" stroke-linecap="round" stroke-linejoin="round"/>
<path d="M3.95459 17.103L4.60555 17.6396" stroke="#120071" stroke-linecap="round" stroke-linejoin="round"/>
<path d="M5.75586 18.5947L6.40703 19.1353" stroke="#120071" stroke-linecap="round" stroke-linejoin="round"/>
<path d="M6.17948 16.8711L5.6521 17.5338" stroke="#120071" stroke-linecap="round" stroke-linejoin="round"/>
<path d="M4.7133 18.7046L4.18213 19.3673" stroke="#120071" stroke-linecap="round" stroke-linejoin="round"/>
<path d="M22.948 8.54942L22.4638 7.34609C22.7598 6.89821 22.903 6.36365 22.8712 5.82479C22.7834 4.41062 21.493 3.3125 19.9553 3.35728C18.3854 3.40185 17.1473 4.62146 17.1911 6.08105C17.2346 7.62185 18.6509 8.7249 20.1981 8.63212C20.7523 8.59656 21.2867 8.40894 21.7446 8.08917L22.948 8.54942Z" stroke="#120071" stroke-linecap="round" stroke-linejoin="round"/>
<path d="M13.7449 7.93554C13.671 8.00754 13.5779 8.05564 13.4771 8.07375C13.3764 8.09185 13.2727 8.07917 13.1791 8.03728C13.0855 7.99539 13.0061 7.92618 12.9512 7.83839C12.8962 7.75063 12.868 7.64823 12.8702 7.54416C12.8724 7.44011 12.9049 7.33904 12.9636 7.25379C13.0222 7.16851 13.1044 7.10283 13.1997 7.0651C13.295 7.02737 13.3992 7.01925 13.4991 7.04175C13.5989 7.06427 13.6899 7.11642 13.7607 7.1916C13.8552 7.29255 13.9066 7.42749 13.9036 7.5669C13.9007 7.7063 13.8436 7.83884 13.7449 7.93554Z" stroke="#120071" stroke-linecap="round" stroke-linejoin="round"/>
<path d="M35.1067 1L35.2865 3.21981" stroke="#120071" stroke-linecap="round" stroke-linejoin="round"/>
<path d="M36.289 2.01611L34.1082 2.20317" stroke="#120071" stroke-linecap="round" stroke-linejoin="round"/>
<path d="M5.37648 25.5708C5.22445 25.3812 5.02826 25.2331 4.80573 25.1401C4.41835 24.9977 4.03835 25.1236 3.58697 25.2539C2.67748 25.511 1.70251 26.0694 1.19092 25.684" stroke="#120071" stroke-linecap="round" stroke-linejoin="round"/>
<path d="M14.7034 25.8961L14.6594 24.2456" stroke="#120071" stroke-linecap="round" stroke-linejoin="round"/>
</svg>
