<svg width="191" height="188" viewBox="0 0 191 188" fill="none" xmlns="http://www.w3.org/2000/svg">
<path d="M90.5897 11.95C83.17 12.157 77.3184 17.8205 77.5253 24.5984C77.7522 32.4888 85.8694 37.9076 94.0065 36.1325L93.5717 31.0162C93.4771 30.1682 93.5505 29.31 93.7878 28.4904C94.0251 27.6709 94.4215 26.9061 94.9546 26.2399C95.4876 25.5736 96.1469 25.0189 96.8941 24.6075C97.6414 24.1962 98.4632 23.9361 99.311 23.8422L104.352 23.4084C103.937 16.8394 97.8573 11.742 90.5897 11.95Z" fill="#FECFC4"/>
<path fill-rule="evenodd" clip-rule="evenodd" d="M83.5669 144.456L144.052 139.359C145.704 139.218 147.232 138.427 148.301 137.159C149.37 135.891 149.893 134.252 149.753 132.6L146.242 91.3512C146.101 89.6995 145.31 88.1716 144.042 87.1027C142.775 86.0337 141.136 85.5113 139.484 85.6499L107.166 88.3692C106.595 89.2401 106.223 89.6938 105.365 90.3681C104.445 91.0718 103.371 91.5466 102.231 91.7533C101.092 91.9599 99.9188 91.8922 98.8104 91.5561C97.702 91.2199 96.6891 90.6248 95.8562 89.8199C95.709 89.6747 95.5617 89.5291 95.4148 89.383L85.3326 90.2299C88.6771 102.099 89.0284 110.334 89.274 122.094C89.4775 125.55 89.0043 129.014 87.881 132.289L83.5669 144.456ZM118.793 117.611L124.891 120.462L123.796 107.511L118.265 111.362C118.071 110.142 117.421 109.041 116.447 108.281C115.473 107.521 114.248 107.159 113.017 107.266L101.217 108.286C100.576 108.339 99.9507 108.519 99.3775 108.814C98.8054 109.11 98.298 109.517 97.884 110.01C97.4691 110.503 97.1577 111.074 96.9647 111.689C96.7726 112.303 96.704 112.95 96.7627 113.591L97.2343 119.064C97.287 119.706 97.4671 120.331 97.7627 120.903C98.0582 121.475 98.4651 121.983 98.9586 122.397C99.4512 122.811 100.022 123.124 100.636 123.317C101.251 123.509 101.898 123.577 102.54 123.519L114.319 122.537C114.96 122.483 115.585 122.302 116.156 122.005C116.727 121.709 117.234 121.302 117.648 120.809C118.062 120.317 118.374 119.747 118.567 119.133C118.722 118.639 118.799 118.125 118.793 117.609V117.611Z" fill="#FECFC4"/>
<path d="M163.119 91.5213C163.171 91.972 163.132 92.4285 163.006 92.8643C162.88 93.3001 162.669 93.7067 162.385 94.0605C162.1 94.4147 161.749 94.7083 161.351 94.9252C160.953 95.1431 160.515 95.2794 160.065 95.3262C159.613 95.3739 159.157 95.3311 158.722 95.2018C158.288 95.0714 157.883 94.8575 157.531 94.57C157.18 94.2824 156.89 93.9292 156.676 93.5289C156.462 93.1288 156.329 92.6903 156.286 92.2387L155.738 87.0647C155.652 86.1628 155.924 85.2631 156.498 84.5615C157.072 83.8599 157.899 83.4131 158.8 83.3186C159.7 83.224 160.603 83.4891 161.309 84.0564C162.016 84.6236 162.47 85.447 162.572 86.3473L163.119 91.5213Z" fill="#FECFC4"/>
<path d="M125.25 29.1664C125.542 29.853 125.764 30.5679 125.91 31.2997C126.476 30.1106 126.811 28.8243 126.894 27.5098C126.308 28.1515 125.76 28.6948 125.25 29.1664Z" fill="#6153BD"/>
<path d="M73.9194 55.124C74.0818 56.0168 74.388 56.8774 74.8259 57.6722C76.2796 57.6722 77.8845 57.4842 78.2805 56.8991C78.3372 56.7996 78.3939 56.6911 78.4507 56.5777C77.9034 57.6563 75.9234 56.5618 73.9194 55.124Z" fill="#6153BD"/>
<path d="M23.9496 97.1088C20.4382 92.0681 -1.89451 110.475 1.31436 115.118L1.86161 115.609C6.50624 118.196 26.6868 101.074 23.9496 97.1088Z" fill="#6153BD"/>
<path d="M62.1586 162.088C57.5697 164.27 71.7613 189.87 76.0886 186.233C78.6776 182.476 65.7834 160.351 62.1586 162.088Z" fill="#6153BD"/>
<path d="M18.9846 113.118C18.8962 113.443 18.8708 113.783 18.91 114.119C19.099 115.327 20.6463 115.383 21.685 115.1C20.9576 114.231 20.0311 113.551 18.9846 113.118Z" fill="#6153BD"/>
<path d="M29.0081 103.263C29.7255 104.151 30.4618 105.037 31.1224 105.85C31.2331 105.534 31.3029 105.204 31.3304 104.869C31.3493 104.586 31.2942 104.301 31.1705 104.045C31.0468 103.789 30.8588 103.57 30.6247 103.408C30.3908 103.245 30.1188 103.148 29.8355 103.122C29.5521 103.097 29.2671 103.146 29.0081 103.263Z" fill="#6153BD"/>
<path d="M63.3664 65.0194C63.1573 65.0419 62.9595 65.1258 62.798 65.2607C62.6366 65.3956 62.5188 65.5753 62.4594 65.7771C62.4001 65.9789 62.402 66.1938 62.4648 66.3946C62.5277 66.5953 62.6485 66.773 62.8123 66.9051C62.9761 67.0371 63.1753 67.1176 63.3848 67.1364C63.5944 67.1552 63.8047 67.1114 63.9894 67.0107C64.1741 66.9099 64.3247 66.7567 64.4222 66.5704C64.5198 66.384 64.5599 66.1729 64.5376 65.9637C64.5246 65.824 64.4837 65.6884 64.4175 65.5648C64.3512 65.4411 64.2607 65.3321 64.1516 65.244C64.0423 65.1561 63.9166 65.0908 63.7818 65.0522C63.6469 65.0136 63.5056 65.0024 63.3664 65.0194Z" fill="#6153BD"/>
<path d="M55.8154 73.7944C55.6063 73.8169 55.4084 73.9008 55.247 74.0357C55.0856 74.1705 54.9678 74.3502 54.9085 74.5521C54.8491 74.7539 54.8509 74.9688 54.9137 75.1696C54.9766 75.3703 55.0975 75.548 55.2613 75.68C55.4251 75.812 55.6243 75.8925 55.8338 75.9113C56.0434 75.9302 56.2537 75.8864 56.4384 75.7857C56.623 75.6849 56.7737 75.5317 56.8713 75.3453C56.9688 75.1589 57.0089 74.9478 56.9865 74.7386C56.9719 74.5996 56.93 74.4649 56.8631 74.3421C56.7963 74.2193 56.7058 74.111 56.5971 74.0232C56.4882 73.9356 56.3631 73.8702 56.229 73.8309C56.0949 73.7916 55.9543 73.7792 55.8154 73.7944Z" fill="#6153BD"/>
<path d="M60.29 85.386C60.0808 85.4082 59.8829 85.492 59.7213 85.6267C59.5597 85.7616 59.4417 85.9413 59.3823 86.1431C59.3228 86.3448 59.3245 86.5599 59.3872 86.7606C59.4499 86.9615 59.5708 87.1392 59.7345 87.2714C59.8983 87.4035 60.0976 87.4841 60.3071 87.503C60.5167 87.5218 60.7271 87.4781 60.9119 87.3775C61.0966 87.2767 61.2472 87.1234 61.3448 86.937C61.4424 86.7506 61.4825 86.5395 61.4601 86.3302C61.4453 86.1913 61.4034 86.0568 61.3365 85.9341C61.2698 85.8115 61.1794 85.7033 61.0708 85.6156C60.9621 85.5278 60.8372 85.4625 60.7032 85.4231C60.5693 85.3837 60.4288 85.371 60.29 85.386Z" fill="#6153BD"/>
<path d="M50.4733 71.7932C50.2641 71.8155 50.0662 71.8993 49.9046 72.0341C49.743 72.1688 49.625 72.3485 49.5656 72.5503C49.5061 72.7522 49.5079 72.9671 49.5706 73.1679C49.6332 73.3688 49.7541 73.5465 49.9179 73.6786C50.0816 73.8107 50.2809 73.8913 50.4904 73.9102C50.7 73.9292 50.9104 73.8854 51.0952 73.7847C51.2799 73.6839 51.4306 73.5307 51.5281 73.3442C51.6257 73.1578 51.6658 72.9467 51.6434 72.7374C51.6287 72.5986 51.5867 72.464 51.5199 72.3414C51.4531 72.2187 51.3628 72.1105 51.2541 72.0228C51.1454 71.9351 51.0205 71.8697 50.8865 71.8303C50.7526 71.7909 50.6121 71.7783 50.4733 71.7932Z" fill="#6153BD"/>
<path d="M72.3534 69.1692C72.1441 69.1915 71.9461 69.2753 71.7845 69.4102C71.6229 69.545 71.505 69.7247 71.4456 69.9266C71.3862 70.1285 71.388 70.3435 71.4508 70.5443C71.5136 70.7452 71.6346 70.9229 71.7984 71.0549C71.9623 71.187 72.1616 71.2675 72.3713 71.2862C72.5808 71.3051 72.7914 71.2612 72.976 71.1603C73.1607 71.0594 73.3112 70.906 73.4087 70.7194C73.5062 70.5329 73.5462 70.3217 73.5235 70.1124C73.5085 69.9736 73.4666 69.8392 73.3997 69.7167C73.3328 69.5942 73.2425 69.486 73.1338 69.3984C73.0252 69.3109 72.9003 69.2455 72.7664 69.2062C72.6324 69.1668 72.4922 69.1543 72.3534 69.1692Z" fill="#6153BD"/>
<path d="M66.1984 77.7783C65.9891 77.8008 65.7913 77.8847 65.6299 78.0197C65.4684 78.1546 65.3506 78.3344 65.2913 78.5363C65.2321 78.7381 65.234 78.9531 65.297 79.1539C65.3599 79.3547 65.4809 79.5323 65.6447 79.6642C65.8086 79.7962 66.0079 79.8766 66.2175 79.8953C66.4271 79.9139 66.6375 79.8701 66.8221 79.7692C67.0067 79.6683 67.1572 79.5148 67.2546 79.3284C67.3522 79.1419 67.3921 78.9307 67.3695 78.7215C67.3547 78.5826 67.3127 78.448 67.2458 78.3253C67.1789 78.2027 67.0885 78.0945 66.9796 78.0068C66.8709 77.9192 66.7459 77.8539 66.6118 77.8147C66.4778 77.7755 66.3372 77.7631 66.1984 77.7783Z" fill="#6153BD"/>
<path d="M77.2428 81.78C77.0337 81.8023 76.8357 81.8861 76.6741 82.0208C76.5125 82.1556 76.3946 82.3353 76.3351 82.5371C76.2757 82.739 76.2774 82.9539 76.3401 83.1547C76.4028 83.3556 76.5236 83.5333 76.6874 83.6654C76.8512 83.7976 77.0504 83.8782 77.2599 83.8971C77.4696 83.916 77.68 83.8722 77.8647 83.7715C78.0495 83.6707 78.2001 83.5175 78.2977 83.331C78.3953 83.1446 78.4354 82.9335 78.4129 82.7243C78.3982 82.5854 78.3562 82.4508 78.2895 82.3281C78.2226 82.2056 78.1322 82.0973 78.0236 82.0096C77.9149 81.9219 77.7901 81.8565 77.6561 81.8171C77.5221 81.7777 77.3817 81.7651 77.2428 81.78Z" fill="#6153BD"/>
<path d="M81.8298 63.468C81.6206 63.4903 81.4226 63.5741 81.261 63.7088C81.0994 63.8436 80.9815 64.0233 80.922 64.2251C80.8625 64.427 80.8643 64.6419 80.927 64.8427C80.9898 65.0436 81.1106 65.2213 81.2744 65.3534C81.4381 65.4856 81.6373 65.5662 81.8469 65.5851C82.0564 65.604 82.267 65.5602 82.4516 65.4595C82.6364 65.3587 82.7871 65.2055 82.8847 65.019C82.9823 64.8327 83.0224 64.6215 82.9999 64.4123C82.987 64.2727 82.9462 64.1372 82.8799 64.0136C82.8137 63.8901 82.7234 63.7811 82.6143 63.693C82.5052 63.605 82.3796 63.5398 82.2448 63.5011C82.1101 63.4625 81.969 63.4512 81.8298 63.468Z" fill="#6153BD"/>
<path d="M91.7222 81.3263C91.5129 81.3486 91.3149 81.4324 91.1533 81.5671C90.9918 81.7019 90.8738 81.8816 90.8143 82.0834C90.7549 82.2853 90.7566 82.5002 90.8193 82.701C90.8821 82.9019 91.0029 83.0796 91.1667 83.2117C91.3304 83.3439 91.5296 83.4244 91.7393 83.4434C91.9488 83.4623 92.1593 83.4185 92.3439 83.3178C92.5287 83.217 92.6794 83.0638 92.777 82.8773C92.8746 82.6909 92.9147 82.4798 92.8922 82.2705C92.8621 81.9903 92.722 81.7332 92.5026 81.5562C92.2832 81.3791 92.0025 81.2964 91.7222 81.3263Z" fill="#6153BD"/>
<path d="M91.7599 71.4151C91.8988 71.4005 92.0334 71.3586 92.1561 71.2918C92.2788 71.2251 92.3872 71.1347 92.4749 71.0261C92.5626 70.9173 92.6279 70.7924 92.6673 70.6583C92.7066 70.5243 92.7192 70.3839 92.7042 70.245C92.667 69.9705 92.5243 69.7212 92.3063 69.5503C92.0883 69.3794 91.812 69.3002 91.5366 69.3298C91.2611 69.3594 91.0081 69.4953 90.8313 69.7086C90.6545 69.9218 90.5678 70.1957 90.5898 70.4719C90.6044 70.6108 90.6463 70.7454 90.7131 70.868C90.7799 70.9907 90.8702 71.0989 90.9789 71.1865C91.0877 71.2741 91.2126 71.3395 91.3466 71.3787C91.4806 71.4179 91.6211 71.4304 91.7599 71.4151Z" fill="#6153BD"/>
<path d="M103.295 83.573C103.086 83.5953 102.888 83.679 102.726 83.8139C102.565 83.9486 102.446 84.1283 102.387 84.3301C102.328 84.532 102.33 84.7469 102.392 84.9477C102.455 85.1486 102.575 85.3263 102.74 85.4584C102.903 85.5905 103.103 85.6711 103.312 85.69C103.522 85.7089 103.732 85.6652 103.917 85.5645C104.102 85.4637 104.252 85.3104 104.35 85.124C104.447 84.9376 104.487 84.7265 104.465 84.5172C104.45 84.3783 104.408 84.2438 104.342 84.1211C104.275 83.9985 104.184 83.8903 104.076 83.8026C103.967 83.7149 103.842 83.6495 103.708 83.6101C103.574 83.5707 103.433 83.558 103.295 83.573Z" fill="#6153BD"/>
<path d="M104.616 72.3226C104.407 72.3449 104.209 72.4287 104.047 72.5636C103.886 72.6984 103.768 72.8781 103.709 73.08C103.649 73.2819 103.651 73.4969 103.714 73.6978C103.777 73.8986 103.898 74.0763 104.061 74.2084C104.225 74.3404 104.424 74.4209 104.634 74.4397C104.844 74.4584 105.054 74.4146 105.239 74.3137C105.423 74.2128 105.575 74.0594 105.672 73.8729C105.77 73.6863 105.809 73.4751 105.787 73.2658C105.772 73.127 105.73 72.9925 105.663 72.8699C105.596 72.7473 105.506 72.6392 105.397 72.5515C105.288 72.4639 105.164 72.3986 105.029 72.3593C104.896 72.32 104.755 72.3076 104.616 72.3226Z" fill="#6153BD"/>
<path d="M114.055 68.5463C114.033 68.3371 113.948 68.1392 113.814 67.9776C113.679 67.816 113.5 67.698 113.298 67.6386C113.096 67.5791 112.881 67.5809 112.68 67.6436C112.479 67.7062 112.302 67.8271 112.169 67.9909C112.037 68.1546 111.956 68.3539 111.937 68.5634C111.918 68.773 111.962 68.9834 112.063 69.1682C112.164 69.3529 112.317 69.5036 112.504 69.6012C112.69 69.6987 112.902 69.7389 113.111 69.7164C113.25 69.7017 113.384 69.6597 113.507 69.5929C113.629 69.5261 113.737 69.4358 113.825 69.3271C113.912 69.2184 113.978 69.0936 114.018 68.9595C114.057 68.8256 114.07 68.6852 114.055 68.5463Z" fill="#6153BD"/>
<path d="M145.563 9.4764C145.447 8.01265 144.814 6.63786 143.777 5.59928C142.738 4.5607 141.364 3.92639 139.9 3.81033C138.436 3.69426 136.98 4.10408 135.791 4.96616C134.602 5.82813 133.76 7.08591 133.416 8.51324C131.71 7.71952 129.829 7.37834 127.953 7.52261C126.078 7.66689 124.272 8.29175 122.708 9.337C121.143 10.3822 119.875 11.8126 119.024 13.4903C118.173 15.1681 117.769 17.0366 117.85 18.916C120.123 18.2997 122.461 17.9447 124.815 17.8583C124.942 18.6316 125.118 19.3959 125.343 20.1468C125.551 20.6184 125.872 20.6562 126.438 19.7876C127.703 17.9568 130.271 20.7885 127.269 22.9785C128.564 25.2209 130.21 27.2414 132.144 28.9635C134.515 28.1997 136.557 26.6542 137.936 24.5794C139.314 22.5047 139.948 20.0237 139.734 17.5419C139.695 17.0865 139.628 16.6339 139.535 16.1867C139.671 16.1874 139.807 16.1797 139.942 16.1638C140.75 16.0937 141.537 15.8653 142.256 15.4913C142.977 15.1173 143.615 14.6052 144.137 13.9842C144.659 13.3633 145.054 12.6456 145.298 11.8721C145.543 11.0986 145.632 10.2845 145.563 9.4764Z" fill="#6153BD"/>
<path d="M65.5566 108.945L65.7646 116.607L68.461 114.172C67.2852 112.553 66.3099 110.799 65.5566 108.945Z" fill="#6153BD"/>
<path d="M82.8875 73.9644L85.5679 77.7782L85.7191 82.6676L82.8875 73.9644Z" fill="#6153BD"/>
<path d="M78.2617 48.1202C78.5901 48.0601 78.8863 47.885 79.0975 47.6264C79.3086 47.3677 79.4209 47.0425 79.414 46.7086C79.4072 46.3748 79.2819 46.0543 79.0603 45.8045C78.8388 45.5547 78.5356 45.3919 78.205 45.3452C78.4607 45.1583 78.6461 44.8908 78.7312 44.5857C78.8164 44.2806 78.7963 43.9558 78.6742 43.6634C78.5521 43.3712 78.3352 43.1285 78.0584 42.9746C77.7816 42.8207 77.461 42.7644 77.1483 42.8149C77.3085 42.5489 77.3764 42.2375 77.3417 41.929C77.3069 41.6204 77.1714 41.332 76.9559 41.1083C76.7405 40.8846 76.4573 40.7382 76.1504 40.6919C75.8433 40.6455 75.5296 40.7017 75.2578 40.8518C75.3227 40.5351 75.2773 40.2057 75.1288 39.9185C74.9805 39.6313 74.7381 39.4036 74.4422 39.2734C74.1463 39.1432 73.8147 39.1183 73.5027 39.203C73.1907 39.2875 72.917 39.4765 72.7275 39.7384C72.6969 39.3981 72.5487 39.0791 72.3082 38.8364C72.0677 38.5937 71.7501 38.4426 71.41 38.4089C71.07 38.3754 70.7289 38.4615 70.4457 38.6523C70.1623 38.8433 69.9544 39.127 69.8579 39.4548C69.7244 39.1608 69.4942 38.9214 69.2057 38.7764C68.9171 38.6314 68.5877 38.5896 68.2721 38.658C67.9565 38.7265 67.6739 38.9009 67.4712 39.1523C67.2686 39.4037 67.1583 39.717 67.1585 40.0398C66.9229 39.8373 66.6273 39.7178 66.3171 39.6998C66.007 39.6817 65.6995 39.766 65.442 39.9399C65.1845 40.1137 64.9913 40.3673 64.892 40.6617C64.7928 40.9561 64.7931 41.2749 64.8929 41.5692C64.5992 41.4599 64.2776 41.4517 63.9788 41.5459C63.68 41.6401 63.4212 41.8313 63.2435 42.0894C63.0656 42.3474 62.9791 42.6573 62.9974 42.97C63.0158 43.2828 63.138 43.5805 63.3446 43.8159C63.0115 43.7976 62.6826 43.8977 62.416 44.0984C62.1495 44.299 61.9625 44.5874 61.888 44.9127C61.8134 45.2378 61.8562 45.5789 62.0089 45.8756C62.1614 46.1724 62.4139 46.4057 62.7218 46.5342C62.3945 46.5976 62.1004 46.7751 61.8918 47.0351C61.6833 47.2951 61.5737 47.6207 61.5828 47.9538C61.5919 48.287 61.719 48.6062 61.9414 48.8544C62.1639 49.1026 62.4672 49.2638 62.7974 49.3093C62.5471 49.4992 62.3675 49.7674 62.2872 50.0711C62.2069 50.375 62.2305 50.6969 62.3543 50.9856C62.4781 51.2745 62.695 51.5136 62.9703 51.6648C63.2457 51.8162 63.5638 51.871 63.874 51.8206C63.7175 52.0879 63.6533 52.3992 63.6913 52.7066C63.7292 53.014 63.8673 53.3003 64.0841 53.5214C64.3009 53.7425 64.5845 53.8862 64.8911 53.9302C65.1976 53.9742 65.5102 53.9161 65.7804 53.7649C65.7179 54.0809 65.7656 54.4087 65.9153 54.6939C66.0651 54.9791 66.3081 55.2043 66.6036 55.3322C66.8992 55.4602 67.2297 55.483 67.5402 55.397C67.8505 55.3109 68.1221 55.1213 68.3097 54.8594C68.3261 55.0951 68.4007 55.323 68.5269 55.5228C68.6531 55.7226 68.8269 55.8879 69.0327 56.004C69.2385 56.12 69.4699 56.1832 69.7061 56.1879C69.9424 56.1925 70.176 56.1385 70.3863 56.0305C70.5564 55.8225 72.8738 52.9719 73.6907 51.9331C71.6897 49.6685 73.3504 48.1959 74.427 49.6874C74.9931 50.4993 75.82 50.2724 75.3324 47.8556C75.958 47.5835 76.5574 47.2552 77.1234 46.8745C77.5214 48.4028 77.8199 49.7063 78.0667 50.8008C78.3533 50.7258 78.6092 50.5629 78.7987 50.335C78.9881 50.1072 79.1016 49.8258 79.1231 49.5303C79.1445 49.2347 79.073 48.9399 78.9186 48.6871C78.7642 48.4343 78.5344 48.2361 78.2617 48.1202Z" fill="#6153BD"/>
<path d="M78.0728 50.8007C77.828 49.7062 77.5255 48.4038 77.1295 46.8744C76.5634 47.2551 75.9641 47.5835 75.3385 47.8555C75.83 50.2724 75.0052 50.4943 74.4331 49.6873C73.3684 48.1869 71.6958 49.6684 73.6968 51.933C72.8848 52.9718 70.5625 55.8225 70.3924 56.0304C70.1821 56.1384 69.9485 56.1924 69.7122 56.1878C69.476 56.1832 69.2446 56.12 69.0388 56.004C68.833 55.8879 68.6592 55.7225 68.533 55.5228C68.4068 55.323 68.3322 55.095 68.3158 54.8593C68.1282 55.1211 67.8566 55.3109 67.5463 55.3969C67.2358 55.4829 66.9053 55.4601 66.6098 55.3321C66.3142 55.2042 66.0712 54.9789 65.9214 54.6938C65.7717 54.4087 65.724 54.0808 65.7865 53.7648C65.5163 53.9161 65.2037 53.9741 64.8972 53.9301C64.5906 53.8861 64.307 53.7424 64.0902 53.5213C63.8734 53.3002 63.7353 53.0139 63.6974 52.7065C63.6594 52.3992 63.7236 52.0879 63.8801 51.8206C63.5699 51.8709 63.2518 51.8161 62.9764 51.6648C62.7011 51.5134 62.4842 51.2743 62.3604 50.9856C62.2366 50.6968 62.213 50.3749 62.2933 50.0711C62.3736 49.7673 62.5531 49.4992 62.8035 49.3092C62.4732 49.2637 62.17 49.1026 61.9475 48.8543C61.7251 48.606 61.5981 48.287 61.5889 47.9537C61.5798 47.6206 61.6894 47.2949 61.8979 47.0349C62.1065 46.7751 62.4006 46.5975 62.7279 46.5342C62.42 46.4056 62.1675 46.1723 62.0149 45.8756C61.8623 45.5789 61.8195 45.2378 61.8941 44.9126C61.9686 44.5873 62.1557 44.2989 62.4221 44.0982C62.6887 43.8976 63.0176 43.7975 63.3507 43.8158C63.1441 43.5804 63.0218 43.2827 63.0035 42.97C62.9852 42.6571 63.0717 42.3472 63.2496 42.0893C63.4273 41.8313 63.6861 41.6401 63.9849 41.5458C64.2837 41.4516 64.6053 41.4598 64.899 41.5691C64.8021 41.2757 64.8036 40.9587 64.9036 40.6662C65.0036 40.3739 65.1964 40.1222 65.4527 39.9495C65.7089 39.7769 66.0146 39.6928 66.3231 39.71C66.6317 39.7272 66.9261 39.8448 67.1616 40.0448C67.1614 39.7219 67.2717 39.4086 67.4743 39.1571C67.677 38.9058 67.9596 38.7313 68.2752 38.6629C68.5908 38.5946 68.9203 38.6362 69.2088 38.7812C69.4974 38.9262 69.7275 39.1657 69.861 39.4597C69.9575 39.132 70.1654 38.8482 70.4488 38.6572C70.7321 38.4663 71.0731 38.3802 71.4131 38.4139C71.7532 38.4475 72.0708 38.5986 72.3113 38.8413C72.5518 39.084 72.7001 39.403 72.7306 39.7433C72.9202 39.4814 73.1938 39.2925 73.5058 39.2078C73.8178 39.1232 74.1494 39.1481 74.4453 39.2783C74.7412 39.4085 74.9836 39.6361 75.1319 39.9234C75.2804 40.2106 75.3259 40.54 75.2609 40.8567C75.5327 40.7066 75.8464 40.6504 76.1535 40.6968C76.4605 40.7432 76.7436 40.8895 76.9591 41.1132C77.1745 41.3369 77.31 41.6253 77.3448 41.9339C77.3795 42.2424 77.3116 42.5539 77.1514 42.8198C77.4641 42.7693 77.7847 42.8255 78.0615 42.9794C78.3383 43.1333 78.5552 43.376 78.6773 43.6684C78.7994 43.9606 78.8195 44.2855 78.7343 44.5906C78.6493 44.8957 78.4638 45.1633 78.2081 45.3501C78.5387 45.3968 78.8419 45.5596 79.0634 45.8094C79.2849 46.0592 79.4103 46.3797 79.4171 46.7135C79.424 47.0473 79.3117 47.3726 79.1006 47.6313C78.8895 47.8899 78.5933 48.065 78.2648 48.1252C78.5357 48.2417 78.7637 48.4397 78.917 48.6916C79.0703 48.9436 79.1413 49.2371 79.1202 49.5312C79.0991 49.8254 78.9869 50.1057 78.7992 50.3332C78.6115 50.5607 78.3575 50.7241 78.0728 50.8007Z" stroke="#120071" stroke-linecap="round" stroke-linejoin="round"/>
<path d="M78.2996 43.0608L83.3591 42.6459C83.9632 42.5931 84.5716 42.6603 85.1496 42.8437C85.7276 43.0269 86.2636 43.3228 86.7268 43.714C87.19 44.1053 87.5713 44.5843 87.8487 45.1234C88.1261 45.6626 88.294 46.2513 88.3431 46.8557L89.7212 63.4115" stroke="#120071" stroke-linecap="round" stroke-linejoin="round"/>
<path d="M85.9072 82.4031L86.6813 82.3464C87.3571 82.3389 88.0173 82.1428 88.5878 81.7803" stroke="#120071" stroke-linecap="round" stroke-linejoin="round"/>
<path d="M50.8693 85.344L40.7134 86.2126C39.4946 86.3146 38.2853 85.9285 37.3509 85.1394C36.4166 84.3502 35.8338 83.2224 35.7304 82.0038L33.1434 51.4961C33.0409 50.2769 33.4269 49.067 34.2163 48.1324C35.0058 47.1978 36.1342 46.6149 37.3533 46.5121L62.186 44.4199" stroke="#120071" stroke-linecap="round" stroke-linejoin="round"/>
<path d="M83.5669 144.456L144.052 139.359C145.704 139.218 147.232 138.427 148.301 137.159C149.37 135.891 149.893 134.252 149.753 132.6L146.242 91.3512C146.101 89.6995 145.31 88.1716 144.042 87.1027C142.775 86.0337 141.136 85.5113 139.484 85.6499L107.166 88.3692" stroke="#120071" stroke-linecap="round" stroke-linejoin="round"/>
<path d="M85.3599 90.2189L95.4034 89.3691" stroke="#120071" stroke-linecap="round" stroke-linejoin="round"/>
<path d="M117.944 22.2344L99.2921 23.8393C97.5837 24.03 96.0206 24.8899 94.9447 26.2308C93.869 27.5718 93.3685 29.2842 93.5529 30.9934L97.2912 74.0172" stroke="#120071" stroke-linecap="round" stroke-linejoin="round"/>
<path d="M110.771 80.3262L167.348 75.4368C168.604 75.3234 169.797 74.8339 170.77 74.0322C171.743 73.2307 172.452 72.1542 172.804 70.9434" stroke="#120071" stroke-linecap="round" stroke-linejoin="round"/>
<path d="M170.992 43.9862L169.311 24.4473C169.199 22.7308 168.411 21.1288 167.119 19.9927C165.827 18.8566 164.137 18.279 162.421 18.3868L139.635 20.3509" stroke="#120071" stroke-linecap="round" stroke-linejoin="round"/>
<path d="M150.282 49.6685C148.338 52.7261 144.241 61.6562 141.862 67.4511C146.429 69.2363 150.278 72.4821 152.807 76.6827" stroke="#120071" stroke-linecap="round" stroke-linejoin="round"/>
<path d="M119.87 59.4473C120.56 63.0027 121.462 66.514 122.569 69.9624C121.53 73.8698 121.115 77.3433 120.625 79.4766" stroke="#120071" stroke-linecap="round" stroke-linejoin="round"/>
<path d="M121.681 44.9111C120.256 47.1092 119.424 49.639 119.266 52.2542" stroke="#120071" stroke-linecap="round" stroke-linejoin="round"/>
<path d="M141.843 67.4702C136.52 71.303 126.458 73.3407 122.569 69.9627" stroke="#120071" stroke-linecap="round" stroke-linejoin="round"/>
<path d="M139.427 68.9238C142.267 71.1446 144.543 74.0032 146.071 77.2679" stroke="#120071" stroke-linecap="round" stroke-linejoin="round"/>
<path d="M125.923 31.2778C126.48 30.0937 126.81 28.8155 126.894 27.5098C126.309 28.1515 125.76 28.6948 125.25 29.1664" stroke="#120071" stroke-linecap="round" stroke-linejoin="round"/>
<path d="M147.582 54.728L154.341 66.1486C159.57 75.626 170.46 78.607 177.297 64.4501C180.524 57.7667 182.054 53.2743 184.886 48.6296C180.255 47.3095 176.038 44.8273 172.637 41.4189C169.494 46.1495 166.699 51.102 164.273 56.2374C150.587 27.1466 148.907 32.2758 139.789 31.7714C137.007 31.6946 134.327 30.7063 132.162 28.9585" stroke="#120071" stroke-linecap="round" stroke-linejoin="round"/>
<path d="M112.224 54.9539C114.924 45.779 120.971 41.5383 123.626 38.6438C124.875 37.4459 125.707 35.8786 125.999 34.1727C126.291 32.4667 126.029 30.712 125.25 29.1665C120.493 33.3574 117.869 30.0162 117.869 18.918" stroke="#120071" stroke-linecap="round" stroke-linejoin="round"/>
<path d="M140.938 31.8091C137.154 34.85 133.739 38.323 130.762 42.1571C130.295 42.7379 129.686 43.1878 128.994 43.4627C128.301 43.7376 127.549 43.8283 126.811 43.7257C126.073 43.6231 125.374 43.3309 124.783 42.8776C124.192 42.4242 123.728 41.8253 123.438 41.1392C123.195 40.572 122.984 40.0447 122.796 39.5343" stroke="#120071" stroke-linecap="round" stroke-linejoin="round"/>
<path d="M164.271 56.2373L162.025 61.2969" stroke="#120071" stroke-linecap="round" stroke-linejoin="round"/>
<path d="M70.3892 56.0303C67.7505 59.4133 65.8829 59.1914 60.9128 61.4102C50.7937 65.9226 54.2672 84.0077 54.2672 84.0077" stroke="#120071" stroke-linecap="round" stroke-linejoin="round"/>
<path d="M78.0726 50.8008C78.8975 54.6246 78.8228 56.0882 78.2806 56.8792C77.8826 57.4653 76.2796 57.6533 74.8259 57.6533" stroke="#120071" stroke-linecap="round" stroke-linejoin="round"/>
<path d="M78.4539 56.5616C77.9256 57.6561 75.9216 56.5616 73.9197 55.1079C74.2978 56.8452 74.5615 58.9267 75.9773 59.0153C88.5283 59.8023 89.8536 61.2242 100.746 79.9103" stroke="#120071" stroke-linecap="round" stroke-linejoin="round"/>
<path d="M99.4056 77.5892C99.8772 76.2678 102.804 70.2451 104.503 64.8084C108.224 64.4078 111.964 65.3813 115.018 67.5456C113.847 73.0957 110.45 81.5164 107.523 87.7053C107.025 88.7514 106.286 89.664 105.366 90.3678C104.445 91.0716 103.372 91.5464 102.231 91.753C101.092 91.9596 99.919 91.892 98.8106 91.5559C97.7021 91.2197 96.6892 90.6245 95.8564 89.8197C90.9689 85.0139 86.626 79.6841 82.9065 73.9266" stroke="#120071" stroke-linecap="round" stroke-linejoin="round"/>
<path d="M82.9253 73.9268L85.7193 82.6678" stroke="#120071" stroke-linecap="round" stroke-linejoin="round"/>
<path d="M62.292 89.804C67.8988 91.595 77.4886 90.9174 84.984 88.8786C86.1163 86.6508 85.6446 77.854 85.6446 77.854" stroke="#120071" stroke-linecap="round" stroke-linejoin="round"/>
<path d="M62.2343 89.369C59.8184 92.8426 55.0703 92.9709 52.8893 89.3501C50.1411 84.7731 48.963 78.2499 48.3779 71.0003C48.3779 71.0003 52.6564 69.6312 54.4474 70.1675" stroke="#120071" stroke-linecap="round" stroke-linejoin="round"/>
<path d="M68.4611 114.172L48.5263 131.824C47.2076 132.984 45.5133 133.627 43.7571 133.634C42.001 133.64 40.3018 133.01 38.9743 131.86L19.3618 114.893" stroke="#120071" stroke-linecap="round" stroke-linejoin="round"/>
<path d="M45.7164 117.592L30.8779 103.604" stroke="#120071" stroke-linecap="round" stroke-linejoin="round"/>
<path d="M59.1946 70.8691C59.1946 70.8691 62.4781 84.1026 62.2722 90.1433C58.2778 92.4137 55.1914 95.9959 53.5361 100.281C51.1252 106.796 42.7751 114.723 42.7751 114.723" stroke="#120071" stroke-linecap="round" stroke-linejoin="round"/>
<path d="M84.9831 88.8784C88.6825 101.47 89.0506 109.873 89.3053 122.066C89.5087 125.522 89.0356 128.985 87.9123 132.26L79.2668 156.575C73.9791 156.02 68.8962 154.229 64.4283 151.347L73.0749 126.578C73.2415 122.347 71.8221 118.207 69.0949 114.968C66.3951 111.68 64.7037 107.68 64.2244 103.452" stroke="#120071" stroke-linecap="round" stroke-linejoin="round"/>
<path d="M66.0481 59.3904C66.0481 59.3904 69.0679 62.7127 76.2419 59.0312" stroke="#120071" stroke-linecap="round" stroke-linejoin="round"/>
<path d="M49.8693 70.5664C49.8103 67.686 49.4879 64.8171 48.9062 61.9955C48.3494 59.8238 47.5515 57.7213 46.5271 55.727C45.0247 52.7977 45.5122 52.0047 47.9251 54.6703C50.3078 57.6614 52.2702 60.9642 53.7578 64.487" stroke="#120071" stroke-linecap="round" stroke-linejoin="round"/>
<path d="M52.9202 62.6211C54.1191 63.9803 54.8365 59.8351 55.2873 58.9178C55.9101 57.6531 56.6803 56.276 56.6275 60.1645C56.6126 61.2401 56.741 62.9584 56.9111 64.6569" stroke="#120071" stroke-linecap="round" stroke-linejoin="round"/>
<path d="M47.7738 58.5028C47.2265 57.8988 45.9828 56.6919 45.6216 56.3506C43.9719 54.7725 43.6435 55.3288 43.8306 55.6541C44.547 56.9098 45.8902 58.8441 46.5171 60.0321C47.5201 61.9564 49.5558 65.62 49.6693 67.5076" stroke="#120071" stroke-linecap="round" stroke-linejoin="round"/>
<path d="M46.4527 59.919C46.1313 59.6932 45.8656 59.5071 45.7164 59.4096C43.804 58.1628 43.602 58.73 43.8259 59.0116C44.7323 60.1439 46.3781 61.8215 47.187 62.9C48.1367 64.2289 48.9583 65.6447 49.6407 67.1288" stroke="#120071" stroke-linecap="round" stroke-linejoin="round"/>
<path d="M114.132 66.9229C115.144 63.9034 116.42 60.9787 117.945 58.1828C119.236 56.0726 120.762 54.1155 122.495 52.3491C125.038 49.7621 124.783 48.7432 121.362 50.7631C117.873 53.1462 114.723 55.9912 111.998 59.2206" stroke="#120071" stroke-linecap="round" stroke-linejoin="round"/>
<path d="M113.585 57.4295C111.681 58.8494 112.383 53.9998 112.205 52.8585C111.965 51.3282 111.62 49.6118 110.392 53.7461C110.053 54.8774 108.674 58.3837 106.074 64.7129" stroke="#120071" stroke-linecap="round" stroke-linejoin="round"/>
<path d="M120.266 54.8595C121.04 54.3879 122.739 53.5381 123.23 53.2934C125.495 52.16 125.644 52.8755 125.363 53.1421C124.202 54.2456 122.155 55.8435 121.115 56.8982C119.438 58.6007 116.094 61.8066 115.338 63.7707" stroke="#120071" stroke-linecap="round" stroke-linejoin="round"/>
<path d="M121.21 56.8043C121.625 56.672 121.965 56.5596 122.154 56.5058C124.574 55.7646 124.607 56.4849 124.269 56.7138C122.941 57.6093 120.665 58.8501 119.454 59.7336C118.021 60.8286 116.695 62.0548 115.49 63.3962" stroke="#120071" stroke-linecap="round" stroke-linejoin="round"/>
<path d="M23.9497 97.1092C20.5896 92.2824 -0.00796135 108.934 1.03878 114.446C1.20096 115.3 1.93925 116.064 3.6616 115.83C10.2814 114.934 26.4322 100.681 23.9497 97.1092Z" stroke="#120071" stroke-linecap="round" stroke-linejoin="round"/>
<path d="M23.9495 97.1089C24.9872 98.4302 28.5553 102.697 31.1045 105.865" stroke="#120071" stroke-linecap="round" stroke-linejoin="round"/>
<path d="M77.1862 156.312C76.3902 159.312 71.9226 165.899 75.3544 174.34C77.1125 178.662 78.1294 184.966 75.7524 186.552" stroke="#120071" stroke-linecap="round" stroke-linejoin="round"/>
<path d="M61.5547 162.655C62.1198 161.381 64.1745 156.734 66.0103 152.406" stroke="#120071" stroke-linecap="round" stroke-linejoin="round"/>
<path d="M62.1587 162.087C57.9379 164.094 69.2053 184.729 74.3733 186.611C75.8011 187.132 76.4837 186.114 76.427 184.598C76.1922 178.294 65.4213 160.539 62.1587 162.087Z" stroke="#120071" stroke-linecap="round" stroke-linejoin="round"/>
<path d="M28.9903 103.263C29.2491 103.146 29.534 103.097 29.8172 103.122C30.1005 103.147 30.3723 103.245 30.6063 103.408C30.8402 103.569 31.0281 103.789 31.1517 104.044C31.2754 104.301 31.3304 104.585 31.3116 104.868C30.9992 108.848 23.6053 115.666 20.281 115.264C19.286 115.143 18.6552 114.439 18.9875 113.1" stroke="#120071" stroke-linecap="round" stroke-linejoin="round"/>
<path d="M78.0896 149.546L83.8835 131.222C84.8889 128.358 85.3125 125.322 85.1292 122.292C84.3263 109.173 83.3551 99.0343 80.995 89.8037" stroke="#120071" stroke-linecap="round" stroke-linejoin="round"/>
<path d="M66.7834 144.587C71.0689 147.848 76.2592 149.702 81.6408 149.893" stroke="#120071" stroke-linecap="round" stroke-linejoin="round"/>
<path d="M24.9495 119.725C30.6697 117.893 33.8796 113.755 35.8049 108.36" stroke="#120071" stroke-linecap="round" stroke-linejoin="round"/>
<path d="M65.5566 108.946L49.4914 123.18C48.1699 124.357 46.4638 125.011 44.6942 125.018C42.9245 125.025 41.2132 124.385 39.8827 123.218L31.4062 115.779" stroke="#120071" stroke-linecap="round" stroke-linejoin="round"/>
<path d="M68.2749 94.8244C68.0302 94.8622 67.671 99.6203 68.3127 101.546C69.5404 103.242 71.1096 104.664 72.9196 105.718C73.9549 103.993 75.1976 102.401 76.62 100.979C76.4309 98.5815 76.2041 97.3169 75.9404 94.7866C73.399 95.1498 70.8197 95.1627 68.2749 94.8244Z" stroke="#120071" stroke-linecap="round" stroke-linejoin="round"/>
<path d="M57.5718 93.8623C58.541 93.8762 59.4926 94.122 60.3469 94.5797C58.6096 95.4284 56.8544 99.7537 56.8544 99.7537L52.9839 101.604" stroke="#120071" stroke-linecap="round" stroke-linejoin="round"/>
<path d="M180.393 32.1841C183.378 33.1273 185.037 34.6567 186.96 37.1113" stroke="#120071" stroke-linecap="round" stroke-linejoin="round"/>
<path d="M179.657 33.5845C180.699 34.6418 181.509 35.9045 182.035 37.2921C182.562 38.6798 182.792 40.1618 182.715 41.644" stroke="#120071" stroke-linecap="round" stroke-linejoin="round"/>
<path d="M185.395 35.245C186.554 33.7191 187.523 32.0582 188.281 30.2989C189.674 27.0333 190.528 27.9397 189.753 31.0352C189.545 31.866 189.339 32.5834 189.149 33.1874C188.604 34.9246 188.067 36.6788 187.563 38.436C187.029 40.3026 183.484 48.1959 183.484 48.1959C180.162 47.3084 176.707 44.8925 174.008 42.6647C174.064 42.5513 175.5 39.9096 175.555 39.8141C175.847 39.286 175.972 38.6814 175.911 38.0809C175.85 37.4805 175.608 36.9128 175.216 36.4539C173.85 34.8162 172.023 32.3744 172.629 31.7148C173.569 30.6929 176.536 34.1485 178.122 34.3585C178.688 34.4331 179.142 32.7157 179.235 32.0929C179.406 30.9605 180.002 27.1079 180.047 26.7318C180.458 23.2314 181.709 23.8244 181.69 26.9199C181.671 29.8651 181.671 31.7715 181.671 31.7715" stroke="#120071" stroke-linecap="round" stroke-linejoin="round"/>
<path d="M181.431 32.5266C181.431 32.5266 183.49 26.0711 183.62 25.6362C184.644 22.2582 185.718 23.0313 185.206 26.0701C184.717 28.9784 184.187 32.5266 184.187 32.5266" stroke="#120071" stroke-linecap="round" stroke-linejoin="round"/>
<path d="M183.682 33.5652C184.667 31.5908 185.537 29.5609 186.287 27.4857C187.511 24.1624 188.41 25.0112 187.835 28.034C187.52 29.9132 187.072 31.7679 186.495 33.5841" stroke="#120071" stroke-linecap="round" stroke-linejoin="round"/>
<path d="M163.119 91.5213C163.171 91.972 163.132 92.4285 163.006 92.8643C162.88 93.3001 162.669 93.7067 162.385 94.0605C162.1 94.4147 161.749 94.7083 161.351 94.9252C160.953 95.1431 160.515 95.2794 160.065 95.3262C159.613 95.3739 159.157 95.3311 158.722 95.2018C158.288 95.0714 157.883 94.8575 157.531 94.57C157.18 94.2824 156.89 93.9292 156.676 93.5289C156.462 93.1288 156.329 92.6903 156.286 92.2387L155.738 87.0647C155.652 86.1628 155.924 85.2631 156.498 84.5615C157.072 83.8599 157.899 83.4131 158.8 83.3186C159.7 83.224 160.603 83.4891 161.309 84.0564C162.016 84.6236 162.47 85.447 162.572 86.3473L163.119 91.5213Z" stroke="#120071" stroke-linecap="round" stroke-linejoin="round"/>
<path d="M153.492 90.1618L153.755 92.71C153.837 93.4933 154.073 94.2532 154.448 94.9457C154.823 95.6382 155.331 96.2502 155.943 96.7457C156.554 97.2422 157.259 97.6123 158.013 97.8372C158.768 98.0611 159.56 98.1347 160.343 98.0531C161.127 97.9705 161.887 97.7357 162.579 97.3606C163.272 96.9845 163.883 96.477 164.38 95.8651C164.875 95.2532 165.247 94.5497 165.471 93.7945C165.694 93.0395 165.768 92.2476 165.686 91.4642L165.423 88.916" stroke="#120071" stroke-linecap="round" stroke-linejoin="round"/>
<path d="M160.344 98.0532L160.854 102.81" stroke="#120071" stroke-linecap="round" stroke-linejoin="round"/>
<path d="M158.305 103.075L163.384 102.546" stroke="#120071" stroke-linecap="round" stroke-linejoin="round"/>
<path d="M118.793 117.611L124.891 120.462L123.796 107.511L118.265 111.361" stroke="#120071" stroke-linecap="round" stroke-linejoin="round"/>
<path d="M113.017 107.266C114.248 107.159 115.473 107.521 116.447 108.281C117.421 109.041 118.071 110.142 118.265 111.362L118.774 117.232C118.831 117.873 118.76 118.519 118.567 119.132C118.374 119.746 118.062 120.317 117.648 120.809C117.234 121.302 116.727 121.709 116.156 122.005C115.585 122.302 114.96 122.483 114.32 122.537L102.54 123.518C101.898 123.577 101.251 123.508 100.636 123.316C100.022 123.123 99.4513 122.811 98.9587 122.397C98.4652 121.983 98.0583 121.475 97.7628 120.903C97.4672 120.33 97.2871 119.706 97.2344 119.064L96.7628 113.591C96.7041 112.95 96.7727 112.303 96.9648 111.689C97.1578 111.074 97.4692 110.503 97.8841 110.01C98.2981 109.517 98.8055 109.11 99.3776 108.814C99.9508 108.519 100.576 108.339 101.217 108.286L113.017 107.266Z" stroke="#120071" stroke-linecap="round" stroke-linejoin="round"/>
<path d="M145.563 9.47651C145.445 8.01645 144.812 6.64584 143.777 5.60994C142.741 4.57395 141.371 3.9403 139.91 3.8223C138.45 3.70431 136.996 4.10967 135.808 4.96588C134.619 5.82208 133.774 7.07319 133.424 8.49544C134.974 9.21055 136.335 10.2774 137.401 11.6113C138.466 12.9451 139.206 14.5091 139.56 16.1788C140.403 16.1593 141.232 15.9672 141.998 15.6143C142.765 15.2614 143.449 14.7553 144.012 14.1272C144.575 13.4992 145.002 12.7624 145.269 11.9625C145.536 11.1626 145.635 10.3165 145.563 9.47651Z" stroke="#120071" stroke-linecap="round" stroke-linejoin="round"/>
<path d="M139.73 17.538C139.492 14.6781 138.143 12.0254 135.971 10.1494C133.8 8.27346 130.979 7.32373 128.114 7.50412C125.251 7.68452 122.571 8.9806 120.652 11.1143C118.733 13.248 117.726 16.049 117.85 18.9161C120.123 18.2998 122.461 17.9449 124.815 17.8584C124.942 18.6317 125.118 19.3961 125.343 20.1469C125.551 20.6185 125.871 20.6563 126.438 19.7877C127.703 17.9569 130.27 20.7887 127.268 22.9787C128.564 25.221 130.21 27.2415 132.144 28.9636C134.515 28.1989 136.557 26.6525 137.935 24.577C139.312 22.5016 139.946 20.0199 139.73 17.538Z" stroke="#120071" stroke-linecap="round" stroke-linejoin="round"/>
<path d="M13.321 81.2515L17.2662 80.8545" stroke="#120071" stroke-linecap="round" stroke-linejoin="round"/>
<path d="M24.251 80.1372L28.1971 79.7412" stroke="#120071" stroke-linecap="round" stroke-linejoin="round"/>
<path d="M20.0034 73.0581L20.4004 77.0043" stroke="#120071" stroke-linecap="round" stroke-linejoin="round"/>
<path d="M21.1179 83.9888L21.5139 87.9339" stroke="#120071" stroke-linecap="round" stroke-linejoin="round"/>
<path d="M14.9636 75.7773L18.0402 78.2688" stroke="#120071" stroke-linecap="round" stroke-linejoin="round"/>
<path d="M23.4771 82.7056L26.5546 85.216" stroke="#120071" stroke-linecap="round" stroke-linejoin="round"/>
<path d="M25.4788 74.7007L22.9863 77.7782" stroke="#120071" stroke-linecap="round" stroke-linejoin="round"/>
<path d="M18.5499 83.2148L16.0396 86.2924" stroke="#120071" stroke-linecap="round" stroke-linejoin="round"/>
<path d="M104.73 36.0569L102.441 30.469C103.84 28.3892 104.517 25.9068 104.367 23.4045C103.952 16.8375 97.8533 11.7381 90.5858 11.9461C83.1661 12.153 77.3145 17.8166 77.5214 24.5945C77.7274 31.7496 84.4208 36.8718 91.733 36.441C94.3524 36.2758 96.8782 35.4046 99.0423 33.9197L104.73 36.0569Z" stroke="#120071" stroke-linecap="round" stroke-linejoin="round"/>
<path d="M61.2344 33.2064C60.8853 33.5407 60.445 33.7641 59.969 33.8482C59.493 33.9323 59.0028 33.8733 58.5603 33.6788C58.1179 33.4843 57.7429 33.1629 57.4831 32.7553C57.2234 32.3477 57.0902 31.8722 57.1007 31.3889C57.1111 30.9058 57.2646 30.4364 57.5418 30.0405C57.819 29.6445 58.2073 29.3395 58.6578 29.1643C59.1083 28.9891 59.6006 28.9514 60.0725 29.0559C60.5444 29.1604 60.9747 29.4026 61.309 29.7518C61.7557 30.2205 61.9986 30.8472 61.9845 31.4945C61.9706 32.1419 61.7008 32.7574 61.2344 33.2064Z" stroke="#120071" stroke-linecap="round" stroke-linejoin="round"/>
<path d="M162.194 1L163.044 11.3082" stroke="#120071" stroke-linecap="round" stroke-linejoin="round"/>
<path d="M167.782 5.71924L157.475 6.58787" stroke="#120071" stroke-linecap="round" stroke-linejoin="round"/>
<path d="M21.6841 115.1C20.9656 114.219 20.0384 113.531 18.9866 113.1C17.1558 112.438 15.3599 113.023 13.2266 113.628C8.92818 114.822 4.32032 117.415 1.90247 115.625" stroke="#120071" stroke-linecap="round" stroke-linejoin="round"/>
<path d="M65.7646 116.61L65.5566 108.946" stroke="#120071" stroke-linecap="round" stroke-linejoin="round"/>
</svg>
