<svg width="20" height="24" viewBox="0 0 20 24" fill="none" xmlns="http://www.w3.org/2000/svg">
<path d="M15.3788 5.64285V3.84117C15.3788 3.36335 15.1889 2.90508 14.851 2.5672C14.5131 2.22933 14.0549 2.0395 13.5771 2.0395C13.0992 2.0395 12.641 2.22933 12.3031 2.5672C11.9652 2.90508 11.7755 3.36335 11.7755 3.84117V2.94034C11.7422 2.48645 11.5386 2.06193 11.2052 1.75207C10.8718 1.44222 10.4336 1.26999 9.97858 1.26999C9.52346 1.26999 9.08522 1.44222 8.75191 1.75207C8.41851 2.06193 8.21486 2.48645 8.1817 2.94034V3.84117C8.14845 3.38729 7.94477 2.96276 7.61145 2.65291C7.27812 2.34306 6.83988 2.17083 6.38478 2.17083C5.92968 2.17083 5.49144 2.34306 5.15811 2.65291C4.82478 2.96276 4.62107 3.38729 4.5879 3.84117V10.1278C4.11516 10.1278 3.64706 10.2211 3.21042 10.4024C2.77378 10.5835 2.37718 10.849 2.04335 11.1838C1.70951 11.5185 1.445 11.9159 1.26496 12.353C1.08492 12.79 0.992898 13.2584 0.994153 13.7311C0.995294 15.4903 1.54465 17.2054 2.56582 18.6378L3.87874 20.4682C4.37754 21.1673 5.03602 21.7372 5.79943 22.1306C6.56283 22.524 7.40911 22.7295 8.26795 22.7299H12.8584C13.6646 22.7312 14.4632 22.5735 15.2084 22.2658C15.9536 21.9581 16.6308 21.5066 17.2014 20.9369C17.772 20.3672 18.2247 19.6907 18.5334 18.9459C18.8423 18.2012 19.0013 17.4028 19.0013 16.5965V5.64285C19.0193 5.39584 18.9862 5.14776 18.9041 4.91412C18.822 4.68047 18.6926 4.46625 18.5239 4.28486C18.3554 4.10347 18.1511 3.95879 17.9241 3.85986C17.697 3.76092 17.452 3.70986 17.2044 3.70986C16.9567 3.70986 16.7117 3.76092 16.4847 3.85986C16.2576 3.95879 16.0535 4.10347 15.8848 4.28486C15.7161 4.46625 15.5867 4.68047 15.5046 4.91412C15.4225 5.14776 15.3894 5.39584 15.4075 5.64285H15.3788Z" stroke="black" stroke-linecap="round" stroke-linejoin="round"/>
</svg>
