<svg width="317" height="421" viewBox="0 0 317 421" fill="none" xmlns="http://www.w3.org/2000/svg">
<rect x="20" width="297" height="421" fill="#D9D9D9" fill-opacity="0.5"/>
<line x1="169.5" x2="169.5" y2="421" stroke="black"/>
<line x1="317" y1="211.5" x2="20" y2="211.5" stroke="black"/>
<path d="M10 130.368H2.72727V128.83H5.72798V125.709H2.72727V124.175H10V125.709H6.99574V128.83H10V130.368ZM10 122.935H4.54545V121.423H10V122.935ZM3.84233 122.175C3.84233 122.4 3.76776 122.593 3.61861 122.754C3.46709 122.913 3.28598 122.992 3.07528 122.992C2.86695 122.992 2.68821 122.913 2.53906 122.754C2.38755 122.593 2.31179 122.4 2.31179 122.175C2.31179 121.951 2.38755 121.759 2.53906 121.6C2.68821 121.439 2.86695 121.359 3.07528 121.359C3.28598 121.359 3.46709 121.439 3.61861 121.6C3.76776 121.759 3.84233 121.951 3.84233 122.175ZM12.1591 117.753C12.1591 118.243 12.0916 118.664 11.9567 119.014C11.8241 119.362 11.643 119.639 11.4134 119.845C11.1837 120.051 10.9257 120.185 10.6392 120.246L10.451 118.847C10.5599 118.805 10.6617 118.737 10.7564 118.645C10.8511 118.552 10.9268 118.43 10.9837 118.279C11.0429 118.125 11.0724 117.938 11.0724 117.718C11.0724 117.389 10.992 117.118 10.831 116.905C10.6723 116.689 10.406 116.581 10.032 116.581H9.03409V116.645C9.18561 116.712 9.32884 116.811 9.46378 116.944C9.59872 117.076 9.70881 117.247 9.79403 117.455C9.87926 117.663 9.92188 117.912 9.92188 118.201C9.92188 118.61 9.82718 118.983 9.63778 119.319C9.44602 119.653 9.15365 119.92 8.76065 120.118C8.36529 120.315 7.86577 120.413 7.26207 120.413C6.64418 120.413 6.12808 120.313 5.71378 120.111C5.29948 119.91 4.98935 119.643 4.78338 119.309C4.57741 118.973 4.47443 118.604 4.47443 118.204C4.47443 117.899 4.52652 117.643 4.63068 117.437C4.73248 117.231 4.86032 117.066 5.0142 116.94C5.16572 116.812 5.31487 116.714 5.46165 116.645V116.589H4.54545V115.086H10.0533C10.5173 115.086 10.9055 115.2 11.218 115.427C11.5305 115.655 11.7649 115.97 11.9212 116.372C12.0798 116.772 12.1591 117.233 12.1591 117.753ZM8.78551 117.721C8.78551 117.478 8.72514 117.272 8.6044 117.104C8.4813 116.933 8.30611 116.803 8.07884 116.713C7.8492 116.621 7.57457 116.574 7.25497 116.574C6.93537 116.574 6.65838 116.619 6.42401 116.709C6.18726 116.799 6.00379 116.93 5.87358 117.1C5.74337 117.27 5.67827 117.478 5.67827 117.721C5.67827 117.97 5.74574 118.18 5.88068 118.35C6.01326 118.52 6.19792 118.649 6.43466 118.737C6.6714 118.825 6.94484 118.868 7.25497 118.868C7.56984 118.868 7.84209 118.825 8.07173 118.737C8.29901 118.647 8.47538 118.518 8.60085 118.35C8.72396 118.18 8.78551 117.97 8.78551 117.721ZM6.84659 112.37H10V113.883H2.72727L2.72727 112.412H5.50781V112.349C5.18584 112.225 4.93371 112.027 4.75142 111.752C4.56676 111.477 4.47443 111.133 4.47443 110.719C4.47443 110.34 4.55729 110.01 4.72301 109.728C4.88636 109.444 5.12192 109.224 5.42969 109.067C5.73509 108.909 6.10085 108.831 6.52699 108.833H10V110.346H6.79688C6.4607 110.343 6.1991 110.429 6.01207 110.601C5.82505 110.772 5.73153 111.011 5.73153 111.319C5.73153 111.525 5.77533 111.707 5.86293 111.866C5.95052 112.022 6.07836 112.145 6.24645 112.235C6.41217 112.323 6.61222 112.367 6.84659 112.37ZM2.72727 103.762H10V105.3H2.72727V103.762ZM6.84659 101.012H10V102.525H4.54545V101.083H5.50781V101.02C5.19058 100.899 4.93963 100.696 4.75497 100.412C4.56795 100.128 4.47443 99.7837 4.47443 99.3789C4.47443 99.0001 4.55729 98.6699 4.72301 98.3881C4.88873 98.1064 5.12547 97.8874 5.43324 97.7312C5.73864 97.5749 6.10322 97.4968 6.52699 97.4968H10V99.0096H6.79688C6.46307 99.0072 6.20265 99.0924 6.01563 99.2653C5.82623 99.4381 5.73153 99.676 5.73153 99.979C5.73153 100.183 5.77533 100.363 5.86293 100.519C5.95052 100.673 6.07836 100.793 6.24645 100.881C6.41217 100.966 6.61222 101.01 6.84659 101.012ZM4.54545 93.3713H5.68182L5.68182 96.7377H4.54545L4.54545 93.3713ZM10 95.9672H4.15128C3.75592 95.9672 3.42803 95.8902 3.16761 95.7363C2.9072 95.5801 2.71188 95.367 2.58168 95.0971C2.45147 94.8272 2.38636 94.5207 2.38636 94.1774C2.38636 93.9454 2.40412 93.7335 2.43963 93.5417C2.47514 93.3476 2.5071 93.2032 2.53551 93.1085L3.67188 93.3784C3.65294 93.4376 3.63518 93.5109 3.61861 93.5985C3.60204 93.6838 3.59375 93.7714 3.59375 93.8613C3.59375 94.0839 3.64583 94.2389 3.75 94.3265C3.8518 94.4141 3.99503 94.4579 4.17969 94.4579H10V95.9672ZM2.72727 90.9343H10V92.4471H2.72727L2.72727 90.9343ZM7.67756 86.2246H4.54545V84.7118H10V86.1642H9.00923V86.2211C9.32884 86.3442 9.5857 86.5489 9.77983 86.8354C9.97396 87.1195 10.071 87.4663 10.071 87.8759C10.071 88.2405 9.98816 88.5613 9.82244 88.8382C9.65672 89.1152 9.42116 89.3319 9.11577 89.4881C8.81037 89.642 8.4446 89.7201 8.01847 89.7225H4.54545V88.2097H7.74858C8.07055 88.2073 8.32505 88.1209 8.51207 87.9505C8.6991 87.78 8.79261 87.5516 8.79261 87.2651C8.79261 87.0828 8.75118 86.9123 8.66832 86.7537C8.5831 86.5951 8.45762 86.4673 8.2919 86.3702C8.12618 86.2708 7.9214 86.2222 7.67756 86.2246ZM10.1065 81.016C10.1065 81.5771 9.9929 82.06 9.76563 82.4648C9.53598 82.8673 9.21165 83.1774 8.79261 83.3952C8.37121 83.613 7.87287 83.7219 7.29759 83.7219C6.73651 83.7219 6.24408 83.613 5.82031 83.3952C5.39654 83.1774 5.06629 82.8709 4.82955 82.4755C4.5928 82.0778 4.47443 81.6114 4.47443 81.0763C4.47443 80.7165 4.53243 80.3815 4.64844 80.0714C4.76207 79.7589 4.93371 79.4866 5.16335 79.2546C5.39299 79.0202 5.68182 78.8379 6.02983 78.7077C6.37547 78.5775 6.7803 78.5124 7.24432 78.5124H7.6598L7.6598 83.1183H6.7223L6.7223 79.9364C6.5045 79.9364 6.31155 79.9838 6.14347 80.0785C5.97538 80.1732 5.84399 80.3046 5.74929 80.4727C5.65223 80.6384 5.60369 80.8313 5.60369 81.0515C5.60369 81.2811 5.65696 81.4847 5.76349 81.6623C5.86766 81.8375 6.00852 81.9748 6.18608 82.0742C6.36127 82.1737 6.55658 82.2246 6.77202 82.2269H7.66335C7.93324 82.2269 8.16643 82.1772 8.36293 82.0778C8.55942 81.976 8.71094 81.8327 8.81747 81.6481C8.92401 81.4634 8.97727 81.2444 8.97727 80.9911C8.97727 80.823 8.9536 80.6692 8.90625 80.5295C8.8589 80.3898 8.78788 80.2702 8.69318 80.1708C8.59848 80.0714 8.48248 79.9956 8.34517 79.9435L8.4375 78.5444C8.77367 78.6154 9.06723 78.761 9.31818 78.9812C9.56676 79.199 9.76089 79.4807 9.90057 79.8263C10.0379 80.1696 10.1065 80.5662 10.1065 81.016ZM6.84659 76.0124H10V77.5252H4.54545V76.0835H5.50781V76.0195C5.19058 75.8988 4.93963 75.6964 4.75497 75.4123C4.56795 75.1282 4.47443 74.7837 4.47443 74.3789C4.47443 74.0001 4.55729 73.6699 4.72301 73.3881C4.88873 73.1064 5.12547 72.8874 5.43324 72.7312C5.73864 72.5749 6.10322 72.4968 6.52699 72.4968H10V74.0096H6.79688C6.46307 74.0072 6.20265 74.0924 6.01563 74.2653C5.82623 74.4381 5.73153 74.676 5.73153 74.979C5.73153 75.1826 5.77533 75.3626 5.86293 75.5188C5.95052 75.6727 6.07836 75.7934 6.24645 75.881C6.41217 75.9663 6.61222 76.0101 6.84659 76.0124ZM10.1065 68.84C10.1065 69.3987 9.98816 69.8793 9.75142 70.2818C9.51231 70.6819 9.18087 70.9896 8.7571 71.2051C8.33333 71.4181 7.84564 71.5247 7.29403 71.5247C6.73532 71.5247 6.24527 71.417 5.82386 71.2015C5.40009 70.9837 5.06984 70.6748 4.8331 70.2747C4.59399 69.8746 4.47443 69.3987 4.47443 68.8471C4.47443 68.3713 4.56084 67.9546 4.73366 67.5971C4.90649 67.2396 5.14915 66.9567 5.46165 66.7484C5.77415 66.5401 6.1411 66.4252 6.5625 66.4039V67.8315C6.29025 67.8717 6.07126 67.9783 5.90554 68.1511C5.73745 68.3216 5.65341 68.5453 5.65341 68.8223C5.65341 69.0566 5.71733 69.2614 5.84517 69.4366C5.97064 69.6094 6.15412 69.7444 6.3956 69.8414C6.63707 69.9385 6.92945 69.987 7.27273 69.987C7.62074 69.987 7.91667 69.9397 8.16051 69.845C8.40436 69.7479 8.5902 69.6118 8.71804 69.4366C8.84588 69.2614 8.9098 69.0566 8.9098 68.8223C8.9098 68.6494 8.87429 68.4944 8.80327 68.3571C8.73224 68.2174 8.62926 68.1026 8.49432 68.0126C8.35701 67.9203 8.19247 67.8599 8.00071 67.8315V66.4039C8.41738 66.4276 8.78433 66.5413 9.10156 66.7449C9.41643 66.9461 9.66264 67.2243 9.8402 67.5794C10.0178 67.9345 10.1065 68.3547 10.1065 68.84ZM10.1065 62.9496C10.1065 63.5107 9.9929 63.9936 9.76563 64.3984C9.53598 64.8009 9.21165 65.111 8.79261 65.3288C8.37121 65.5466 7.87287 65.6555 7.29759 65.6555C6.73651 65.6555 6.24408 65.5466 5.82031 65.3288C5.39654 65.111 5.06629 64.8045 4.82955 64.4091C4.5928 64.0114 4.47443 63.545 4.47443 63.0099C4.47443 62.6501 4.53243 62.3151 4.64844 62.005C4.76207 61.6925 4.93371 61.4202 5.16335 61.1882C5.39299 60.9538 5.68182 60.7715 6.02983 60.6413C6.37547 60.5111 6.7803 60.446 7.24432 60.446H7.6598V65.0518H6.7223V61.87C6.5045 61.87 6.31155 61.9174 6.14347 62.0121C5.97538 62.1068 5.84399 62.2382 5.74929 62.4062C5.65223 62.572 5.60369 62.7649 5.60369 62.9851C5.60369 63.2147 5.65696 63.4183 5.76349 63.5959C5.86766 63.7711 6.00852 63.9084 6.18608 64.0078C6.36127 64.1072 6.55658 64.1581 6.77202 64.1605H7.66335C7.93324 64.1605 8.16643 64.1108 8.36293 64.0114C8.55942 63.9096 8.71094 63.7663 8.81747 63.5817C8.92401 63.397 8.97727 63.178 8.97727 62.9247C8.97727 62.7566 8.9536 62.6027 8.90625 62.4631C8.8589 62.3234 8.78788 62.2038 8.69318 62.1044C8.59848 62.005 8.48248 61.9292 8.34517 61.8771L8.4375 60.478C8.77367 60.549 9.06723 60.6946 9.31818 60.9148C9.56676 61.1326 9.76089 61.4143 9.90057 61.7599C10.0379 62.1032 10.1065 62.4998 10.1065 62.9496Z" fill="#0C098C"/>
<path d="M59.8736 24V16.7273H61.1911V20.0689H61.2798L64.1172 16.7273H65.7259L62.9134 19.9908L65.7507 24H64.1669L61.9972 20.8821L61.1911 21.8338V24H59.8736ZM68.5987 24.1065C68.0518 24.1065 67.5795 23.9929 67.1818 23.7656C66.7865 23.536 66.4822 23.2116 66.2692 22.7926C66.0561 22.3712 65.9496 21.8752 65.9496 21.3047C65.9496 20.7436 66.0561 20.2512 66.2692 19.8274C66.4846 19.4013 66.7853 19.0698 67.1712 18.8331C67.5571 18.594 68.0104 18.4744 68.5312 18.4744C68.8674 18.4744 69.1847 18.5289 69.483 18.6378C69.7836 18.7443 70.0488 18.91 70.2784 19.1349C70.5104 19.3598 70.6927 19.6463 70.8253 19.9943C70.9579 20.34 71.0241 20.7519 71.0241 21.2301V21.6243H66.5533V20.7578H69.7919C69.7895 20.5116 69.7363 20.2926 69.6321 20.1009C69.5279 19.9067 69.3823 19.754 69.1953 19.6428C69.0107 19.5315 68.7952 19.4759 68.549 19.4759C68.2862 19.4759 68.0554 19.5398 67.8565 19.6676C67.6577 19.7931 67.5026 19.9588 67.3913 20.1648C67.2824 20.3684 67.2268 20.5921 67.2244 20.8359V21.5923C67.2244 21.9096 67.2824 22.1818 67.3984 22.4091C67.5144 22.634 67.6766 22.8068 67.8849 22.9276C68.0933 23.0459 68.3371 23.1051 68.6165 23.1051C68.8035 23.1051 68.9728 23.0791 69.1243 23.027C69.2758 22.9725 69.4072 22.8932 69.5185 22.7891C69.6297 22.6849 69.7138 22.5559 69.7706 22.402L70.9709 22.5369C70.8951 22.8542 70.7507 23.1312 70.5376 23.3679C70.3269 23.6023 70.0571 23.7846 69.728 23.9148C69.3989 24.0426 69.0225 24.1065 68.5987 24.1065ZM74.5265 24.1065C73.9796 24.1065 73.5073 23.9929 73.1096 23.7656C72.7142 23.536 72.41 23.2116 72.1969 22.7926C71.9838 22.3712 71.8773 21.8752 71.8773 21.3047C71.8773 20.7436 71.9838 20.2512 72.1969 19.8274C72.4123 19.4013 72.713 19.0698 73.0989 18.8331C73.4848 18.594 73.9382 18.4744 74.459 18.4744C74.7952 18.4744 75.1124 18.5289 75.4107 18.6378C75.7114 18.7443 75.9765 18.91 76.2061 19.1349C76.4382 19.3598 76.6204 19.6463 76.753 19.9943C76.8856 20.34 76.9519 20.7519 76.9519 21.2301V21.6243H72.481V20.7578H75.7196C75.7173 20.5116 75.664 20.2926 75.5598 20.1009C75.4557 19.9067 75.3101 19.754 75.123 19.6428C74.9384 19.5315 74.723 19.4759 74.4767 19.4759C74.214 19.4759 73.9831 19.5398 73.7843 19.6676C73.5854 19.7931 73.4303 19.9588 73.3191 20.1648C73.2102 20.3684 73.1545 20.5921 73.1522 20.8359V21.5923C73.1522 21.9096 73.2102 22.1818 73.3262 22.4091C73.4422 22.634 73.6043 22.8068 73.8127 22.9276C74.021 23.0459 74.2649 23.1051 74.5442 23.1051C74.7312 23.1051 74.9005 23.0791 75.052 23.027C75.2035 22.9725 75.3349 22.8932 75.4462 22.7891C75.5575 22.6849 75.6415 22.5559 75.6983 22.402L76.8986 22.5369C76.8229 22.8542 76.6784 23.1312 76.4654 23.3679C76.2547 23.6023 75.9848 23.7846 75.6557 23.9148C75.3266 24.0426 74.9502 24.1065 74.5265 24.1065ZM78.0394 26.0455V18.5455H79.3036V19.4474H79.3782C79.4445 19.3149 79.538 19.174 79.6587 19.0249C79.7795 18.8733 79.9428 18.7443 80.1488 18.6378C80.3548 18.5289 80.6175 18.4744 80.9371 18.4744C81.3585 18.4744 81.7385 18.5821 82.0771 18.7976C82.418 19.0107 82.6879 19.3267 82.8867 19.7457C83.0879 20.1624 83.1886 20.6738 83.1886 21.2798C83.1886 21.8788 83.0903 22.3878 82.8938 22.8068C82.6973 23.2259 82.4298 23.5455 82.0913 23.7656C81.7527 23.9858 81.3692 24.0959 80.9407 24.0959C80.6282 24.0959 80.369 24.0438 80.163 23.9396C79.957 23.8355 79.7913 23.71 79.6658 23.5632C79.5427 23.4141 79.4469 23.2732 79.3782 23.1406H79.3249V26.0455H78.0394ZM79.3001 21.2727C79.3001 21.6255 79.3498 21.9344 79.4492 22.1996C79.551 22.4647 79.6966 22.6719 79.886 22.821C80.0778 22.9678 80.3098 23.0412 80.582 23.0412C80.8661 23.0412 81.104 22.9654 81.2958 22.8139C81.4876 22.66 81.632 22.4505 81.729 22.1854C81.8285 21.9179 81.8782 21.6136 81.8782 21.2727C81.8782 20.9342 81.8297 20.6335 81.7326 20.3707C81.6355 20.108 81.4911 19.902 81.2994 19.7528C81.1076 19.6037 80.8685 19.5291 80.582 19.5291C80.3074 19.5291 80.0742 19.6013 79.8825 19.7457C79.6907 19.8902 79.5451 20.0926 79.4457 20.353C79.3486 20.6134 79.3001 20.92 79.3001 21.2727ZM90.7791 18.7266C90.746 18.4164 90.6063 18.175 90.3601 18.0021C90.1162 17.8293 89.799 17.7429 89.4084 17.7429C89.1338 17.7429 88.8982 17.7843 88.7017 17.8672C88.5052 17.95 88.3549 18.0625 88.2507 18.2045C88.1465 18.3466 88.0933 18.5088 88.0909 18.6911C88.0909 18.8426 88.1252 18.974 88.1939 19.0852C88.2649 19.1965 88.3608 19.2912 88.4815 19.3693C88.6023 19.4451 88.736 19.509 88.8828 19.5611C89.0296 19.6132 89.1776 19.657 89.3267 19.6925L90.0085 19.8629C90.2831 19.9268 90.5471 20.0133 90.8004 20.1222C91.0561 20.2311 91.2846 20.3684 91.4858 20.5341C91.6894 20.6998 91.8504 20.8999 91.9688 21.1342C92.0871 21.3686 92.1463 21.6432 92.1463 21.9581C92.1463 22.3842 92.0374 22.7595 91.8196 23.0838C91.6018 23.4058 91.2869 23.6579 90.875 23.8402C90.4654 24.0201 89.9695 24.1101 89.3871 24.1101C88.8213 24.1101 88.33 24.0225 87.9134 23.8473C87.4991 23.6721 87.1747 23.4164 86.9403 23.0803C86.7083 22.7441 86.5829 22.3345 86.5639 21.8516H87.8601C87.879 22.1049 87.9571 22.3156 88.0945 22.4837C88.2318 22.6518 88.4105 22.7772 88.6307 22.8601C88.8532 22.9429 89.1018 22.9844 89.3764 22.9844C89.6629 22.9844 89.9138 22.9418 90.1293 22.8565C90.3471 22.7689 90.5175 22.6482 90.6406 22.4943C90.7637 22.3381 90.8265 22.1558 90.8288 21.9474C90.8265 21.758 90.7708 21.6018 90.6619 21.4787C90.553 21.3532 90.4003 21.2491 90.2038 21.1662C90.0097 21.081 89.7824 21.0052 89.522 20.9389L88.6946 20.7259C88.0956 20.572 87.6222 20.3388 87.2741 20.0263C86.9285 19.7114 86.7557 19.2936 86.7557 18.7727C86.7557 18.3442 86.8717 17.969 87.1037 17.647C87.3381 17.325 87.6565 17.0753 88.0589 16.8977C88.4614 16.7178 88.9171 16.6278 89.4261 16.6278C89.9422 16.6278 90.3944 16.7178 90.7827 16.8977C91.1733 17.0753 91.4799 17.3227 91.7024 17.6399C91.925 17.9548 92.0398 18.317 92.0469 18.7266H90.7791ZM94.8336 24.1101C94.488 24.1101 94.1767 24.0485 93.8997 23.9254C93.6251 23.8 93.4073 23.6153 93.2463 23.3714C93.0877 23.1276 93.0083 22.8269 93.0083 22.4695C93.0083 22.1617 93.0652 21.9072 93.1788 21.706C93.2924 21.5047 93.4475 21.3438 93.644 21.223C93.8405 21.1023 94.0618 21.0111 94.3081 20.9496C94.5566 20.8857 94.8135 20.8395 95.0787 20.8111C95.3983 20.7779 95.6575 20.7483 95.8564 20.7223C96.0552 20.6939 96.1996 20.6513 96.2896 20.5945C96.3819 20.5353 96.4281 20.4441 96.4281 20.321V20.2997C96.4281 20.0322 96.3488 19.825 96.1902 19.6783C96.0315 19.5315 95.8031 19.4581 95.5048 19.4581C95.1899 19.4581 94.9402 19.5268 94.7555 19.6641C94.5732 19.8014 94.4501 19.9635 94.3862 20.1506L93.1859 19.9801C93.2806 19.6487 93.4368 19.3717 93.6547 19.1491C93.8725 18.9242 94.1388 18.7562 94.4537 18.6449C94.7685 18.5312 95.1165 18.4744 95.4977 18.4744C95.7605 18.4744 96.0221 18.5052 96.2825 18.5668C96.5429 18.6283 96.7808 18.7301 96.9963 18.8722C97.2117 19.0118 97.3845 19.2024 97.5147 19.4439C97.6473 19.6854 97.7136 19.9872 97.7136 20.3494V24H96.4778V23.2507H96.4352C96.3571 23.4022 96.247 23.5443 96.1049 23.6768C95.9653 23.8071 95.7889 23.9124 95.5758 23.9929C95.3651 24.071 95.1177 24.1101 94.8336 24.1101ZM95.1674 23.1655C95.4255 23.1655 95.6492 23.1146 95.8386 23.0128C96.028 22.9086 96.1736 22.7713 96.2754 22.6009C96.3796 22.4304 96.4316 22.2446 96.4316 22.0433V21.4006C96.3914 21.4337 96.3227 21.4645 96.2257 21.4929C96.131 21.5213 96.0244 21.5462 95.9061 21.5675C95.7877 21.5888 95.6705 21.6077 95.5545 21.6243C95.4385 21.6409 95.3379 21.6551 95.2527 21.6669C95.0609 21.6929 94.8893 21.7356 94.7377 21.7947C94.5862 21.8539 94.4667 21.9368 94.3791 22.0433C94.2915 22.1475 94.2477 22.2824 94.2477 22.4482C94.2477 22.6849 94.3341 22.8636 94.5069 22.9844C94.6797 23.1051 94.8999 23.1655 95.1674 23.1655ZM101.73 18.5455V19.5398H98.5943V18.5455H101.73ZM99.3684 17.2386H100.654V22.3594C100.654 22.5322 100.68 22.6648 100.732 22.7571C100.787 22.8471 100.858 22.9086 100.945 22.9418C101.033 22.9749 101.13 22.9915 101.236 22.9915C101.317 22.9915 101.39 22.9856 101.456 22.9737C101.525 22.9619 101.577 22.9512 101.613 22.9418L101.829 23.9467C101.761 23.9704 101.662 23.9964 101.535 24.0249C101.409 24.0533 101.255 24.0698 101.073 24.0746C100.751 24.084 100.461 24.0355 100.203 23.929C99.9449 23.8201 99.7401 23.652 99.5886 23.4247C99.4395 23.1974 99.3661 22.9134 99.3684 22.5724V17.2386ZM102.805 24V18.5455H104.091V24H102.805ZM103.451 17.7713C103.248 17.7713 103.073 17.7038 102.926 17.5689C102.779 17.4316 102.706 17.267 102.706 17.0753C102.706 16.8812 102.779 16.7166 102.926 16.5817C103.073 16.4444 103.248 16.3757 103.451 16.3757C103.657 16.3757 103.833 16.4444 103.977 16.5817C104.124 16.7166 104.197 16.8812 104.197 17.0753C104.197 17.267 104.124 17.4316 103.977 17.5689C103.833 17.7038 103.657 17.7713 103.451 17.7713ZM109.724 19.9872L108.552 20.1151C108.519 19.9967 108.461 19.8854 108.378 19.7812C108.297 19.6771 108.188 19.593 108.051 19.5291C107.914 19.4652 107.746 19.4332 107.547 19.4332C107.279 19.4332 107.054 19.4912 106.872 19.6072C106.692 19.7232 106.603 19.8736 106.606 20.0582C106.603 20.2169 106.661 20.3459 106.78 20.4453C106.9 20.5447 107.099 20.6264 107.376 20.6903L108.307 20.8892C108.823 21.0005 109.206 21.1768 109.457 21.4183C109.711 21.6598 109.838 21.9759 109.841 22.3665C109.838 22.7098 109.738 23.0128 109.539 23.2756C109.342 23.536 109.069 23.7396 108.719 23.8864C108.368 24.0331 107.966 24.1065 107.511 24.1065C106.844 24.1065 106.306 23.9669 105.899 23.6875C105.492 23.4058 105.249 23.014 105.171 22.5121L106.425 22.3913C106.481 22.6375 106.602 22.8234 106.787 22.9489C106.971 23.0743 107.212 23.1371 107.508 23.1371C107.813 23.1371 108.058 23.0743 108.243 22.9489C108.43 22.8234 108.523 22.6683 108.523 22.4837C108.523 22.3274 108.463 22.1984 108.342 22.0966C108.224 21.9948 108.039 21.9167 107.788 21.8622L106.858 21.6669C106.335 21.558 105.948 21.3745 105.697 21.1165C105.446 20.8561 105.321 20.527 105.324 20.1293C105.321 19.7931 105.412 19.5019 105.597 19.2557C105.784 19.0071 106.043 18.8153 106.375 18.6804C106.709 18.5431 107.093 18.4744 107.529 18.4744C108.168 18.4744 108.671 18.6106 109.038 18.8828C109.407 19.1551 109.636 19.5232 109.724 19.9872ZM113.664 18.5455V19.5398H110.439V18.5455H113.664ZM111.245 24V18.0305C111.245 17.6636 111.321 17.3582 111.472 17.1143C111.626 16.8705 111.832 16.6882 112.09 16.5675C112.348 16.4467 112.635 16.3864 112.95 16.3864C113.172 16.3864 113.37 16.4041 113.543 16.4396C113.716 16.4751 113.843 16.5071 113.926 16.5355L113.671 17.5298C113.616 17.5133 113.548 17.4967 113.465 17.4801C113.382 17.4612 113.289 17.4517 113.188 17.4517C112.949 17.4517 112.779 17.5097 112.68 17.6257C112.583 17.7393 112.534 17.9027 112.534 18.1158V24H111.245ZM114.67 24V18.5455H115.956V24H114.67ZM115.317 17.7713C115.113 17.7713 114.938 17.7038 114.791 17.5689C114.644 17.4316 114.571 17.267 114.571 17.0753C114.571 16.8812 114.644 16.7166 114.791 16.5817C114.938 16.4444 115.113 16.3757 115.317 16.3757C115.523 16.3757 115.698 16.4444 115.842 16.5817C115.989 16.7166 116.062 16.8812 116.062 17.0753C116.062 17.267 115.989 17.4316 115.842 17.5689C115.698 17.7038 115.523 17.7713 115.317 17.7713ZM119.692 24.1065C119.146 24.1065 118.673 23.9929 118.276 23.7656C117.88 23.536 117.576 23.2116 117.363 22.7926C117.15 22.3712 117.043 21.8752 117.043 21.3047C117.043 20.7436 117.15 20.2512 117.363 19.8274C117.578 19.4013 117.879 19.0698 118.265 18.8331C118.651 18.594 119.104 18.4744 119.625 18.4744C119.961 18.4744 120.278 18.5289 120.577 18.6378C120.877 18.7443 121.143 18.91 121.372 19.1349C121.604 19.3598 121.786 19.6463 121.919 19.9943C122.052 20.34 122.118 20.7519 122.118 21.2301V21.6243H117.647V20.7578H120.886C120.883 20.5116 120.83 20.2926 120.726 20.1009C120.622 19.9067 120.476 19.754 120.289 19.6428C120.104 19.5315 119.889 19.4759 119.643 19.4759C119.38 19.4759 119.149 19.5398 118.95 19.6676C118.751 19.7931 118.596 19.9588 118.485 20.1648C118.376 20.3684 118.321 20.5921 118.318 20.8359V21.5923C118.318 21.9096 118.376 22.1818 118.492 22.4091C118.608 22.634 118.77 22.8068 118.979 22.9276C119.187 23.0459 119.431 23.1051 119.71 23.1051C119.897 23.1051 120.067 23.0791 120.218 23.027C120.37 22.9725 120.501 22.8932 120.612 22.7891C120.723 22.6849 120.808 22.5559 120.864 22.402L122.065 22.5369C121.989 22.8542 121.844 23.1312 121.631 23.3679C121.421 23.6023 121.151 23.7846 120.822 23.9148C120.493 24.0426 120.116 24.1065 119.692 24.1065ZM125.23 24.0959C124.801 24.0959 124.418 23.9858 124.079 23.7656C123.74 23.5455 123.473 23.2259 123.276 22.8068C123.08 22.3878 122.982 21.8788 122.982 21.2798C122.982 20.6738 123.081 20.1624 123.28 19.7457C123.481 19.3267 123.752 19.0107 124.093 18.7976C124.434 18.5821 124.814 18.4744 125.233 18.4744C125.553 18.4744 125.816 18.5289 126.021 18.6378C126.227 18.7443 126.391 18.8733 126.512 19.0249C126.632 19.174 126.726 19.3149 126.792 19.4474H126.845V16.7273H128.134V24H126.87V23.1406H126.792C126.726 23.2732 126.63 23.4141 126.504 23.5632C126.379 23.71 126.213 23.8355 126.007 23.9396C125.801 24.0438 125.542 24.0959 125.23 24.0959ZM125.588 23.0412C125.86 23.0412 126.093 22.9678 126.284 22.821C126.476 22.6719 126.622 22.4647 126.721 22.1996C126.82 21.9344 126.87 21.6255 126.87 21.2727C126.87 20.92 126.82 20.6134 126.721 20.353C126.624 20.0926 126.48 19.8902 126.288 19.7457C126.098 19.6013 125.865 19.5291 125.588 19.5291C125.302 19.5291 125.063 19.6037 124.871 19.7528C124.679 19.902 124.535 20.108 124.438 20.3707C124.341 20.6335 124.292 20.9342 124.292 21.2727C124.292 21.6136 124.341 21.9179 124.438 22.1854C124.537 22.4505 124.683 22.66 124.874 22.8139C125.069 22.9654 125.307 23.0412 125.588 23.0412Z" fill="#0C098C"/>
<path d="M75.899 226.727H77.5112L79.6703 231.997H79.7555L81.9146 226.727H83.5268V234H82.2626V229.004H82.1951L80.1852 233.979H79.2406L77.2306 228.993H77.1632V234H75.899V226.727ZM87.2839 234.107C86.7512 234.107 86.2896 233.989 85.899 233.755C85.5083 233.521 85.2053 233.193 84.9899 232.771C84.7768 232.35 84.6703 231.857 84.6703 231.294C84.6703 230.731 84.7768 230.237 84.9899 229.813C85.2053 229.389 85.5083 229.06 85.899 228.826C86.2896 228.592 86.7512 228.474 87.2839 228.474C87.8166 228.474 88.2782 228.592 88.6689 228.826C89.0595 229.06 89.3613 229.389 89.5744 229.813C89.7898 230.237 89.8975 230.731 89.8975 231.294C89.8975 231.857 89.7898 232.35 89.5744 232.771C89.3613 233.193 89.0595 233.521 88.6689 233.755C88.2782 233.989 87.8166 234.107 87.2839 234.107ZM87.291 233.077C87.5798 233.077 87.8213 232.997 88.0154 232.839C88.2096 232.678 88.354 232.462 88.4487 232.192C88.5458 231.923 88.5943 231.622 88.5943 231.29C88.5943 230.957 88.5458 230.655 88.4487 230.385C88.354 230.113 88.2096 229.896 88.0154 229.735C87.8213 229.574 87.5798 229.494 87.291 229.494C86.9951 229.494 86.7489 229.574 86.5524 229.735C86.3583 229.896 86.2127 230.113 86.1156 230.385C86.0209 230.655 85.9735 230.957 85.9735 231.29C85.9735 231.622 86.0209 231.923 86.1156 232.192C86.2127 232.462 86.3583 232.678 86.5524 232.839C86.7489 232.997 86.9951 233.077 87.291 233.077ZM92.2741 230.804V234H90.9886V228.545H92.2173V229.472H92.2812C92.4067 229.167 92.6068 228.924 92.8814 228.744C93.1584 228.564 93.5005 228.474 93.9077 228.474C94.2841 228.474 94.612 228.555 94.8913 228.716C95.1731 228.877 95.3909 229.11 95.5447 229.415C95.701 229.721 95.7779 230.091 95.7756 230.527V234H94.4901V230.726C94.4901 230.361 94.3954 230.076 94.206 229.87C94.0189 229.664 93.7597 229.561 93.4283 229.561C93.2034 229.561 93.0033 229.611 92.8281 229.71C92.6553 229.807 92.5192 229.948 92.4197 230.133C92.3227 230.317 92.2741 230.541 92.2741 230.804ZM97.0824 234V228.545H98.3679V234H97.0824ZM97.7287 227.771C97.5251 227.771 97.3499 227.704 97.2031 227.569C97.0563 227.432 96.983 227.267 96.983 227.075C96.983 226.881 97.0563 226.717 97.2031 226.582C97.3499 226.444 97.5251 226.376 97.7287 226.376C97.9347 226.376 98.1098 226.444 98.2543 226.582C98.401 226.717 98.4744 226.881 98.4744 227.075C98.4744 227.267 98.401 227.432 98.2543 227.569C98.1098 227.704 97.9347 227.771 97.7287 227.771ZM102.414 228.545V229.54H99.2779V228.545H102.414ZM100.052 227.239H101.338V232.359C101.338 232.532 101.364 232.665 101.416 232.757C101.47 232.847 101.541 232.909 101.629 232.942C101.716 232.975 101.813 232.991 101.92 232.991C102 232.991 102.074 232.986 102.14 232.974C102.209 232.962 102.261 232.951 102.296 232.942L102.513 233.947C102.444 233.97 102.346 233.996 102.218 234.025C102.093 234.053 101.939 234.07 101.757 234.075C101.435 234.084 101.145 234.036 100.887 233.929C100.628 233.82 100.424 233.652 100.272 233.425C100.123 233.197 100.05 232.913 100.052 232.572V227.239ZM105.809 234.107C105.277 234.107 104.815 233.989 104.424 233.755C104.034 233.521 103.731 233.193 103.515 232.771C103.302 232.35 103.196 231.857 103.196 231.294C103.196 230.731 103.302 230.237 103.515 229.813C103.731 229.389 104.034 229.06 104.424 228.826C104.815 228.592 105.277 228.474 105.809 228.474C106.342 228.474 106.804 228.592 107.194 228.826C107.585 229.06 107.887 229.389 108.1 229.813C108.315 230.237 108.423 230.731 108.423 231.294C108.423 231.857 108.315 232.35 108.1 232.771C107.887 233.193 107.585 233.521 107.194 233.755C106.804 233.989 106.342 234.107 105.809 234.107ZM105.816 233.077C106.105 233.077 106.347 232.997 106.541 232.839C106.735 232.678 106.879 232.462 106.974 232.192C107.071 231.923 107.12 231.622 107.12 231.29C107.12 230.957 107.071 230.655 106.974 230.385C106.879 230.113 106.735 229.896 106.541 229.735C106.347 229.574 106.105 229.494 105.816 229.494C105.52 229.494 105.274 229.574 105.078 229.735C104.884 229.896 104.738 230.113 104.641 230.385C104.546 230.655 104.499 230.957 104.499 231.29C104.499 231.622 104.546 231.923 104.641 232.192C104.738 232.462 104.884 232.678 105.078 232.839C105.274 232.997 105.52 233.077 105.816 233.077ZM109.514 234V228.545H110.76V229.455H110.817C110.917 229.14 111.087 228.897 111.329 228.727C111.573 228.554 111.851 228.467 112.163 228.467C112.234 228.467 112.314 228.471 112.401 228.478C112.491 228.483 112.566 228.491 112.625 228.503V229.685C112.57 229.666 112.484 229.65 112.366 229.636C112.25 229.619 112.137 229.611 112.028 229.611C111.794 229.611 111.583 229.662 111.396 229.763C111.211 229.863 111.066 230.001 110.959 230.179C110.853 230.357 110.8 230.561 110.8 230.793V234H109.514Z" fill="#0C098C"/>
<path d="M204.415 234V226.727H205.732V230.069H205.821L208.658 226.727H210.267L207.454 229.991L210.292 234H208.708L206.538 230.882L205.732 231.834V234H204.415ZM213.14 234.107C212.593 234.107 212.121 233.993 211.723 233.766C211.327 233.536 211.023 233.212 210.81 232.793C210.597 232.371 210.491 231.875 210.491 231.305C210.491 230.744 210.597 230.251 210.81 229.827C211.026 229.401 211.326 229.07 211.712 228.833C212.098 228.594 212.551 228.474 213.072 228.474C213.408 228.474 213.726 228.529 214.024 228.638C214.325 228.744 214.59 228.91 214.819 229.135C215.051 229.36 215.234 229.646 215.366 229.994C215.499 230.34 215.565 230.752 215.565 231.23V231.624H211.094V230.758H214.333C214.331 230.512 214.277 230.293 214.173 230.101C214.069 229.907 213.923 229.754 213.736 229.643C213.552 229.531 213.336 229.476 213.09 229.476C212.827 229.476 212.596 229.54 212.398 229.668C212.199 229.793 212.044 229.959 211.932 230.165C211.823 230.368 211.768 230.592 211.765 230.836V231.592C211.765 231.91 211.823 232.182 211.939 232.409C212.055 232.634 212.218 232.807 212.426 232.928C212.634 233.046 212.878 233.105 213.157 233.105C213.345 233.105 213.514 233.079 213.665 233.027C213.817 232.973 213.948 232.893 214.059 232.789C214.171 232.685 214.255 232.556 214.312 232.402L215.512 232.537C215.436 232.854 215.292 233.131 215.079 233.368C214.868 233.602 214.598 233.785 214.269 233.915C213.94 234.043 213.564 234.107 213.14 234.107ZM219.067 234.107C218.521 234.107 218.048 233.993 217.651 233.766C217.255 233.536 216.951 233.212 216.738 232.793C216.525 232.371 216.418 231.875 216.418 231.305C216.418 230.744 216.525 230.251 216.738 229.827C216.953 229.401 217.254 229.07 217.64 228.833C218.026 228.594 218.479 228.474 219 228.474C219.336 228.474 219.653 228.529 219.952 228.638C220.252 228.744 220.518 228.91 220.747 229.135C220.979 229.36 221.161 229.646 221.294 229.994C221.427 230.34 221.493 230.752 221.493 231.23V231.624H217.022V230.758H220.261C220.258 230.512 220.205 230.293 220.101 230.101C219.997 229.907 219.851 229.754 219.664 229.643C219.479 229.531 219.264 229.476 219.018 229.476C218.755 229.476 218.524 229.54 218.325 229.668C218.126 229.793 217.971 229.959 217.86 230.165C217.751 230.368 217.696 230.592 217.693 230.836V231.592C217.693 231.91 217.751 232.182 217.867 232.409C217.983 232.634 218.145 232.807 218.354 232.928C218.562 233.046 218.806 233.105 219.085 233.105C219.272 233.105 219.442 233.079 219.593 233.027C219.745 232.973 219.876 232.893 219.987 232.789C220.098 232.685 220.183 232.556 220.239 232.402L221.44 232.537C221.364 232.854 221.219 233.131 221.006 233.368C220.796 233.602 220.526 233.785 220.197 233.915C219.868 234.043 219.491 234.107 219.067 234.107ZM222.58 236.045V228.545H223.845V229.447H223.919C223.985 229.315 224.079 229.174 224.2 229.025C224.32 228.873 224.484 228.744 224.69 228.638C224.896 228.529 225.159 228.474 225.478 228.474C225.9 228.474 226.28 228.582 226.618 228.798C226.959 229.011 227.229 229.327 227.428 229.746C227.629 230.162 227.73 230.674 227.73 231.28C227.73 231.879 227.631 232.388 227.435 232.807C227.238 233.226 226.971 233.545 226.632 233.766C226.294 233.986 225.91 234.096 225.482 234.096C225.169 234.096 224.91 234.044 224.704 233.94C224.498 233.835 224.332 233.71 224.207 233.563C224.084 233.414 223.988 233.273 223.919 233.141H223.866V236.045H222.58ZM223.841 231.273C223.841 231.625 223.891 231.934 223.99 232.2C224.092 232.465 224.238 232.672 224.427 232.821C224.619 232.968 224.851 233.041 225.123 233.041C225.407 233.041 225.645 232.965 225.837 232.814C226.029 232.66 226.173 232.451 226.27 232.185C226.369 231.918 226.419 231.614 226.419 231.273C226.419 230.934 226.371 230.634 226.274 230.371C226.177 230.108 226.032 229.902 225.84 229.753C225.649 229.604 225.41 229.529 225.123 229.529C224.848 229.529 224.615 229.601 224.423 229.746C224.232 229.89 224.086 230.093 223.987 230.353C223.89 230.613 223.841 230.92 223.841 231.273ZM232.685 226.727V234H231.368V226.727H232.685ZM235.341 230.804V234H234.055V228.545H235.284V229.472H235.348C235.473 229.167 235.673 228.924 235.948 228.744C236.225 228.564 236.567 228.474 236.974 228.474C237.35 228.474 237.678 228.555 237.958 228.716C238.239 228.877 238.457 229.11 238.611 229.415C238.767 229.721 238.844 230.091 238.842 230.527V234H237.556V230.726C237.556 230.361 237.462 230.076 237.272 229.87C237.085 229.664 236.826 229.561 236.495 229.561C236.27 229.561 236.07 229.611 235.895 229.71C235.722 229.807 235.586 229.948 235.486 230.133C235.389 230.317 235.341 230.541 235.341 230.804ZM242.912 228.545V229.54H239.687V228.545H242.912ZM240.493 234V228.031C240.493 227.664 240.569 227.358 240.721 227.114C240.874 226.871 241.08 226.688 241.338 226.567C241.596 226.447 241.883 226.386 242.198 226.386C242.42 226.386 242.618 226.404 242.791 226.44C242.964 226.475 243.092 226.507 243.174 226.536L242.919 227.53C242.864 227.513 242.796 227.497 242.713 227.48C242.63 227.461 242.538 227.452 242.436 227.452C242.197 227.452 242.027 227.51 241.928 227.626C241.831 227.739 241.782 227.903 241.782 228.116V234H240.493ZM246.093 234.107C245.56 234.107 245.098 233.989 244.708 233.755C244.317 233.521 244.014 233.193 243.798 232.771C243.585 232.35 243.479 231.857 243.479 231.294C243.479 230.731 243.585 230.237 243.798 229.813C244.014 229.389 244.317 229.06 244.708 228.826C245.098 228.592 245.56 228.474 246.093 228.474C246.625 228.474 247.087 228.592 247.477 228.826C247.868 229.06 248.17 229.389 248.383 229.813C248.598 230.237 248.706 230.731 248.706 231.294C248.706 231.857 248.598 232.35 248.383 232.771C248.17 233.193 247.868 233.521 247.477 233.755C247.087 233.989 246.625 234.107 246.093 234.107ZM246.1 233.077C246.388 233.077 246.63 232.997 246.824 232.839C247.018 232.678 247.163 232.462 247.257 232.192C247.354 231.923 247.403 231.622 247.403 231.29C247.403 230.957 247.354 230.655 247.257 230.385C247.163 230.113 247.018 229.896 246.824 229.735C246.63 229.574 246.388 229.494 246.1 229.494C245.804 229.494 245.557 229.574 245.361 229.735C245.167 229.896 245.021 230.113 244.924 230.385C244.829 230.655 244.782 230.957 244.782 231.29C244.782 231.622 244.829 231.923 244.924 232.192C245.021 232.462 245.167 232.678 245.361 232.839C245.557 232.997 245.804 233.077 246.1 233.077ZM249.797 234V228.545H251.044V229.455H251.1C251.2 229.14 251.37 228.897 251.612 228.727C251.856 228.554 252.134 228.467 252.446 228.467C252.517 228.467 252.597 228.471 252.684 228.478C252.774 228.483 252.849 228.491 252.908 228.503V229.685C252.854 229.666 252.767 229.65 252.649 229.636C252.533 229.619 252.42 229.611 252.311 229.611C252.077 229.611 251.866 229.662 251.679 229.763C251.495 229.863 251.349 230.001 251.243 230.179C251.136 230.357 251.083 230.561 251.083 230.793V234H249.797ZM253.762 234V228.545H254.991V229.472H255.055C255.168 229.16 255.357 228.916 255.619 228.741C255.882 228.563 256.196 228.474 256.56 228.474C256.93 228.474 257.241 228.564 257.494 228.744C257.75 228.922 257.93 229.165 258.034 229.472H258.091C258.212 229.169 258.415 228.928 258.702 228.748C258.991 228.566 259.333 228.474 259.728 228.474C260.23 228.474 260.639 228.633 260.957 228.95C261.274 229.268 261.433 229.73 261.433 230.339V234H260.143V230.538C260.143 230.199 260.054 229.952 259.874 229.795C259.694 229.637 259.473 229.558 259.213 229.558C258.903 229.558 258.66 229.655 258.485 229.849C258.312 230.04 258.226 230.29 258.226 230.598V234H256.965V230.484C256.965 230.203 256.88 229.978 256.71 229.81C256.541 229.642 256.321 229.558 256.049 229.558C255.864 229.558 255.696 229.605 255.545 229.7C255.393 229.792 255.272 229.923 255.183 230.094C255.093 230.262 255.048 230.458 255.048 230.683V234H253.762ZM265.151 234.107C264.605 234.107 264.132 233.993 263.735 233.766C263.339 233.536 263.035 233.212 262.822 232.793C262.609 232.371 262.502 231.875 262.502 231.305C262.502 230.744 262.609 230.251 262.822 229.827C263.037 229.401 263.338 229.07 263.724 228.833C264.11 228.594 264.563 228.474 265.084 228.474C265.42 228.474 265.737 228.529 266.036 228.638C266.336 228.744 266.602 228.91 266.831 229.135C267.063 229.36 267.245 229.646 267.378 229.994C267.511 230.34 267.577 230.752 267.577 231.23V231.624H263.106V230.758H266.345C266.342 230.512 266.289 230.293 266.185 230.101C266.081 229.907 265.935 229.754 265.748 229.643C265.563 229.531 265.348 229.476 265.102 229.476C264.839 229.476 264.608 229.54 264.409 229.668C264.21 229.793 264.055 229.959 263.944 230.165C263.835 230.368 263.78 230.592 263.777 230.836V231.592C263.777 231.91 263.835 232.182 263.951 232.409C264.067 232.634 264.229 232.807 264.438 232.928C264.646 233.046 264.89 233.105 265.169 233.105C265.356 233.105 265.526 233.079 265.677 233.027C265.829 232.973 265.96 232.893 266.071 232.789C266.182 232.685 266.267 232.556 266.323 232.402L267.524 232.537C267.448 232.854 267.303 233.131 267.09 233.368C266.88 233.602 266.61 233.785 266.281 233.915C265.952 234.043 265.575 234.107 265.151 234.107ZM270.689 234.096C270.26 234.096 269.877 233.986 269.538 233.766C269.199 233.545 268.932 233.226 268.735 232.807C268.539 232.388 268.441 231.879 268.441 231.28C268.441 230.674 268.54 230.162 268.739 229.746C268.94 229.327 269.211 229.011 269.552 228.798C269.893 228.582 270.273 228.474 270.692 228.474C271.012 228.474 271.275 228.529 271.48 228.638C271.686 228.744 271.85 228.873 271.971 229.025C272.091 229.174 272.185 229.315 272.251 229.447H272.304V226.727H273.593V234H272.329V233.141H272.251C272.185 233.273 272.089 233.414 271.963 233.563C271.838 233.71 271.672 233.835 271.466 233.94C271.26 234.044 271.001 234.096 270.689 234.096ZM271.047 233.041C271.319 233.041 271.551 232.968 271.743 232.821C271.935 232.672 272.081 232.465 272.18 232.2C272.279 231.934 272.329 231.625 272.329 231.273C272.329 230.92 272.279 230.613 272.18 230.353C272.083 230.093 271.939 229.89 271.747 229.746C271.557 229.601 271.324 229.529 271.047 229.529C270.761 229.529 270.522 229.604 270.33 229.753C270.138 229.902 269.994 230.108 269.897 230.371C269.8 230.634 269.751 230.934 269.751 231.273C269.751 231.614 269.8 231.918 269.897 232.185C269.996 232.451 270.142 232.66 270.333 232.814C270.528 232.965 270.766 233.041 271.047 233.041Z" fill="#0C098C"/>
<path d="M201.114 16.7273H202.726L204.885 21.9972H204.97L207.129 16.7273H208.742V24H207.477V19.0036H207.41L205.4 23.9787H204.455L202.445 18.9929H202.378V24H201.114V16.7273ZM211.689 24.1101C211.343 24.1101 211.032 24.0485 210.755 23.9254C210.481 23.8 210.263 23.6153 210.102 23.3714C209.943 23.1276 209.864 22.8269 209.864 22.4695C209.864 22.1617 209.921 21.9072 210.034 21.706C210.148 21.5047 210.303 21.3438 210.499 21.223C210.696 21.1023 210.917 21.0111 211.164 20.9496C211.412 20.8857 211.669 20.8395 211.934 20.8111C212.254 20.7779 212.513 20.7483 212.712 20.7223C212.911 20.6939 213.055 20.6513 213.145 20.5945C213.237 20.5353 213.284 20.4441 213.284 20.321V20.2997C213.284 20.0322 213.204 19.825 213.046 19.6783C212.887 19.5315 212.659 19.4581 212.36 19.4581C212.045 19.4581 211.796 19.5268 211.611 19.6641C211.429 19.8014 211.306 19.9635 211.242 20.1506L210.041 19.9801C210.136 19.6487 210.292 19.3717 210.51 19.1491C210.728 18.9242 210.994 18.7562 211.309 18.6449C211.624 18.5312 211.972 18.4744 212.353 18.4744C212.616 18.4744 212.878 18.5052 213.138 18.5668C213.398 18.6283 213.636 18.7301 213.852 18.8722C214.067 19.0118 214.24 19.2024 214.37 19.4439C214.503 19.6854 214.569 19.9872 214.569 20.3494V24H213.333V23.2507H213.291C213.213 23.4022 213.102 23.5443 212.96 23.6768C212.821 23.8071 212.644 23.9124 212.431 23.9929C212.221 24.071 211.973 24.1101 211.689 24.1101ZM212.023 23.1655C212.281 23.1655 212.505 23.1146 212.694 23.0128C212.883 22.9086 213.029 22.7713 213.131 22.6009C213.235 22.4304 213.287 22.2446 213.287 22.0433V21.4006C213.247 21.4337 213.178 21.4645 213.081 21.4929C212.986 21.5213 212.88 21.5462 212.762 21.5675C212.643 21.5888 212.526 21.6077 212.41 21.6243C212.294 21.6409 212.193 21.6551 212.108 21.6669C211.916 21.6929 211.745 21.7356 211.593 21.7947C211.442 21.8539 211.322 21.9368 211.235 22.0433C211.147 22.1475 211.103 22.2824 211.103 22.4482C211.103 22.6849 211.19 22.8636 211.362 22.9844C211.535 23.1051 211.755 23.1655 212.023 23.1655ZM217.147 20.804V24H215.862V18.5455H217.09V19.4723H217.154C217.28 19.1669 217.48 18.9242 217.754 18.7443C218.031 18.5644 218.374 18.4744 218.781 18.4744C219.157 18.4744 219.485 18.5549 219.764 18.7159C220.046 18.8769 220.264 19.1101 220.418 19.4155C220.574 19.7209 220.651 20.0914 220.649 20.527V24H219.363V20.7259C219.363 20.3613 219.268 20.076 219.079 19.87C218.892 19.6641 218.633 19.5611 218.301 19.5611C218.076 19.5611 217.876 19.6108 217.701 19.7102C217.528 19.8073 217.392 19.9482 217.293 20.1328C217.196 20.3175 217.147 20.5412 217.147 20.804ZM223.525 24.1101C223.179 24.1101 222.868 24.0485 222.591 23.9254C222.316 23.8 222.099 23.6153 221.938 23.3714C221.779 23.1276 221.7 22.8269 221.7 22.4695C221.7 22.1617 221.757 21.9072 221.87 21.706C221.984 21.5047 222.139 21.3438 222.335 21.223C222.532 21.1023 222.753 21.0111 222.999 20.9496C223.248 20.8857 223.505 20.8395 223.77 20.8111C224.09 20.7779 224.349 20.7483 224.548 20.7223C224.747 20.6939 224.891 20.6513 224.981 20.5945C225.073 20.5353 225.119 20.4441 225.119 20.321V20.2997C225.119 20.0322 225.04 19.825 224.882 19.6783C224.723 19.5315 224.494 19.4581 224.196 19.4581C223.881 19.4581 223.632 19.5268 223.447 19.6641C223.265 19.8014 223.142 19.9635 223.078 20.1506L221.877 19.9801C221.972 19.6487 222.128 19.3717 222.346 19.1491C222.564 18.9242 222.83 18.7562 223.145 18.6449C223.46 18.5312 223.808 18.4744 224.189 18.4744C224.452 18.4744 224.713 18.5052 224.974 18.5668C225.234 18.6283 225.472 18.7301 225.688 18.8722C225.903 19.0118 226.076 19.2024 226.206 19.4439C226.339 19.6854 226.405 19.9872 226.405 20.3494V24H225.169V23.2507H225.127C225.048 23.4022 224.938 23.5443 224.796 23.6768C224.657 23.8071 224.48 23.9124 224.267 23.9929C224.057 24.071 223.809 24.1101 223.525 24.1101ZM223.859 23.1655C224.117 23.1655 224.341 23.1146 224.53 23.0128C224.719 22.9086 224.865 22.7713 224.967 22.6009C225.071 22.4304 225.123 22.2446 225.123 22.0433V21.4006C225.083 21.4337 225.014 21.4645 224.917 21.4929C224.822 21.5213 224.716 21.5462 224.597 21.5675C224.479 21.5888 224.362 21.6077 224.246 21.6243C224.13 21.6409 224.029 21.6551 223.944 21.6669C223.752 21.6929 223.581 21.7356 223.429 21.7947C223.278 21.8539 223.158 21.9368 223.07 22.0433C222.983 22.1475 222.939 22.2824 222.939 22.4482C222.939 22.6849 223.026 22.8636 223.198 22.9844C223.371 23.1051 223.591 23.1655 223.859 23.1655ZM230.07 26.1591C229.608 26.1591 229.212 26.0964 228.88 25.9709C228.549 25.8478 228.282 25.6821 228.081 25.4737C227.88 25.2654 227.74 25.0346 227.662 24.7812L228.82 24.5007C228.872 24.6072 228.948 24.7126 229.047 24.8168C229.146 24.9233 229.28 25.0109 229.448 25.0795C229.619 25.1506 229.833 25.1861 230.091 25.1861C230.456 25.1861 230.758 25.0973 230.997 24.9197C231.236 24.7446 231.355 24.4557 231.355 24.0533V23.0199H231.291C231.225 23.1525 231.128 23.2886 231 23.4283C230.875 23.5679 230.708 23.6851 230.499 23.7798C230.294 23.8745 230.034 23.9219 229.722 23.9219C229.303 23.9219 228.923 23.8236 228.582 23.6271C228.243 23.4283 227.973 23.1323 227.772 22.7393C227.573 22.344 227.474 21.8492 227.474 21.255C227.474 20.656 227.573 20.1506 227.772 19.7386C227.973 19.3243 228.244 19.0107 228.585 18.7976C228.926 18.5821 229.306 18.4744 229.725 18.4744C230.045 18.4744 230.308 18.5289 230.514 18.6378C230.722 18.7443 230.888 18.8733 231.011 19.0249C231.134 19.174 231.227 19.3149 231.291 19.4474H231.362V18.5455H232.63V24.0888C232.63 24.5552 232.519 24.9411 232.296 25.2464C232.074 25.5518 231.77 25.7803 231.384 25.9318C230.998 26.0833 230.56 26.1591 230.07 26.1591ZM230.08 22.9134C230.353 22.9134 230.585 22.8471 230.776 22.7145C230.968 22.5819 231.114 22.3913 231.213 22.1428C231.313 21.8942 231.362 21.5959 231.362 21.2479C231.362 20.9046 231.313 20.6039 231.213 20.3459C231.116 20.0878 230.972 19.8878 230.78 19.7457C230.591 19.6013 230.357 19.5291 230.08 19.5291C229.794 19.5291 229.555 19.6037 229.363 19.7528C229.171 19.902 229.027 20.1068 228.93 20.3672C228.833 20.6252 228.784 20.9188 228.784 21.2479C228.784 21.5817 228.833 21.8741 228.93 22.125C229.029 22.3736 229.175 22.5677 229.367 22.7074C229.561 22.8447 229.799 22.9134 230.08 22.9134ZM236.362 24.1065C235.816 24.1065 235.343 23.9929 234.945 23.7656C234.55 23.536 234.246 23.2116 234.033 22.7926C233.82 22.3712 233.713 21.8752 233.713 21.3047C233.713 20.7436 233.82 20.2512 234.033 19.8274C234.248 19.4013 234.549 19.0698 234.935 18.8331C235.321 18.594 235.774 18.4744 236.295 18.4744C236.631 18.4744 236.948 18.5289 237.247 18.6378C237.547 18.7443 237.812 18.91 238.042 19.1349C238.274 19.3598 238.456 19.6463 238.589 19.9943C238.722 20.34 238.788 20.7519 238.788 21.2301V21.6243H234.317V20.7578H237.556C237.553 20.5116 237.5 20.2926 237.396 20.1009C237.292 19.9067 237.146 19.754 236.959 19.6428C236.774 19.5315 236.559 19.4759 236.313 19.4759C236.05 19.4759 235.819 19.5398 235.62 19.6676C235.421 19.7931 235.266 19.9588 235.155 20.1648C235.046 20.3684 234.99 20.5921 234.988 20.8359V21.5923C234.988 21.9096 235.046 22.1818 235.162 22.4091C235.278 22.634 235.44 22.8068 235.649 22.9276C235.857 23.0459 236.101 23.1051 236.38 23.1051C236.567 23.1051 236.736 23.0791 236.888 23.027C237.039 22.9725 237.171 22.8932 237.282 22.7891C237.393 22.6849 237.477 22.5559 237.534 22.402L238.735 22.5369C238.659 22.8542 238.514 23.1312 238.301 23.3679C238.091 23.6023 237.821 23.7846 237.492 23.9148C237.163 24.0426 236.786 24.1065 236.362 24.1065ZM248.638 19.1811H247.31C247.272 18.9633 247.202 18.7704 247.1 18.6023C246.998 18.4318 246.872 18.2874 246.72 18.169C246.569 18.0507 246.396 17.9619 246.202 17.9027C246.01 17.8411 245.803 17.8104 245.58 17.8104C245.185 17.8104 244.835 17.9098 244.529 18.1087C244.224 18.3052 243.985 18.594 243.812 18.9751C243.639 19.3539 243.553 19.8168 243.553 20.3636C243.553 20.92 243.639 21.3887 243.812 21.7699C243.987 22.1487 244.226 22.4351 244.529 22.6293C244.835 22.821 245.184 22.9169 245.577 22.9169C245.795 22.9169 245.998 22.8885 246.188 22.8317C246.379 22.7725 246.551 22.6861 246.702 22.5724C246.856 22.4588 246.985 22.3191 247.089 22.1534C247.196 21.9877 247.269 21.7983 247.31 21.5852L248.638 21.5923C248.588 21.938 248.48 22.2623 248.315 22.5653C248.151 22.8684 247.937 23.1359 247.672 23.3679C247.407 23.5975 247.097 23.7775 246.741 23.9077C246.386 24.0355 245.992 24.0994 245.559 24.0994C244.92 24.0994 244.349 23.9515 243.847 23.6555C243.345 23.3596 242.95 22.9323 242.661 22.3736C242.372 21.8149 242.228 21.1449 242.228 20.3636C242.228 19.58 242.374 18.91 242.665 18.3537C242.956 17.795 243.353 17.3677 243.854 17.0717C244.356 16.7758 244.924 16.6278 245.559 16.6278C245.964 16.6278 246.34 16.6847 246.688 16.7983C247.036 16.9119 247.346 17.0788 247.619 17.299C247.891 17.5168 248.115 17.7843 248.29 18.1016C248.467 18.4164 248.583 18.7763 248.638 19.1811ZM251.073 16.7273V24H249.787V16.7273H251.073ZM254.774 24.1065C254.241 24.1065 253.78 23.9893 253.389 23.755C252.999 23.5206 252.696 23.1927 252.48 22.7713C252.267 22.3499 252.161 21.8575 252.161 21.294C252.161 20.7306 252.267 20.237 252.48 19.8132C252.696 19.3894 252.999 19.0604 253.389 18.826C253.78 18.5916 254.241 18.4744 254.774 18.4744C255.307 18.4744 255.768 18.5916 256.159 18.826C256.55 19.0604 256.852 19.3894 257.065 19.8132C257.28 20.237 257.388 20.7306 257.388 21.294C257.388 21.8575 257.28 22.3499 257.065 22.7713C256.852 23.1927 256.55 23.5206 256.159 23.755C255.768 23.9893 255.307 24.1065 254.774 24.1065ZM254.781 23.0767C255.07 23.0767 255.312 22.9974 255.506 22.8388C255.7 22.6778 255.844 22.4624 255.939 22.1925C256.036 21.9226 256.085 21.6219 256.085 21.2905C256.085 20.9567 256.036 20.6548 255.939 20.3849C255.844 20.1127 255.7 19.8961 255.506 19.7351C255.312 19.5741 255.07 19.4936 254.781 19.4936C254.485 19.4936 254.239 19.5741 254.043 19.7351C253.848 19.8961 253.703 20.1127 253.606 20.3849C253.511 20.6548 253.464 20.9567 253.464 21.2905C253.464 21.6219 253.511 21.9226 253.606 22.1925C253.703 22.4624 253.848 22.6778 254.043 22.8388C254.239 22.9974 254.485 23.0767 254.781 23.0767ZM262.79 19.9872L261.618 20.1151C261.585 19.9967 261.527 19.8854 261.444 19.7812C261.364 19.6771 261.255 19.593 261.117 19.5291C260.98 19.4652 260.812 19.4332 260.613 19.4332C260.346 19.4332 260.121 19.4912 259.938 19.6072C259.758 19.7232 259.67 19.8736 259.672 20.0582C259.67 20.2169 259.728 20.3459 259.846 20.4453C259.967 20.5447 260.166 20.6264 260.443 20.6903L261.373 20.8892C261.889 21.0005 262.273 21.1768 262.524 21.4183C262.777 21.6598 262.905 21.9759 262.907 22.3665C262.905 22.7098 262.804 23.0128 262.605 23.2756C262.409 23.536 262.135 23.7396 261.785 23.8864C261.435 24.0331 261.032 24.1065 260.578 24.1065C259.91 24.1065 259.373 23.9669 258.965 23.6875C258.558 23.4058 258.316 23.014 258.237 22.5121L259.491 22.3913C259.548 22.6375 259.669 22.8234 259.853 22.9489C260.038 23.0743 260.278 23.1371 260.574 23.1371C260.879 23.1371 261.124 23.0743 261.309 22.9489C261.496 22.8234 261.59 22.6683 261.59 22.4837C261.59 22.3274 261.529 22.1984 261.409 22.0966C261.29 21.9948 261.106 21.9167 260.855 21.8622L259.924 21.6669C259.401 21.558 259.014 21.3745 258.763 21.1165C258.512 20.8561 258.388 20.527 258.39 20.1293C258.388 19.7931 258.479 19.5019 258.664 19.2557C258.851 19.0071 259.11 18.8153 259.441 18.6804C259.775 18.5431 260.16 18.4744 260.595 18.4744C261.235 18.4744 261.738 18.6106 262.105 18.8828C262.474 19.1551 262.702 19.5232 262.79 19.9872ZM266.382 24.1065C265.835 24.1065 265.363 23.9929 264.965 23.7656C264.57 23.536 264.265 23.2116 264.052 22.7926C263.839 22.3712 263.733 21.8752 263.733 21.3047C263.733 20.7436 263.839 20.2512 264.052 19.8274C264.268 19.4013 264.568 19.0698 264.954 18.8331C265.34 18.594 265.794 18.4744 266.314 18.4744C266.651 18.4744 266.968 18.5289 267.266 18.6378C267.567 18.7443 267.832 18.91 268.062 19.1349C268.294 19.3598 268.476 19.6463 268.608 19.9943C268.741 20.34 268.807 20.7519 268.807 21.2301V21.6243H264.336V20.7578H267.575C267.573 20.5116 267.519 20.2926 267.415 20.1009C267.311 19.9067 267.166 19.754 266.979 19.6428C266.794 19.5315 266.578 19.4759 266.332 19.4759C266.069 19.4759 265.839 19.5398 265.64 19.6676C265.441 19.7931 265.286 19.9588 265.175 20.1648C265.066 20.3684 265.01 20.5921 265.008 20.8359V21.5923C265.008 21.9096 265.066 22.1818 265.182 22.4091C265.298 22.634 265.46 22.8068 265.668 22.9276C265.876 23.0459 266.12 23.1051 266.4 23.1051C266.587 23.1051 266.756 23.0791 266.907 23.027C267.059 22.9725 267.19 22.8932 267.302 22.7891C267.413 22.6849 267.497 22.5559 267.554 22.402L268.754 22.5369C268.678 22.8542 268.534 23.1312 268.321 23.3679C268.11 23.6023 267.84 23.7846 267.511 23.9148C267.182 24.0426 266.806 24.1065 266.382 24.1065ZM271.18 16.7273V24H269.895V16.7273H271.18ZM273.301 26.0455C273.126 26.0455 272.964 26.0313 272.815 26.0028C272.668 25.9768 272.551 25.946 272.463 25.9105L272.762 24.9091C272.949 24.9635 273.115 24.9896 273.262 24.9872C273.409 24.9848 273.538 24.9387 273.649 24.8487C273.763 24.7611 273.859 24.6143 273.937 24.4084L274.047 24.1136L272.069 18.5455H273.433L274.69 22.6648H274.747L276.007 18.5455H277.374L275.191 24.6605C275.089 24.9493 274.954 25.1967 274.786 25.4027C274.618 25.611 274.412 25.7696 274.168 25.8786C273.926 25.9898 273.637 26.0455 273.301 26.0455Z" fill="#0C098C"/>
<path d="M10 349.368H2.72727V347.83H8.73224V344.712H10V349.368ZM10.1065 341.258C10.1065 341.81 9.98935 342.287 9.75497 342.689C9.51823 343.089 9.18916 343.398 8.76776 343.616C8.34399 343.834 7.85275 343.943 7.29403 343.943C6.73059 343.943 6.23816 343.834 5.81676 343.616C5.39299 343.398 5.06392 343.089 4.82955 342.689C4.5928 342.287 4.47443 341.81 4.47443 341.258C4.47443 340.706 4.5928 340.231 4.82955 339.83C5.06392 339.428 5.39299 339.118 5.81676 338.9C6.23816 338.682 6.73059 338.573 7.29403 338.573C7.85275 338.573 8.34399 338.682 8.76776 338.9C9.18916 339.118 9.51823 339.428 9.75497 339.83C9.98935 340.231 10.1065 340.706 10.1065 341.258ZM8.93466 341.251C8.93466 341 8.86364 340.79 8.72159 340.622C8.57718 340.454 8.38068 340.328 8.1321 340.242C7.88352 340.155 7.60062 340.111 7.28338 340.111C6.96615 340.111 6.68324 340.155 6.43466 340.242C6.18608 340.328 5.98958 340.454 5.84517 340.622C5.70076 340.79 5.62855 341 5.62855 341.251C5.62855 341.504 5.70076 341.717 5.84517 341.89C5.98958 342.061 6.18608 342.19 6.43466 342.277C6.68324 342.362 6.96615 342.405 7.28338 342.405C7.60062 342.405 7.88352 342.362 8.1321 342.277C8.38068 342.19 8.57718 342.061 8.72159 341.89C8.86364 341.717 8.93466 341.504 8.93466 341.251ZM10 336.65L4.54545 338.135V336.604L8.21023 335.759V335.709L4.54545 334.829V333.327L8.18892 332.432V332.385L4.54545 331.555V330.028L10 331.508V333.11L6.5696 334.047V334.115L10 335.052L10 336.65ZM2.72727 325.34H10V326.878H2.72727V325.34ZM6.84659 322.591H10V324.103H4.54545V322.662H5.50781V322.598C5.19058 322.477 4.93963 322.275 4.75497 321.99C4.56795 321.706 4.47443 321.362 4.47443 320.957C4.47443 320.578 4.55729 320.248 4.72301 319.966C4.88873 319.685 5.12547 319.466 5.43324 319.309C5.73864 319.153 6.10322 319.075 6.52699 319.075H10V320.588H6.79688C6.46307 320.585 6.20265 320.671 6.01563 320.843C5.82623 321.016 5.73153 321.254 5.73153 321.557C5.73153 321.761 5.77533 321.941 5.86293 322.097C5.95052 322.251 6.07836 322.372 6.24645 322.459C6.41217 322.544 6.61222 322.588 6.84659 322.591ZM4.54545 314.949H5.68182V318.316H4.54545V314.949ZM10 317.545H4.15128C3.75592 317.545 3.42803 317.468 3.16761 317.314C2.9072 317.158 2.71188 316.945 2.58168 316.675C2.45147 316.405 2.38636 316.099 2.38636 315.756C2.38636 315.523 2.40412 315.312 2.43963 315.12C2.47514 314.926 2.5071 314.781 2.53551 314.687L3.67188 314.956C3.65294 315.016 3.63518 315.089 3.61861 315.177C3.60204 315.262 3.59375 315.349 3.59375 315.439C3.59375 315.662 3.64583 315.817 3.75 315.905C3.8518 315.992 3.99503 316.036 4.17969 316.036H10V317.545ZM2.72727 312.512H10V314.025H2.72727V312.512ZM7.67756 307.803H4.54545V306.29H10L10 307.742H9.00923V307.799C9.32884 307.922 9.5857 308.127 9.77983 308.414C9.97396 308.698 10.071 309.044 10.071 309.454C10.071 309.819 9.98816 310.139 9.82244 310.416C9.65672 310.693 9.42116 310.91 9.11577 311.066C8.81037 311.22 8.4446 311.298 8.01847 311.301H4.54545V309.788H7.74858C8.07055 309.785 8.32505 309.699 8.51207 309.529C8.6991 309.358 8.79261 309.13 8.79261 308.843C8.79261 308.661 8.75118 308.49 8.66832 308.332C8.5831 308.173 8.45762 308.045 8.2919 307.948C8.12618 307.849 7.9214 307.8 7.67756 307.803ZM10.1065 302.594C10.1065 303.155 9.9929 303.638 9.76563 304.043C9.53598 304.445 9.21165 304.756 8.79261 304.973C8.37121 305.191 7.87287 305.3 7.29759 305.3C6.73651 305.3 6.24408 305.191 5.82031 304.973C5.39654 304.756 5.06629 304.449 4.82955 304.054C4.5928 303.656 4.47443 303.19 4.47443 302.654C4.47443 302.295 4.53243 301.96 4.64844 301.65C4.76207 301.337 4.93371 301.065 5.16335 300.833C5.39299 300.598 5.68182 300.416 6.02983 300.286C6.37547 300.156 6.7803 300.091 7.24432 300.091H7.6598V304.696H6.7223V301.515C6.5045 301.515 6.31155 301.562 6.14347 301.657C5.97538 301.751 5.84399 301.883 5.74929 302.051C5.65223 302.217 5.60369 302.409 5.60369 302.63C5.60369 302.859 5.65696 303.063 5.76349 303.24C5.86766 303.416 6.00852 303.553 6.18608 303.652C6.36127 303.752 6.55658 303.803 6.77202 303.805H7.66335C7.93324 303.805 8.16643 303.755 8.36293 303.656C8.55942 303.554 8.71094 303.411 8.81747 303.226C8.92401 303.042 8.97727 302.823 8.97727 302.569C8.97727 302.401 8.9536 302.247 8.90625 302.108C8.8589 301.968 8.78788 301.848 8.69318 301.749C8.59848 301.65 8.48248 301.574 8.34517 301.522L8.4375 300.123C8.77367 300.194 9.06723 300.339 9.31818 300.559C9.56676 300.777 9.76089 301.059 9.90057 301.404C10.0379 301.748 10.1065 302.144 10.1065 302.594ZM6.84659 297.591H10V299.103H4.54545V297.662H5.50781V297.598C5.19058 297.477 4.93963 297.275 4.75497 296.99C4.56795 296.706 4.47443 296.362 4.47443 295.957C4.47443 295.578 4.55729 295.248 4.72301 294.966C4.88873 294.685 5.12547 294.466 5.43324 294.309C5.73864 294.153 6.10322 294.075 6.52699 294.075H10V295.588H6.79688C6.46307 295.585 6.20265 295.671 6.01563 295.843C5.82623 296.016 5.73153 296.254 5.73153 296.557C5.73153 296.761 5.77533 296.941 5.86293 297.097C5.95052 297.251 6.07836 297.372 6.24645 297.459C6.41217 297.544 6.61222 297.588 6.84659 297.591ZM10.1065 290.418C10.1065 290.977 9.98816 291.457 9.75142 291.86C9.51231 292.26 9.18087 292.568 8.7571 292.783C8.33333 292.996 7.84564 293.103 7.29403 293.103C6.73532 293.103 6.24527 292.995 5.82386 292.78C5.40009 292.562 5.06984 292.253 4.8331 291.853C4.59399 291.453 4.47443 290.977 4.47443 290.425C4.47443 289.949 4.56084 289.533 4.73366 289.175C4.90649 288.818 5.14915 288.535 5.46165 288.327C5.77415 288.118 6.1411 288.003 6.5625 287.982V289.41C6.29025 289.45 6.07126 289.556 5.90554 289.729C5.73745 289.9 5.65341 290.123 5.65341 290.4C5.65341 290.635 5.71733 290.84 5.84517 291.015C5.97064 291.188 6.15412 291.323 6.3956 291.42C6.63707 291.517 6.92945 291.565 7.27273 291.565C7.62074 291.565 7.91667 291.518 8.16051 291.423C8.40436 291.326 8.5902 291.19 8.71804 291.015C8.84588 290.84 8.9098 290.635 8.9098 290.4C8.9098 290.228 8.87429 290.073 8.80327 289.935C8.73224 289.796 8.62926 289.681 8.49432 289.591C8.35701 289.498 8.19247 289.438 8.00071 289.41V287.982C8.41738 288.006 8.78433 288.119 9.10156 288.323C9.41643 288.524 9.66264 288.802 9.8402 289.157C10.0178 289.513 10.1065 289.933 10.1065 290.418ZM10.1065 284.528C10.1065 285.089 9.9929 285.572 9.76563 285.977C9.53598 286.379 9.21165 286.689 8.79261 286.907C8.37121 287.125 7.87287 287.234 7.29759 287.234C6.73651 287.234 6.24408 287.125 5.82031 286.907C5.39654 286.689 5.06629 286.383 4.82955 285.987C4.5928 285.589 4.47443 285.123 4.47443 284.588C4.47443 284.228 4.53243 283.893 4.64844 283.583C4.76207 283.271 4.93371 282.998 5.16335 282.766C5.39299 282.532 5.68182 282.35 6.02983 282.219C6.37547 282.089 6.7803 282.024 7.24432 282.024H7.6598L7.6598 286.63H6.7223L6.7223 283.448C6.5045 283.448 6.31155 283.496 6.14347 283.59C5.97538 283.685 5.84399 283.816 5.74929 283.984C5.65223 284.15 5.60369 284.343 5.60369 284.563C5.60369 284.793 5.65696 284.996 5.76349 285.174C5.86766 285.349 6.00852 285.487 6.18608 285.586C6.36127 285.685 6.55658 285.736 6.77202 285.739H7.66335C7.93324 285.739 8.16643 285.689 8.36293 285.589C8.55942 285.488 8.71094 285.344 8.81747 285.16C8.92401 284.975 8.97727 284.756 8.97727 284.503C8.97727 284.335 8.9536 284.181 8.90625 284.041C8.8589 283.902 8.78788 283.782 8.69318 283.683C8.59848 283.583 8.48248 283.507 8.34517 283.455L8.4375 282.056C8.77367 282.127 9.06723 282.273 9.31818 282.493C9.56676 282.711 9.76089 282.992 9.90057 283.338C10.0379 283.681 10.1065 284.078 10.1065 284.528Z" fill="#0C098C"/>
</svg>
